<svg width="55" height="54" viewBox="0 0 55 54" fill="none" xmlns="http://www.w3.org/2000/svg">
<mask id="mask0_5622_4950" style="mask-type:luminance" maskUnits="userSpaceOnUse" x="0" y="0" width="55" height="54">
<path d="M54.5938 0H0V53.8161H54.5938V0Z" fill="white"/>
</mask>
<g mask="url(#mask0_5622_4950)">
<mask id="mask1_5622_4950" style="mask-type:luminance" maskUnits="userSpaceOnUse" x="-1" y="-1" width="56" height="56">
<path d="M-0.222656 -0.175781H54.595V54.2833H-0.222656V-0.175781Z" fill="white"/>
</mask>
<g mask="url(#mask1_5622_4950)">
<mask id="mask2_5622_4950" style="mask-type:luminance" maskUnits="userSpaceOnUse" x="-1" y="-1" width="56" height="56">
<path d="M17.0618 -0.175781H37.3106C41.8935 -0.175781 46.2903 1.62018 49.5317 4.81538C52.7731 8.01058 54.595 12.3448 54.595 16.8624V37.1001C54.595 41.6177 52.7731 45.9519 49.5317 49.1471C46.2903 52.3423 41.8935 54.1383 37.3106 54.1383H17.0618C12.4788 54.1383 8.082 52.3423 4.84063 49.1471C1.59926 45.9519 -0.222656 41.6177 -0.222656 37.1001V16.8624C-0.222656 12.3448 1.59926 8.01058 4.84063 4.81538C8.082 1.62018 12.4788 -0.175781 17.0618 -0.175781Z" fill="white"/>
</mask>
<g mask="url(#mask2_5622_4950)">
<mask id="mask3_5622_4950" style="mask-type:luminance" maskUnits="userSpaceOnUse" x="-1" y="-1" width="57" height="56">
<path d="M55.5558 -0.947266H-0.945312V54.749H55.5558V-0.947266Z" fill="white"/>
</mask>
<g mask="url(#mask3_5622_4950)">
<mask id="mask4_5622_4950" style="mask-type:luminance" maskUnits="userSpaceOnUse" x="-1" y="-1" width="56" height="56">
<path d="M-0.222656 -0.175781H54.595V54.2108H-0.222656V-0.175781Z" fill="white"/>
</mask>
<g mask="url(#mask4_5622_4950)">
<mask id="mask5_5622_4950" style="mask-type:luminance" maskUnits="userSpaceOnUse" x="-1" y="-1" width="56" height="56">
<path d="M17.0618 -0.175781H37.3106C41.8935 -0.175781 46.2903 1.62018 49.5317 4.81538C52.7731 8.01058 54.595 12.3448 54.595 16.8624V37.1001C54.595 41.6177 52.7731 45.9519 49.5317 49.1471C46.2903 52.3423 41.8935 54.1383 37.3106 54.1383H17.0618C12.4788 54.1383 8.082 52.3423 4.84063 49.1471C1.59926 45.9519 -0.222656 41.6177 -0.222656 37.1001V16.8624C-0.222656 12.3448 1.59926 8.01058 4.84063 4.81538C8.082 1.62018 12.4788 -0.175781 17.0618 -0.175781Z" fill="white"/>
</mask>
<g mask="url(#mask5_5622_4950)">
<path d="M-0.222656 -0.175781H54.595V54.07H-0.222656V-0.175781Z" fill="#BFEEFF"/>
</g>
</g>
</g>
</g>
</g>
</g>
<g clip-path="url(#clip0_5622_4950)">
<path d="M34.3099 31.6099C33.8423 30.8768 32.5379 31.2044 31.9449 30.6969C32.7755 30.4783 34.4768 30.7431 34.9756 29.8942C35.0844 29.7094 35.1259 29.2825 35.2091 29.1977C35.2707 29.1349 35.9046 28.9584 36.084 28.8646C38.5744 27.5654 35.2111 24.5533 34.5337 23.0617C34.4263 16.4044 31.3706 11.9262 24.4107 11.5H22.8901C19.3225 11.7317 15.7792 13.5702 13.7501 16.5416C11.2528 20.2006 12.3086 24.5395 14.402 28.1019C15.7813 30.4493 17.3448 31.5954 16.8446 34.6199C16.5107 36.6391 15.7383 38.7313 15.2208 40.7146C15.1876 41.0545 15.3663 41.3635 15.6995 41.4648L27.5585 41.5C28.5983 41.4386 28.2207 40.5477 28.2097 39.8836C28.1958 39.0499 28.0877 37.2563 29.0555 36.9363C29.8958 36.6584 30.9882 36.9411 31.9033 36.8122C33.2867 36.6163 34.2572 35.615 34.4332 34.2386C34.4983 33.7283 34.3958 33.2759 34.4006 32.7925C34.4048 32.3339 34.6521 32.1471 34.3099 31.6099Z" fill="#35C8ED"/>
<path d="M41.7733 30.1313C41.8973 29.199 41.8148 28.3274 41.172 27.5985C40.6289 26.9827 38.8326 26.1745 38.9898 27.5661C39.0515 28.1143 39.5503 28.0405 39.8897 28.2557C40.3656 28.5584 40.5284 29.0811 40.4411 29.6245C40.4051 29.8493 40.2035 30.0341 40.1723 30.2534C40.0684 30.9837 40.7425 30.9982 41.1713 31.3147C42.2312 32.0967 42.2235 33.6931 41.1595 34.4675C40.4848 34.9585 40.2735 34.7233 39.5863 34.8275C38.6442 34.9709 39.2905 36.0811 38.5749 36.7107C37.905 37.301 37.1998 36.717 36.7807 37.1948C36.4226 37.6038 36.6879 38.2437 37.2358 38.3278C38.7176 38.5547 39.9985 37.6382 40.3227 36.2142C43.4095 35.8315 44.4223 31.8015 41.7733 30.1313Z" fill="#35C8ED"/>
<path d="M39.1107 33.9091C39.4806 33.5671 39.3379 32.9713 38.8752 32.7755C38.4096 32.5775 36.125 31.9721 35.6408 31.9355C34.6654 31.8611 34.4562 32.8755 35.2632 33.2065C35.7689 33.4133 37.9607 34.0084 38.4824 34.0636C38.6798 34.0843 38.9624 34.0464 39.1107 33.9091Z" fill="#35C8ED"/>
<path d="M35.8674 29.953C35.3326 30.0681 35.1913 30.8798 35.6541 31.1687C36.1903 31.5046 37.5743 31.5839 38.2117 31.8631C38.928 31.8831 39.2099 30.9591 38.5767 30.5991C38.362 30.4764 36.4736 29.9875 36.1785 29.9564C36.0656 29.9447 35.9866 29.9268 35.8674 29.953Z" fill="#35C8ED"/>
</g>
<defs>
<clipPath id="clip0_5622_4950">
<rect width="31" height="30" fill="white" transform="translate(12.2969 11.5)"/>
</clipPath>
</defs>
</svg>
