<svg xmlns="http://www.w3.org/2000/svg" width="200" height="100" viewBox="0 0 200 100"><g transform="translate(-1153 -303)"><g transform="translate(1154.14 316.57)"><path d="M138.58,25.7h-3.687V48.263H152.21l2.35-3.686H138.58ZM88.053,26.82,74.541,48.263h4.47l4.078-6.477H91.8L94.09,38.1H85.38l4.749-7.427,11.1,17.59h4.47l-13.63-21.5a2.442,2.442,0,0,0-4.035.054h0Zm26.187,2.565h15.5l2.286-3.681-17.9.011c-6.225,0-10.324,5.044-10.324,11.269s4.1,11.269,10.324,11.269h0l15.132-.016,2.372-3.649h-17.4c-4.2,0-6.654-3.4-6.654-7.6s2.458-7.6,6.654-7.6h0Zm-79.08-3.676H19.184c-6.225,0-10.324,5.044-10.324,11.269s4.1,11.269,10.324,11.269H35.154c6.225,0,10.324-5.044,10.324-11.269s-4.1-11.269-10.324-11.269h0Zm0,18.878H19.184c-4.2,0-6.654-3.4-6.654-7.6s2.458-7.6,6.654-7.6H35.154c4.2,0,6.654,3.4,6.654,7.6,0,4.186-2.458,7.6-6.654,7.6h0Zm129.929-15.2h15.5l2.286-3.681-17.9.011c-6.225,0-10.324,5.044-10.324,11.269s4.1,11.269,10.324,11.269h0l15.132-.021,2.372-3.649H165.088c-3.585,0-5.876-2.479-6.477-5.817h19.516l2.345-3.686H158.611c.644-3.263,2.941-5.7,6.477-5.7h0ZM66.486,39.1a6.692,6.692,0,0,0,0-13.383h0l-18.792-.005V48.273h4.132V29.385h14.66a3.021,3.021,0,0,1,0,6.042H54.735L67.989,48.241h5.339l-9.5-9.133,2.651-.011ZM186.821,25.43a2.012,2.012,0,1,0,2.039,2.007,2.011,2.011,0,0,0-2.039-2.007Zm0,3.692a1.68,1.68,0,1,1,1.631-1.685,1.629,1.629,0,0,1-1.631,1.685Z" fill="#ef4027" fill-rule="evenodd"/><path d="M340.268,28.459a.672.672,0,0,0,.668-.715c0-.507-.3-.733-.912-.733h-.984v2.582h.394V28.471h.447l.68,1.121H341Zm-.835-.316v-.8h.537c.274,0,.56.06.56.382,0,.394-.3.417-.626.417h-.465Z" transform="translate(-153.316 -0.638)" fill="#ef4027" fill-rule="evenodd"/></g><g transform="translate(1153 303)" fill="none" stroke="rgba(255,255,255,0)" stroke-width="1"><rect width="200" height="100" stroke="none"/><rect x="0.5" y="0.5" width="199" height="99" fill="none"/></g></g></svg>