<svg width="259" height="261" viewBox="0 0 259 261" fill="none" xmlns="http://www.w3.org/2000/svg">
<path d="M130.54 0.283172C59.26 -0.436828 0 58.2032 0 129.483C0 185.003 35.03 232.343 84.19 250.623V205.653C58.16 190.243 40.72 161.873 40.73 129.433C40.76 81.3132 79.82 41.6932 127.94 41.0232C177.38 40.3332 217.67 80.2032 217.67 129.483C217.67 161.903 200.23 190.253 174.21 205.653V250.623C223.37 232.343 258.4 185.013 258.4 129.483C258.41 58.5732 201.28 1.01317 130.54 0.283172Z" fill="#F79600"/>
<path d="M167.22 252.553V189.833C167.22 185.415 163.638 181.833 159.22 181.833H99.19C94.7717 181.833 91.19 185.415 91.19 189.833V252.553C91.19 256.972 94.7717 260.553 99.19 260.553H159.22C163.638 260.553 167.22 256.972 167.22 252.553Z" fill="#F79600"/>
<path d="M103.22 96.7632V70.0832C103.22 69.7232 103.46 69.4832 103.82 69.4832H106.45C106.81 69.4832 107.05 69.7232 107.05 70.0832V96.7632C107.05 97.1232 106.81 97.3632 106.45 97.3632H103.82C103.46 97.3632 103.22 97.1232 103.22 96.7632Z" fill="black"/>
<path d="M112.3 89.9131V88.9531C112.3 88.5931 112.54 88.3531 112.9 88.3531H115.45C115.81 88.3531 116.05 88.5931 116.05 88.9531V89.7131C116.05 92.3431 118.48 94.3731 122.46 94.3731C126.44 94.3731 128 92.5831 128 90.1931C128 87.6831 125.85 86.5731 121.19 84.6931C116.65 82.9431 112.67 81.3431 112.67 76.4931C112.67 71.6431 116.21 69.1631 121.75 69.1631C127.72 69.1631 131.59 72.3531 131.59 77.0931V77.6931C131.59 78.0531 131.35 78.2931 130.99 78.2931H128.4C128.04 78.2931 127.8 78.0931 127.8 77.7731V77.2931C127.8 74.6231 125.61 72.4731 121.59 72.4731C118.28 72.4731 116.41 73.8631 116.41 76.4131C116.41 78.9631 118.48 79.9531 123.18 81.7531C127.6 83.4631 131.82 85.2131 131.82 90.0731C131.82 94.6131 128.2 97.6831 122.18 97.6831C116.16 97.6831 112.3 94.6131 112.3 89.9131Z" fill="black"/>
<path d="M136.24 88.1631V78.6831C136.24 72.9931 140.18 69.1631 146.08 69.1631C151.98 69.1631 155.96 72.9831 155.96 78.6831V88.1631C155.96 93.8931 152.02 97.7231 146.08 97.7231C140.14 97.7231 136.24 93.9031 136.24 88.1631ZM152.13 88.3231V78.6431C152.13 74.9431 149.7 72.4731 146.08 72.4731C142.46 72.4731 140.07 74.9431 140.07 78.6431V88.3231C140.07 91.9831 142.5 94.4131 146.08 94.4131C149.66 94.4131 152.13 91.9831 152.13 88.3231Z" fill="black"/>
<path d="M103.22 96.7632V70.0832C103.22 69.7232 103.46 69.4832 103.82 69.4832H106.45C106.81 69.4832 107.05 69.7232 107.05 70.0832V96.7632C107.05 97.1232 106.81 97.3632 106.45 97.3632H103.82C103.46 97.3632 103.22 97.1232 103.22 96.7632Z" fill="#2E343D"/>
<path d="M112.3 89.9131V88.9531C112.3 88.5931 112.54 88.3531 112.9 88.3531H115.45C115.81 88.3531 116.05 88.5931 116.05 88.9531V89.7131C116.05 92.3431 118.48 94.3731 122.46 94.3731C126.44 94.3731 128 92.5831 128 90.1931C128 87.6831 125.85 86.5731 121.19 84.6931C116.65 82.9431 112.67 81.3431 112.67 76.4931C112.67 71.6431 116.21 69.1631 121.75 69.1631C127.72 69.1631 131.59 72.3531 131.59 77.0931V77.6931C131.59 78.0531 131.35 78.2931 130.99 78.2931H128.4C128.04 78.2931 127.8 78.0931 127.8 77.7731V77.2931C127.8 74.6231 125.61 72.4731 121.59 72.4731C118.28 72.4731 116.41 73.8631 116.41 76.4131C116.41 78.9631 118.48 79.9531 123.18 81.7531C127.6 83.4631 131.82 85.2131 131.82 90.0731C131.82 94.6131 128.2 97.6831 122.18 97.6831C116.16 97.6831 112.3 94.6131 112.3 89.9131Z" fill="#2E343D"/>
<path d="M136.24 88.1631V78.6831C136.24 72.9931 140.18 69.1631 146.08 69.1631C151.98 69.1631 155.96 72.9831 155.96 78.6831V88.1631C155.96 93.8931 152.02 97.7231 146.08 97.7231C140.14 97.7231 136.24 93.9031 136.24 88.1631ZM152.13 88.3231V78.6431C152.13 74.9431 149.7 72.4731 146.08 72.4731C142.46 72.4731 140.07 74.9431 140.07 78.6431V88.3231C140.07 91.9831 142.5 94.4131 146.08 94.4131C149.66 94.4131 152.13 91.9831 152.13 88.3231Z" fill="#2E343D"/>
<path d="M124.89 241.733C123.54 241.733 122.49 240.643 121.82 239.823C116.24 233.013 112.37 230.723 110.05 229.363C108.3 228.333 105.85 227.523 106.35 225.413C106.45 225.003 106.5 224.593 106.61 224.223C107.38 221.663 109.06 219.083 111.22 219.313C112.12 219.413 113.32 219.803 114.69 220.513C118.98 222.743 121 225.433 122.51 227.353C123.54 225.623 125.69 222.343 129.7 217.273C139.45 204.973 149.06 199.813 150.89 198.903C151.17 198.763 151.49 198.673 151.82 198.663H151.97C152.95 198.663 152.93 199.253 153.31 200.163C153.68 201.073 154.36 202.103 153.65 202.783C151.63 204.763 148.01 208.613 142.28 215.703C136.57 222.763 133.3 229.353 130.91 234.163C128.49 239.033 128.22 241.723 125.96 241.723H124.89V241.733Z" fill="white"/>
<path d="M40.4601 190.993L44.1101 195.773L49.1401 191.923L50.7201 193.983L38.8501 203.063L33.0801 195.523L34.7401 194.253L38.9301 199.733L42.4601 197.033L38.8101 192.253L40.4601 190.993Z" fill="white"/>
<path d="M30.26 175.063C31.26 174.523 32.23 174.173 33.16 174.003C34.09 173.833 34.96 173.843 35.77 174.023C36.58 174.203 37.31 174.543 37.96 175.053C38.62 175.563 39.16 176.223 39.6 177.033C40.04 177.843 40.29 178.653 40.35 179.483C40.42 180.313 40.3 181.113 40.01 181.893C39.72 182.673 39.25 183.413 38.61 184.113C37.96 184.803 37.14 185.423 36.14 185.963L35.47 186.323C34.47 186.863 33.5 187.213 32.56 187.373C31.62 187.533 30.75 187.523 29.93 187.343C29.12 187.163 28.38 186.823 27.73 186.313C27.07 185.803 26.53 185.143 26.09 184.343C25.65 183.533 25.4 182.713 25.33 181.883C25.26 181.053 25.38 180.253 25.67 179.473C25.97 178.693 26.44 177.963 27.09 177.273C27.74 176.583 28.57 175.963 29.57 175.433L30.24 175.073L30.26 175.063ZM30.8 177.723C30.07 178.123 29.46 178.543 28.97 178.983C28.48 179.433 28.12 179.893 27.89 180.363C27.66 180.843 27.55 181.323 27.57 181.823C27.59 182.323 27.73 182.823 28 183.323C28.26 183.813 28.6 184.193 29 184.483C29.41 184.773 29.87 184.943 30.4 185.013C30.93 185.083 31.51 185.043 32.15 184.883C32.79 184.723 33.48 184.453 34.22 184.053L34.91 183.683C35.64 183.283 36.26 182.863 36.74 182.413C37.23 181.963 37.59 181.493 37.82 181.013C38.05 180.533 38.16 180.033 38.14 179.533C38.12 179.033 37.98 178.543 37.72 178.053C37.17 177.043 36.37 176.473 35.3 176.343C34.24 176.213 32.96 176.553 31.48 177.353L30.79 177.723H30.8Z" fill="white"/>
<path d="M23.85 157.553C24.93 157.193 25.94 157.013 26.89 157.013C27.84 157.013 28.69 157.163 29.46 157.483C30.22 157.803 30.89 158.263 31.44 158.873C32 159.483 32.42 160.233 32.71 161.113C33 161.983 33.11 162.833 33.03 163.653C32.95 164.483 32.7 165.253 32.28 165.973C31.86 166.693 31.27 167.343 30.51 167.913C29.75 168.483 28.84 168.953 27.76 169.313L27.04 169.553C25.96 169.913 24.95 170.093 23.99 170.083C23.04 170.083 22.18 169.923 21.41 169.603C20.64 169.283 19.98 168.823 19.42 168.203C18.86 167.583 18.44 166.843 18.15 165.973C17.86 165.093 17.75 164.243 17.83 163.413C17.91 162.583 18.16 161.813 18.58 161.093C19.01 160.383 19.6 159.733 20.36 159.173C21.12 158.603 22.04 158.143 23.12 157.783L23.84 157.543L23.85 157.553ZM23.93 160.263C23.14 160.523 22.46 160.833 21.91 161.193C21.35 161.553 20.92 161.943 20.61 162.363C20.3 162.793 20.11 163.253 20.04 163.753C19.97 164.253 20.03 164.763 20.21 165.303C20.39 165.833 20.65 166.263 21 166.623C21.35 166.983 21.78 167.233 22.29 167.393C22.8 167.553 23.38 167.613 24.04 167.563C24.7 167.523 25.43 167.363 26.22 167.103L26.96 166.853C27.75 166.593 28.43 166.273 28.98 165.913C29.54 165.553 29.97 165.153 30.28 164.713C30.59 164.273 30.78 163.813 30.85 163.313C30.92 162.813 30.87 162.303 30.69 161.783C30.33 160.693 29.63 159.993 28.61 159.683C27.58 159.373 26.27 159.483 24.68 160.013L23.94 160.263H23.93Z" fill="white"/>
<path d="M29.3402 149.913L14.5702 152.173L13.9002 147.813C13.7502 146.823 13.7802 145.903 13.9802 145.033C14.1902 144.163 14.5502 143.393 15.0702 142.713C15.5902 142.033 16.2602 141.463 17.0802 141.013C17.9002 140.553 18.8402 140.243 19.9102 140.083L20.6402 139.973C21.7102 139.813 22.7002 139.823 23.6102 140.013C24.5202 140.203 25.3302 140.543 26.0302 141.043C26.7302 141.543 27.3102 142.183 27.7702 142.963C28.2302 143.743 28.5402 144.653 28.6902 145.673L29.3402 149.913ZM16.2402 149.293L26.8902 147.663L26.6301 145.993C26.5201 145.293 26.3202 144.703 26.0102 144.213C25.7002 143.723 25.3102 143.333 24.8302 143.053C24.3502 142.773 23.7902 142.593 23.1502 142.503C22.5102 142.423 21.8002 142.443 21.0302 142.553L20.2802 142.673C18.6802 142.923 17.5102 143.453 16.7702 144.283C16.0302 145.113 15.7602 146.183 15.9702 147.513L16.2402 149.303V149.293Z" fill="white"/>
<path d="M24.24 116.343C23.94 116.313 23.67 116.343 23.43 116.403C23.19 116.473 22.96 116.613 22.74 116.833C22.52 117.053 22.3 117.353 22.08 117.753C21.86 118.153 21.62 118.663 21.37 119.293C21.09 119.983 20.79 120.613 20.46 121.183C20.13 121.753 19.77 122.243 19.37 122.643C18.97 123.043 18.52 123.343 18.03 123.543C17.54 123.743 16.99 123.813 16.38 123.763C15.78 123.703 15.24 123.533 14.76 123.223C14.28 122.923 13.88 122.523 13.55 122.023C13.22 121.523 12.99 120.943 12.85 120.273C12.71 119.603 12.67 118.883 12.74 118.103C12.82 117.263 13.01 116.523 13.31 115.883C13.61 115.233 14 114.703 14.45 114.283C14.91 113.863 15.42 113.553 15.99 113.363C16.56 113.173 17.16 113.103 17.78 113.153L17.54 115.723C17.18 115.693 16.84 115.723 16.53 115.803C16.22 115.883 15.94 116.033 15.7 116.243C15.46 116.453 15.26 116.733 15.1 117.073C14.94 117.413 14.84 117.833 14.8 118.313C14.76 118.773 14.77 119.173 14.84 119.513C14.91 119.853 15.03 120.143 15.19 120.383C15.35 120.623 15.56 120.803 15.8 120.933C16.04 121.063 16.31 121.143 16.6 121.163C17.15 121.213 17.64 120.993 18.05 120.513C18.47 120.023 18.88 119.263 19.29 118.223C19.61 117.413 19.95 116.703 20.31 116.123C20.67 115.533 21.05 115.063 21.47 114.693C21.89 114.323 22.34 114.063 22.83 113.903C23.32 113.753 23.86 113.703 24.46 113.753C25.09 113.813 25.64 113.983 26.12 114.283C26.6 114.573 26.99 114.973 27.3 115.463C27.61 115.953 27.83 116.533 27.95 117.213C28.08 117.883 28.1 118.623 28.03 119.423C27.96 120.143 27.8 120.833 27.54 121.513C27.28 122.193 26.93 122.783 26.49 123.303C26.05 123.823 25.52 124.213 24.9 124.503C24.28 124.793 23.58 124.893 22.79 124.813L23.03 122.223C23.5 122.263 23.91 122.223 24.26 122.083C24.61 121.943 24.91 121.743 25.15 121.473C25.39 121.203 25.58 120.873 25.72 120.493C25.86 120.103 25.94 119.683 25.99 119.233C26.07 118.333 25.95 117.643 25.63 117.153C25.31 116.663 24.85 116.393 24.25 116.343H24.24Z" fill="white"/>
<path d="M27.9701 99.9332L26.5101 105.533L29.5701 107.583L28.8901 110.193L15.8501 100.963L16.4401 98.7132L32.3201 97.0032L31.6401 99.6232L27.9701 99.9332ZM24.6701 104.303L25.7601 100.113L19.2201 100.643L24.6701 104.303Z" fill="white"/>
<path d="M31.7201 82.1531L29.3101 87.6631L35.1101 90.2031L34.0701 92.5831L20.3801 86.6031L24.1801 77.9031L26.1001 78.7431L23.3401 85.0631L27.4101 86.8431L29.8201 81.3331L31.7201 82.1631V82.1531Z" fill="white"/>
<path d="M39.3099 68.4031L36.0599 73.6031L39.9599 76.0431L43.7599 69.9631L45.5199 71.0631L40.3399 79.3431L27.6699 71.4231L32.8099 63.2031L34.5799 64.3131L30.8199 70.3331L34.3199 72.5231L37.5699 67.3231L39.3099 68.4131V68.4031Z" fill="white"/>
<path d="M46.07 50.183L43.03 53.713L52.76 62.113L51.08 64.063L41.35 55.663L38.33 59.163L36.75 57.793L44.5 48.823L46.08 50.193L46.07 50.183Z" fill="white"/>
<path d="M58.17 45.863L56.22 38.233L58.41 36.373L60.68 46.813L64.23 51.013L62.24 52.693L58.69 48.493L48.76 44.523L50.96 42.663L58.16 45.853L58.17 45.863Z" fill="white"/>
<path d="M75.9799 25.4931L84.6999 34.0831L83.7999 21.8831L86.8499 20.4731L93.1199 34.0331L90.7699 35.1131L88.6999 30.6431L86.1699 24.5531L86.9899 36.8531L85.2999 37.6331L76.4799 29.0331L79.4699 34.8931L81.5399 39.3631L79.1899 40.4431L72.9199 26.8831L75.9799 25.4731V25.4931Z" fill="white"/>
<path d="M106.18 26.8431L100.56 28.2331L100.22 31.9031L97.6001 32.5531L99.5001 16.6931L101.76 16.1331L110.83 29.2831L108.2 29.9331L106.18 26.8531V26.8431ZM100.76 26.0231L104.96 24.9831L101.37 19.4831L100.75 26.0231H100.76Z" fill="white"/>
<path d="M127.24 27.8031L124.65 27.9831L117.26 17.8731L118 28.4431L115.41 28.6231L114.36 13.7231L116.95 13.5431L124.36 23.6931L123.61 13.0731L126.18 12.8931L127.23 27.7931L127.24 27.8031Z" fill="white"/>
<path d="M142.12 25.3232L136.36 24.7432L134.8 28.0832L132.11 27.8132L139.23 13.5132L141.55 13.7432L145.67 29.1832L142.97 28.9132L142.11 25.3332L142.12 25.3232ZM137.29 22.7232L141.6 23.1632L140.07 16.7832L137.29 22.7332V22.7232Z" fill="white"/>
<path d="M161.6 31.2631C161.39 31.4231 161.12 31.5831 160.79 31.7431C160.45 31.9131 160.04 32.0331 159.56 32.1331C159.08 32.2231 158.52 32.2531 157.88 32.2331C157.24 32.2131 156.52 32.0931 155.72 31.8631C154.82 31.6131 154.03 31.2331 153.36 30.7131C152.69 30.1931 152.17 29.5731 151.79 28.8331C151.41 28.0931 151.19 27.2631 151.13 26.3231C151.07 25.3831 151.19 24.3631 151.49 23.2631L151.75 22.3131C152.05 21.2231 152.46 20.2731 152.96 19.4931C153.47 18.7031 154.06 18.0831 154.73 17.6331C155.4 17.1831 156.15 16.9031 156.96 16.7931C157.77 16.6831 158.65 16.7531 159.58 17.0131C160.46 17.2531 161.19 17.5831 161.78 17.9831C162.37 18.3931 162.83 18.8631 163.17 19.3931C163.51 19.9231 163.72 20.5131 163.83 21.1431C163.93 21.7731 163.93 22.4431 163.83 23.1431L161.38 22.4631C161.42 22.0731 161.42 21.6931 161.37 21.3431C161.32 20.9931 161.2 20.6631 161.03 20.3631C160.85 20.0631 160.61 19.8031 160.29 19.5731C159.97 19.3431 159.57 19.1631 159.08 19.0331C158.49 18.8731 157.95 18.8431 157.46 18.9431C156.97 19.0431 156.52 19.2631 156.12 19.6031C155.72 19.9431 155.36 20.4031 155.05 20.9731C154.74 21.5431 154.48 22.2231 154.26 22.9931L153.99 23.9631C153.77 24.7531 153.66 25.4831 153.67 26.1331C153.67 26.7931 153.78 27.3731 153.98 27.8731C154.18 28.3731 154.49 28.8031 154.89 29.1431C155.29 29.4831 155.78 29.7431 156.36 29.9031C156.79 30.0231 157.16 30.0931 157.49 30.1231C157.81 30.1531 158.09 30.1531 158.32 30.1231C158.55 30.0931 158.75 30.0531 158.92 29.9831C159.08 29.9131 159.22 29.8531 159.33 29.7831L160.11 26.9631L157.14 26.1431L157.66 24.2431L163.12 25.7431L161.6 31.2631Z" fill="white"/>
<path d="M177.28 32.8031L171.7 30.2531L169.79 34.4331L176.31 37.4131L175.45 39.3031L166.56 35.2431L172.77 21.6531L181.59 25.6831L180.72 27.5831L174.26 24.6331L172.54 28.3831L178.12 30.9331L177.27 32.8031H177.28Z" fill="white"/>
<path d="M191.18 31.243L188.19 43.113L198.25 36.163L201.01 38.073L192.49 50.343L190.37 48.863L193.18 44.813L197.15 39.543L186.96 46.483L185.43 45.423L188.37 33.463L184.83 39.013L182.02 43.063L179.9 41.583L188.42 29.313L191.18 31.233V31.243Z" fill="white"/>
<path d="M207.8 55.853L203.46 51.523L200.21 54.773L205.29 59.843L203.83 61.313L196.91 54.413L207.46 43.833L214.32 50.683L212.84 52.163L207.81 47.143L204.9 50.063L209.24 54.393L207.79 55.843L207.8 55.853Z" fill="white"/>
<path d="M214.12 74.7831L212.6 72.6831L217.29 61.0731L208.7 67.2831L207.18 65.1831L219.29 56.4331L220.81 58.5331L216.09 70.1831L224.72 63.9531L226.23 66.0431L214.12 74.7931V74.7831Z" fill="white"/>
<path d="M233.34 83.6931L231.26 79.5231L219.76 85.2531L218.61 82.9431L230.11 77.2131L228.05 73.0831L229.92 72.1531L235.21 82.7631L233.34 83.6931Z" fill="white"/>
<path d="M231.65 108.673C231.94 108.603 232.19 108.503 232.41 108.363C232.62 108.223 232.8 108.013 232.94 107.743C233.08 107.473 233.19 107.113 233.28 106.663C233.36 106.223 233.43 105.663 233.48 104.983C233.53 104.243 233.62 103.543 233.75 102.903C233.88 102.253 234.08 101.683 234.34 101.173C234.6 100.673 234.93 100.243 235.33 99.903C235.74 99.563 236.24 99.3229 236.83 99.1829C237.42 99.0529 237.99 99.0529 238.54 99.1829C239.09 99.3229 239.6 99.573 240.06 99.943C240.52 100.313 240.93 100.793 241.27 101.383C241.61 101.973 241.87 102.653 242.05 103.413C242.24 104.233 242.29 104.993 242.2 105.703C242.11 106.413 241.92 107.033 241.61 107.583C241.31 108.123 240.91 108.583 240.43 108.943C239.95 109.303 239.4 109.553 238.8 109.693L238.23 107.173C238.58 107.093 238.9 106.963 239.17 106.783C239.44 106.603 239.66 106.383 239.83 106.103C239.99 105.823 240.1 105.503 240.14 105.123C240.18 104.753 240.14 104.323 240.04 103.853C239.94 103.403 239.8 103.033 239.63 102.723C239.46 102.423 239.25 102.183 239.02 102.003C238.79 101.823 238.54 101.713 238.27 101.663C238 101.613 237.72 101.623 237.43 101.693C236.89 101.813 236.5 102.173 236.25 102.763C236.01 103.353 235.85 104.213 235.78 105.323C235.73 106.203 235.62 106.973 235.46 107.633C235.3 108.303 235.08 108.873 234.8 109.353C234.52 109.833 234.17 110.223 233.75 110.523C233.33 110.823 232.83 111.033 232.25 111.173C231.64 111.313 231.06 111.313 230.51 111.183C229.96 111.053 229.47 110.803 229.02 110.423C228.57 110.053 228.19 109.563 227.86 108.963C227.53 108.363 227.28 107.673 227.1 106.883C226.94 106.183 226.88 105.473 226.91 104.743C226.95 104.023 227.09 103.343 227.35 102.713C227.61 102.083 227.99 101.543 228.49 101.083C228.99 100.623 229.62 100.303 230.4 100.123L230.98 102.653C230.52 102.753 230.14 102.933 229.85 103.173C229.56 103.413 229.34 103.693 229.19 104.033C229.04 104.363 228.97 104.733 228.96 105.143C228.96 105.553 229 105.983 229.1 106.423C229.3 107.303 229.63 107.923 230.09 108.283C230.55 108.643 231.07 108.763 231.66 108.623L231.65 108.673Z" fill="white"/>
<path d="M237.36 121.673L244.66 124.623L244.85 127.493L235.09 123.133L229.6 123.503L229.42 120.903L234.91 120.533L243.99 114.893L244.19 117.773L237.36 121.683V121.673Z" fill="white"/>
<path d="M232.97 141.143C233.27 141.173 233.54 141.143 233.78 141.083C234.02 141.013 234.25 140.873 234.47 140.653C234.69 140.433 234.9 140.123 235.12 139.733C235.34 139.333 235.57 138.823 235.82 138.193C236.09 137.503 236.39 136.873 236.71 136.293C237.03 135.713 237.39 135.223 237.79 134.823C238.19 134.423 238.63 134.113 239.12 133.913C239.61 133.703 240.16 133.633 240.77 133.683C241.37 133.733 241.91 133.913 242.39 134.203C242.87 134.503 243.28 134.893 243.61 135.393C243.94 135.893 244.18 136.473 244.33 137.133C244.48 137.793 244.52 138.523 244.45 139.303C244.38 140.143 244.19 140.883 243.9 141.533C243.6 142.183 243.22 142.713 242.77 143.143C242.31 143.563 241.8 143.883 241.23 144.083C240.66 144.283 240.06 144.353 239.44 144.303L239.66 141.723C240.02 141.753 240.36 141.723 240.67 141.643C240.98 141.553 241.26 141.403 241.5 141.193C241.74 140.983 241.94 140.703 242.09 140.363C242.24 140.023 242.34 139.603 242.38 139.123C242.42 138.663 242.4 138.263 242.33 137.923C242.26 137.583 242.14 137.293 241.97 137.053C241.8 136.813 241.6 136.633 241.36 136.503C241.12 136.373 240.85 136.303 240.56 136.273C240.01 136.223 239.52 136.443 239.11 136.933C238.7 137.423 238.29 138.193 237.89 139.233C237.57 140.053 237.24 140.753 236.89 141.343C236.54 141.933 236.16 142.413 235.74 142.783C235.33 143.153 234.88 143.423 234.39 143.583C233.9 143.743 233.36 143.793 232.76 143.743C232.13 143.693 231.58 143.513 231.1 143.223C230.62 142.933 230.22 142.543 229.91 142.053C229.6 141.563 229.38 140.983 229.24 140.313C229.11 139.643 229.08 138.903 229.15 138.103C229.21 137.383 229.37 136.693 229.62 136.013C229.87 135.333 230.22 134.733 230.66 134.213C231.1 133.693 231.63 133.293 232.24 133.003C232.86 132.713 233.56 132.603 234.35 132.673L234.13 135.263C233.66 135.223 233.25 135.263 232.9 135.413C232.55 135.553 232.25 135.753 232.01 136.033C231.77 136.303 231.59 136.633 231.45 137.023C231.32 137.413 231.23 137.833 231.19 138.293C231.11 139.193 231.24 139.883 231.56 140.373C231.89 140.853 232.35 141.123 232.95 141.173L232.97 141.143Z" fill="white"/>
<path d="M237.9 162.233L239.01 157.713L226.53 154.643L227.14 152.143L239.62 155.213L240.72 150.723L242.75 151.223L239.92 162.733L237.89 162.233H237.9Z" fill="white"/>
<path d="M226.55 174.533L228.91 168.863L224.66 167.103L221.91 173.723L220 172.933L223.75 163.913L237.55 169.653L233.83 178.603L231.9 177.803L234.63 171.243L230.82 169.663L228.46 175.333L226.56 174.543L226.55 174.533Z" fill="white"/>
<path d="M228.58 188.383L216.62 185.803L223.92 195.623L222.1 198.443L209.54 190.353L210.94 188.183L215.08 190.853L220.48 194.643L213.19 184.693L214.2 183.133L226.25 185.663L220.58 182.313L216.44 179.643L217.84 177.473L230.4 185.563L228.58 188.393V188.383Z" fill="white"/>
<path d="M97.05 165.243C97 165.883 96.86 166.473 96.62 167.013C96.38 167.553 96.04 168.013 95.61 168.403C95.18 168.793 94.66 169.093 94.05 169.303C93.44 169.523 92.74 169.633 91.96 169.633C91.18 169.633 90.42 169.493 89.77 169.213C89.12 168.933 88.58 168.523 88.13 168.003C87.68 167.473 87.34 166.833 87.1 166.083C86.86 165.333 86.74 164.493 86.74 163.553V162.713C86.74 161.783 86.86 160.933 87.11 160.183C87.36 159.433 87.71 158.793 88.17 158.263C88.62 157.733 89.18 157.333 89.83 157.043C90.48 156.763 91.2 156.613 92 156.613C92.8 156.613 93.48 156.723 94.09 156.943C94.7 157.163 95.21 157.473 95.63 157.873C96.05 158.273 96.38 158.743 96.62 159.293C96.86 159.843 97.01 160.433 97.07 161.083H94.46C94.43 160.703 94.37 160.373 94.26 160.083C94.16 159.793 94.01 159.553 93.82 159.353C93.63 159.153 93.38 159.003 93.08 158.903C92.78 158.803 92.41 158.753 91.98 158.753C91.1 158.753 90.44 159.073 90.01 159.713C89.58 160.353 89.36 161.343 89.36 162.693V163.543C89.36 164.193 89.41 164.773 89.5 165.263C89.6 165.753 89.75 166.163 89.95 166.503C90.16 166.833 90.42 167.083 90.75 167.243C91.08 167.403 91.47 167.493 91.94 167.493C92.35 167.493 92.71 167.443 93.01 167.353C93.31 167.263 93.56 167.123 93.76 166.933C93.96 166.743 94.11 166.513 94.23 166.223C94.34 165.943 94.41 165.613 94.44 165.233H97.05V165.243Z" fill="#2E343D"/>
<path d="M106.38 163.973H101.37V167.363H107.25V169.463H98.76V156.803H107.23V158.913H101.37V161.933H106.38V163.973Z" fill="#2E343D"/>
<path d="M113.46 164.823H111.38V169.453H108.77V156.793H113.47C114.2 156.793 114.86 156.873 115.44 157.043C116.02 157.213 116.51 157.453 116.91 157.773C117.31 158.093 117.62 158.493 117.83 158.973C118.04 159.453 118.15 160.003 118.15 160.623C118.15 161.083 118.1 161.503 117.99 161.873C117.89 162.243 117.73 162.573 117.54 162.853C117.34 163.143 117.11 163.393 116.83 163.603C116.55 163.813 116.24 164.003 115.89 164.163L118.63 169.333V169.453H115.83L113.46 164.823ZM111.39 162.713H113.49C113.83 162.713 114.13 162.673 114.39 162.583C114.65 162.493 114.86 162.363 115.03 162.203C115.2 162.033 115.33 161.843 115.42 161.613C115.51 161.383 115.55 161.123 115.55 160.843C115.55 160.243 115.38 159.773 115.04 159.433C114.7 159.093 114.18 158.923 113.48 158.923H111.38V162.723L111.39 162.713Z" fill="#2E343D"/>
<path d="M129.24 158.913H125.36V169.463H122.75V158.913H118.92V156.803H129.23V158.913H129.24Z" fill="#2E343D"/>
<path d="M133.5 169.463H130.89V156.803H133.5V169.463Z" fill="#2E343D"/>
<path d="M143.53 164.283H138.52V169.453H135.91V156.793H144.15V158.903H138.52V162.173H143.53V164.273V164.283Z" fill="#2E343D"/>
<path d="M148.44 169.463H145.83V156.803H148.44V169.463Z" fill="#2E343D"/>
<path d="M158.48 163.973H153.47V167.363H159.35V169.463H150.86V156.803H159.33V158.913H153.47V161.933H158.48V163.973Z" fill="#2E343D"/>
<path d="M160.88 169.463V156.803H164.78C165.63 156.803 166.41 156.953 167.12 157.243C167.83 157.533 168.44 157.943 168.95 158.483C169.46 159.013 169.85 159.653 170.14 160.393C170.42 161.133 170.57 161.953 170.57 162.863V163.433C170.57 164.333 170.43 165.163 170.15 165.893C169.87 166.633 169.47 167.263 168.96 167.793C168.45 168.323 167.83 168.733 167.12 169.023C166.41 169.313 165.62 169.453 164.76 169.453H160.89L160.88 169.463ZM163.48 158.913V167.363H164.74C165.77 167.363 166.56 167.023 167.1 166.343C167.64 165.663 167.91 164.693 167.91 163.423V162.833C167.91 161.543 167.64 160.573 167.11 159.903C166.58 159.243 165.8 158.903 164.77 158.903H163.48V158.913Z" fill="#2E343D"/>
<path d="M53.3301 145.683V140.943C53.3301 140.493 53.5001 140.153 53.8401 139.753C58.3601 135.233 62.3601 130.553 66.1501 126.483C69.2001 123.093 71.2901 120.103 71.2901 118.013C71.2901 115.363 69.2601 113.493 66.2101 113.493C63.1601 113.493 61.1301 115.353 61.1301 118.123V119.253C61.1301 119.873 60.7901 120.213 60.1701 120.213H54.0701C53.4501 120.213 53.1101 119.873 53.1101 119.253V116.883C53.4501 110.613 58.9801 106.663 66.2101 106.663C74.4001 106.663 79.3601 111.683 79.3601 117.843C79.3601 121.113 77.6101 124.393 74.6201 128.063C71.7401 131.623 68.0701 135.293 64.1801 139.413C63.9501 139.583 64.0701 139.813 64.3501 139.813H79.1401C79.7601 139.813 80.1001 140.153 80.1001 140.773V145.683C80.1001 146.303 79.7601 146.643 79.1401 146.643H54.3001C53.6801 146.643 53.3401 146.303 53.3401 145.683H53.3301Z" fill="#2E343D"/>
<path d="M116.05 134.333V119.433C116.05 111.583 121.19 106.673 129.49 106.673C137.79 106.673 142.98 111.583 142.98 119.433V134.333C142.98 142.293 137.79 147.263 129.49 147.263C121.19 147.263 116.05 142.293 116.05 134.333ZM135.02 134.733V119.203C135.02 115.703 132.87 113.503 129.49 113.503C126.11 113.503 124.01 115.703 124.01 119.203V134.733C124.01 138.233 126.16 140.433 129.49 140.433C132.82 140.433 135.02 138.233 135.02 134.733Z" fill="#2E343D"/>
<path d="M84.1301 134.363V119.463C84.1301 111.613 89.2701 106.703 97.5701 106.703C105.87 106.703 111.06 111.613 111.06 119.463V134.363C111.06 142.323 105.87 147.293 97.5701 147.293C89.2701 147.293 84.1301 142.323 84.1301 134.363ZM103.1 134.763V119.233C103.1 115.733 100.95 113.533 97.5701 113.533C94.1901 113.533 92.0901 115.733 92.0901 119.233V134.763C92.0901 138.263 94.2401 140.463 97.5701 140.463C100.9 140.463 103.1 138.263 103.1 134.763Z" fill="#2E343D"/>
<path d="M147.94 134.333V119.433C147.94 111.583 153.08 106.673 161.38 106.673C169.68 106.673 174.87 111.583 174.87 119.433V134.333C174.87 142.293 169.68 147.263 161.38 147.263C153.08 147.263 147.94 142.293 147.94 134.333ZM166.91 134.733V119.203C166.91 115.703 164.77 113.503 161.38 113.503C157.99 113.503 155.9 115.703 155.9 119.203V134.733C155.9 138.233 158.05 140.433 161.38 140.433C164.71 140.433 166.91 138.233 166.91 134.733Z" fill="#2E343D"/>
<path d="M179.84 134.333V119.433C179.84 111.583 184.98 106.673 193.28 106.673C201.58 106.673 206.77 111.583 206.77 119.433V134.333C206.77 142.293 201.58 147.263 193.28 147.263C184.98 147.263 179.84 142.293 179.84 134.333ZM198.81 134.733V119.203C198.81 115.703 196.66 113.503 193.28 113.503C189.9 113.503 187.8 115.703 187.8 119.203V134.733C187.8 138.233 189.95 140.433 193.28 140.433C196.61 140.433 198.81 138.233 198.81 134.733Z" fill="#2E343D"/>
</svg>
