<svg width="259" height="261" viewBox="0 0 259 261" fill="none" xmlns="http://www.w3.org/2000/svg">
<path d="M130.54 0.00656032C59.26 -0.71344 0 57.9266 0 129.207C0 184.727 35.03 232.067 84.19 250.347V205.377C58.16 189.967 40.72 161.597 40.73 129.157C40.76 81.0366 79.82 41.4166 127.94 40.7466C177.38 40.0566 217.67 79.9266 217.67 129.207C217.67 161.627 200.23 189.977 174.21 205.377V250.347C223.37 232.067 258.4 184.737 258.4 129.207C258.41 58.2966 201.28 0.73656 130.54 0.00656032Z" fill="#515760"/>
<path d="M167.22 252.277V189.557C167.22 185.138 163.638 181.557 159.22 181.557H99.19C94.7717 181.557 91.19 185.138 91.19 189.557V252.277C91.19 256.695 94.7717 260.277 99.19 260.277H159.22C163.638 260.277 167.22 256.695 167.22 252.277Z" fill="#515760"/>
<path d="M103.22 96.4865V69.8065C103.22 69.4465 103.46 69.2065 103.82 69.2065H106.45C106.81 69.2065 107.05 69.4465 107.05 69.8065V96.4865C107.05 96.8465 106.81 97.0865 106.45 97.0865H103.82C103.46 97.0865 103.22 96.8465 103.22 96.4865Z" fill="black"/>
<path d="M112.3 89.6365V88.6765C112.3 88.3165 112.54 88.0765 112.9 88.0765H115.45C115.81 88.0765 116.05 88.3165 116.05 88.6765V89.4365C116.05 92.0665 118.48 94.0965 122.46 94.0965C126.44 94.0965 128 92.3065 128 89.9165C128 87.4065 125.85 86.2965 121.19 84.4165C116.65 82.6665 112.67 81.0665 112.67 76.2165C112.67 71.3665 116.21 68.8865 121.75 68.8865C127.72 68.8865 131.59 72.0765 131.59 76.8165V77.4165C131.59 77.7765 131.35 78.0165 130.99 78.0165H128.4C128.04 78.0165 127.8 77.8165 127.8 77.4965V77.0165C127.8 74.3465 125.61 72.1965 121.59 72.1965C118.28 72.1965 116.41 73.5865 116.41 76.1365C116.41 78.6865 118.48 79.6765 123.18 81.4765C127.6 83.1865 131.82 84.9365 131.82 89.7965C131.82 94.3365 128.2 97.4065 122.18 97.4065C116.16 97.4065 112.3 94.3365 112.3 89.6365Z" fill="black"/>
<path d="M136.24 87.8865V78.4065C136.24 72.7165 140.18 68.8865 146.08 68.8865C151.98 68.8865 155.96 72.7065 155.96 78.4065V87.8865C155.96 93.6165 152.02 97.4465 146.08 97.4465C140.14 97.4465 136.24 93.6265 136.24 87.8865ZM152.13 88.0465V78.3665C152.13 74.6665 149.7 72.1965 146.08 72.1965C142.46 72.1965 140.07 74.6665 140.07 78.3665V88.0465C140.07 91.7065 142.5 94.1365 146.08 94.1365C149.66 94.1365 152.13 91.7065 152.13 88.0465Z" fill="black"/>
<path d="M103.22 96.4865V69.8065C103.22 69.4465 103.46 69.2065 103.82 69.2065H106.45C106.81 69.2065 107.05 69.4465 107.05 69.8065V96.4865C107.05 96.8465 106.81 97.0865 106.45 97.0865H103.82C103.46 97.0865 103.22 96.8465 103.22 96.4865Z" fill="#2E343D"/>
<path d="M112.3 89.6365V88.6765C112.3 88.3165 112.54 88.0765 112.9 88.0765H115.45C115.81 88.0765 116.05 88.3165 116.05 88.6765V89.4365C116.05 92.0665 118.48 94.0965 122.46 94.0965C126.44 94.0965 128 92.3065 128 89.9165C128 87.4065 125.85 86.2965 121.19 84.4165C116.65 82.6665 112.67 81.0665 112.67 76.2165C112.67 71.3665 116.21 68.8865 121.75 68.8865C127.72 68.8865 131.59 72.0765 131.59 76.8165V77.4165C131.59 77.7765 131.35 78.0165 130.99 78.0165H128.4C128.04 78.0165 127.8 77.8165 127.8 77.4965V77.0165C127.8 74.3465 125.61 72.1965 121.59 72.1965C118.28 72.1965 116.41 73.5865 116.41 76.1365C116.41 78.6865 118.48 79.6765 123.18 81.4765C127.6 83.1865 131.82 84.9365 131.82 89.7965C131.82 94.3365 128.2 97.4065 122.18 97.4065C116.16 97.4065 112.3 94.3365 112.3 89.6365Z" fill="#2E343D"/>
<path d="M136.24 87.8865V78.4065C136.24 72.7165 140.18 68.8865 146.08 68.8865C151.98 68.8865 155.96 72.7065 155.96 78.4065V87.8865C155.96 93.6165 152.02 97.4465 146.08 97.4465C140.14 97.4465 136.24 93.6265 136.24 87.8865ZM152.13 88.0465V78.3665C152.13 74.6665 149.7 72.1965 146.08 72.1965C142.46 72.1965 140.07 74.6665 140.07 78.3665V88.0465C140.07 91.7065 142.5 94.1365 146.08 94.1365C149.66 94.1365 152.13 91.7065 152.13 88.0465Z" fill="#2E343D"/>
<path d="M124.89 241.456C123.54 241.456 122.49 240.366 121.82 239.546C116.24 232.736 112.37 230.446 110.05 229.086C108.3 228.056 105.85 227.246 106.35 225.136C106.45 224.726 106.5 224.316 106.61 223.946C107.38 221.386 109.06 218.806 111.22 219.036C112.12 219.136 113.32 219.526 114.69 220.236C118.98 222.466 121 225.156 122.51 227.076C123.54 225.346 125.69 222.066 129.7 216.996C139.45 204.696 149.06 199.536 150.89 198.626C151.17 198.486 151.49 198.396 151.82 198.386H151.97C152.95 198.386 152.93 198.976 153.31 199.886C153.68 200.796 154.36 201.826 153.65 202.506C151.63 204.486 148.01 208.336 142.28 215.426C136.57 222.486 133.3 229.076 130.91 233.886C128.49 238.756 128.22 241.446 125.96 241.446H124.89V241.456Z" fill="white"/>
<path d="M40.4601 190.717L44.1101 195.497L49.1401 191.647L50.7201 193.707L38.8501 202.787L33.0801 195.247L34.7401 193.977L38.9301 199.457L42.4601 196.757L38.8101 191.977L40.4601 190.717Z" fill="white"/>
<path d="M30.26 174.786C31.26 174.246 32.23 173.896 33.16 173.726C34.09 173.556 34.96 173.566 35.77 173.746C36.58 173.926 37.31 174.266 37.96 174.776C38.62 175.286 39.16 175.946 39.6 176.756C40.04 177.566 40.29 178.376 40.35 179.206C40.42 180.036 40.3 180.836 40.01 181.616C39.72 182.396 39.25 183.136 38.61 183.836C37.96 184.526 37.14 185.146 36.14 185.686L35.47 186.046C34.47 186.586 33.5 186.936 32.56 187.096C31.62 187.256 30.75 187.246 29.93 187.066C29.12 186.886 28.38 186.546 27.73 186.036C27.07 185.526 26.53 184.866 26.09 184.066C25.65 183.256 25.4 182.436 25.33 181.606C25.26 180.776 25.38 179.976 25.67 179.196C25.97 178.416 26.44 177.686 27.09 176.996C27.74 176.306 28.57 175.686 29.57 175.156L30.24 174.796L30.26 174.786ZM30.8 177.446C30.07 177.846 29.46 178.266 28.97 178.706C28.48 179.156 28.12 179.616 27.89 180.086C27.66 180.566 27.55 181.046 27.57 181.546C27.59 182.046 27.73 182.546 28 183.046C28.26 183.536 28.6 183.916 29 184.206C29.41 184.496 29.87 184.666 30.4 184.736C30.93 184.806 31.51 184.766 32.15 184.606C32.79 184.446 33.48 184.176 34.22 183.776L34.91 183.406C35.64 183.006 36.26 182.586 36.74 182.136C37.23 181.686 37.59 181.216 37.82 180.736C38.05 180.256 38.16 179.756 38.14 179.256C38.12 178.756 37.98 178.266 37.72 177.776C37.17 176.766 36.37 176.196 35.3 176.066C34.24 175.936 32.96 176.276 31.48 177.076L30.79 177.446H30.8Z" fill="white"/>
<path d="M23.85 157.276C24.93 156.916 25.94 156.736 26.89 156.736C27.84 156.736 28.69 156.886 29.46 157.206C30.22 157.526 30.89 157.986 31.44 158.596C32 159.206 32.42 159.956 32.71 160.836C33 161.706 33.11 162.556 33.03 163.376C32.95 164.206 32.7 164.976 32.28 165.696C31.86 166.416 31.27 167.066 30.51 167.636C29.75 168.206 28.84 168.676 27.76 169.036L27.04 169.276C25.96 169.636 24.95 169.816 23.99 169.806C23.04 169.806 22.18 169.646 21.41 169.326C20.64 169.006 19.98 168.546 19.42 167.926C18.86 167.306 18.44 166.566 18.15 165.696C17.86 164.816 17.75 163.966 17.83 163.136C17.91 162.306 18.16 161.536 18.58 160.816C19.01 160.106 19.6 159.456 20.36 158.896C21.12 158.326 22.04 157.866 23.12 157.506L23.84 157.266L23.85 157.276ZM23.93 159.986C23.14 160.246 22.46 160.556 21.91 160.916C21.35 161.276 20.92 161.666 20.61 162.086C20.3 162.516 20.11 162.976 20.04 163.476C19.97 163.976 20.03 164.486 20.21 165.026C20.39 165.556 20.65 165.986 21 166.346C21.35 166.706 21.78 166.956 22.29 167.116C22.8 167.276 23.38 167.336 24.04 167.286C24.7 167.246 25.43 167.086 26.22 166.826L26.96 166.576C27.75 166.316 28.43 165.996 28.98 165.636C29.54 165.276 29.97 164.876 30.28 164.436C30.59 163.996 30.78 163.536 30.85 163.036C30.92 162.536 30.87 162.026 30.69 161.506C30.33 160.416 29.63 159.716 28.61 159.406C27.58 159.096 26.27 159.206 24.68 159.736L23.94 159.986H23.93Z" fill="white"/>
<path d="M29.3402 149.636L14.5702 151.896L13.9002 147.536C13.7502 146.546 13.7802 145.626 13.9802 144.756C14.1902 143.886 14.5502 143.116 15.0702 142.436C15.5902 141.756 16.2602 141.186 17.0802 140.736C17.9002 140.276 18.8402 139.966 19.9102 139.806L20.6402 139.696C21.7102 139.536 22.7002 139.546 23.6102 139.736C24.5202 139.926 25.3302 140.266 26.0302 140.766C26.7302 141.266 27.3102 141.906 27.7702 142.686C28.2302 143.466 28.5402 144.376 28.6902 145.396L29.3402 149.636ZM16.2402 149.016L26.8902 147.386L26.6301 145.716C26.5201 145.016 26.3202 144.426 26.0102 143.936C25.7002 143.446 25.3102 143.056 24.8302 142.776C24.3502 142.496 23.7902 142.316 23.1502 142.226C22.5102 142.146 21.8002 142.166 21.0302 142.276L20.2802 142.396C18.6802 142.646 17.5102 143.176 16.7702 144.006C16.0302 144.836 15.7602 145.906 15.9702 147.236L16.2402 149.026V149.016Z" fill="white"/>
<path d="M24.24 116.066C23.94 116.036 23.67 116.066 23.43 116.126C23.19 116.196 22.96 116.336 22.74 116.556C22.52 116.776 22.3 117.076 22.08 117.476C21.86 117.876 21.62 118.386 21.37 119.016C21.09 119.706 20.79 120.336 20.46 120.906C20.13 121.476 19.77 121.966 19.37 122.366C18.97 122.766 18.52 123.066 18.03 123.266C17.54 123.466 16.99 123.536 16.38 123.486C15.78 123.426 15.24 123.256 14.76 122.946C14.28 122.646 13.88 122.246 13.55 121.746C13.22 121.246 12.99 120.666 12.85 119.996C12.71 119.326 12.67 118.606 12.74 117.826C12.82 116.986 13.01 116.246 13.31 115.606C13.61 114.956 14 114.426 14.45 114.006C14.91 113.586 15.42 113.276 15.99 113.086C16.56 112.896 17.16 112.826 17.78 112.876L17.54 115.446C17.18 115.416 16.84 115.446 16.53 115.526C16.22 115.606 15.94 115.756 15.7 115.966C15.46 116.176 15.26 116.456 15.1 116.796C14.94 117.136 14.84 117.556 14.8 118.036C14.76 118.496 14.77 118.896 14.84 119.236C14.91 119.576 15.03 119.866 15.19 120.106C15.35 120.346 15.56 120.526 15.8 120.656C16.04 120.786 16.31 120.866 16.6 120.886C17.15 120.936 17.64 120.716 18.05 120.236C18.47 119.746 18.88 118.986 19.29 117.946C19.61 117.136 19.95 116.426 20.31 115.846C20.67 115.256 21.05 114.786 21.47 114.416C21.89 114.046 22.34 113.786 22.83 113.626C23.32 113.476 23.86 113.426 24.46 113.476C25.09 113.536 25.64 113.706 26.12 114.006C26.6 114.296 26.99 114.696 27.3 115.186C27.61 115.676 27.83 116.256 27.95 116.936C28.08 117.606 28.1 118.346 28.03 119.146C27.96 119.866 27.8 120.556 27.54 121.236C27.28 121.916 26.93 122.506 26.49 123.026C26.05 123.546 25.52 123.936 24.9 124.226C24.28 124.516 23.58 124.616 22.79 124.536L23.03 121.946C23.5 121.986 23.91 121.946 24.26 121.806C24.61 121.666 24.91 121.466 25.15 121.196C25.39 120.926 25.58 120.596 25.72 120.216C25.86 119.826 25.94 119.406 25.99 118.956C26.07 118.056 25.95 117.366 25.63 116.876C25.31 116.386 24.85 116.116 24.25 116.066H24.24Z" fill="white"/>
<path d="M27.9701 99.6566L26.5101 105.257L29.5701 107.307L28.8901 109.917L15.8501 100.687L16.4401 98.4366L32.3201 96.7266L31.6401 99.3466L27.9701 99.6566ZM24.6701 104.027L25.7601 99.8366L19.2201 100.367L24.6701 104.027Z" fill="white"/>
<path d="M31.7201 81.8765L29.3101 87.3865L35.1101 89.9265L34.0701 92.3065L20.3801 86.3265L24.1801 77.6265L26.1001 78.4665L23.3401 84.7865L27.4101 86.5665L29.8201 81.0565L31.7201 81.8865V81.8765Z" fill="white"/>
<path d="M39.3099 68.1265L36.0599 73.3265L39.9599 75.7665L43.7599 69.6865L45.5199 70.7865L40.3399 79.0665L27.6699 71.1465L32.8099 62.9265L34.5799 64.0365L30.8199 70.0565L34.3199 72.2465L37.5699 67.0465L39.3099 68.1365V68.1265Z" fill="white"/>
<path d="M46.07 49.9064L43.03 53.4364L52.76 61.8364L51.08 63.7864L41.35 55.3864L38.33 58.8864L36.75 57.5164L44.5 48.5464L46.08 49.9164L46.07 49.9064Z" fill="white"/>
<path d="M58.17 45.5864L56.22 37.9564L58.41 36.0964L60.68 46.5364L64.23 50.7364L62.24 52.4164L58.69 48.2164L48.76 44.2464L50.96 42.3864L58.16 45.5764L58.17 45.5864Z" fill="white"/>
<path d="M75.9799 25.2165L84.6999 33.8065L83.7999 21.6065L86.8499 20.1965L93.1199 33.7565L90.7699 34.8365L88.6999 30.3665L86.1699 24.2765L86.9899 36.5765L85.2999 37.3565L76.4799 28.7565L79.4699 34.6165L81.5399 39.0865L79.1899 40.1665L72.9199 26.6065L75.9799 25.1965V25.2165Z" fill="white"/>
<path d="M106.18 26.5664L100.56 27.9564L100.22 31.6264L97.6001 32.2764L99.5001 16.4164L101.76 15.8564L110.83 29.0064L108.2 29.6564L106.18 26.5764V26.5664ZM100.76 25.7464L104.96 24.7064L101.37 19.2064L100.75 25.7464H100.76Z" fill="white"/>
<path d="M127.24 27.5265L124.65 27.7065L117.26 17.5965L118 28.1665L115.41 28.3465L114.36 13.4465L116.95 13.2665L124.36 23.4165L123.61 12.7965L126.18 12.6165L127.23 27.5165L127.24 27.5265Z" fill="white"/>
<path d="M142.12 25.0466L136.36 24.4666L134.8 27.8066L132.11 27.5366L139.23 13.2366L141.55 13.4666L145.67 28.9066L142.97 28.6366L142.11 25.0566L142.12 25.0466ZM137.29 22.4466L141.6 22.8866L140.07 16.5066L137.29 22.4566V22.4466Z" fill="white"/>
<path d="M161.6 30.9864C161.39 31.1464 161.12 31.3064 160.79 31.4664C160.45 31.6364 160.04 31.7564 159.56 31.8564C159.08 31.9464 158.52 31.9764 157.88 31.9564C157.24 31.9364 156.52 31.8164 155.72 31.5864C154.82 31.3364 154.03 30.9564 153.36 30.4364C152.69 29.9164 152.17 29.2964 151.79 28.5564C151.41 27.8164 151.19 26.9864 151.13 26.0464C151.07 25.1064 151.19 24.0864 151.49 22.9864L151.75 22.0364C152.05 20.9464 152.46 19.9964 152.96 19.2164C153.47 18.4264 154.06 17.8064 154.73 17.3564C155.4 16.9064 156.15 16.6264 156.96 16.5164C157.77 16.4064 158.65 16.4764 159.58 16.7364C160.46 16.9764 161.19 17.3064 161.78 17.7064C162.37 18.1164 162.83 18.5864 163.17 19.1164C163.51 19.6464 163.72 20.2364 163.83 20.8664C163.93 21.4964 163.93 22.1664 163.83 22.8664L161.38 22.1864C161.42 21.7964 161.42 21.4164 161.37 21.0664C161.32 20.7164 161.2 20.3864 161.03 20.0864C160.85 19.7864 160.61 19.5264 160.29 19.2964C159.97 19.0664 159.57 18.8864 159.08 18.7564C158.49 18.5964 157.95 18.5664 157.46 18.6664C156.97 18.7664 156.52 18.9864 156.12 19.3264C155.72 19.6664 155.36 20.1264 155.05 20.6964C154.74 21.2664 154.48 21.9464 154.26 22.7164L153.99 23.6864C153.77 24.4764 153.66 25.2064 153.67 25.8564C153.67 26.5164 153.78 27.0964 153.98 27.5964C154.18 28.0964 154.49 28.5264 154.89 28.8664C155.29 29.2064 155.78 29.4664 156.36 29.6264C156.79 29.7464 157.16 29.8164 157.49 29.8464C157.81 29.8764 158.09 29.8764 158.32 29.8464C158.55 29.8164 158.75 29.7764 158.92 29.7064C159.08 29.6364 159.22 29.5764 159.33 29.5064L160.11 26.6864L157.14 25.8664L157.66 23.9664L163.12 25.4664L161.6 30.9864Z" fill="white"/>
<path d="M177.28 32.5265L171.7 29.9765L169.79 34.1565L176.31 37.1365L175.45 39.0265L166.56 34.9665L172.77 21.3765L181.59 25.4065L180.72 27.3065L174.26 24.3565L172.54 28.1065L178.12 30.6565L177.27 32.5265H177.28Z" fill="white"/>
<path d="M191.18 30.9664L188.19 42.8364L198.25 35.8864L201.01 37.7964L192.49 50.0664L190.37 48.5864L193.18 44.5364L197.15 39.2664L186.96 46.2064L185.43 45.1464L188.37 33.1864L184.83 38.7364L182.02 42.7864L179.9 41.3064L188.42 29.0364L191.18 30.9564V30.9664Z" fill="white"/>
<path d="M207.8 55.5764L203.46 51.2464L200.21 54.4964L205.29 59.5664L203.83 61.0364L196.91 54.1364L207.46 43.5564L214.32 50.4064L212.84 51.8864L207.81 46.8664L204.9 49.7864L209.24 54.1164L207.79 55.5664L207.8 55.5764Z" fill="white"/>
<path d="M214.12 74.5065L212.6 72.4065L217.29 60.7965L208.7 67.0065L207.18 64.9065L219.29 56.1565L220.81 58.2565L216.09 69.9065L224.72 63.6765L226.23 65.7665L214.12 74.5165V74.5065Z" fill="white"/>
<path d="M233.34 83.4165L231.26 79.2465L219.76 84.9765L218.61 82.6665L230.11 76.9365L228.05 72.8065L229.92 71.8765L235.21 82.4865L233.34 83.4165Z" fill="white"/>
<path d="M231.65 108.396C231.94 108.326 232.19 108.226 232.41 108.086C232.62 107.946 232.8 107.736 232.94 107.466C233.08 107.196 233.19 106.836 233.28 106.386C233.36 105.946 233.43 105.386 233.48 104.706C233.53 103.966 233.62 103.266 233.75 102.626C233.88 101.976 234.08 101.406 234.34 100.896C234.6 100.396 234.93 99.9663 235.33 99.6263C235.74 99.2863 236.24 99.0463 236.83 98.9063C237.42 98.7763 237.99 98.7763 238.54 98.9063C239.09 99.0463 239.6 99.2963 240.06 99.6663C240.52 100.036 240.93 100.516 241.27 101.106C241.61 101.696 241.87 102.376 242.05 103.136C242.24 103.956 242.29 104.716 242.2 105.426C242.11 106.136 241.92 106.756 241.61 107.306C241.31 107.846 240.91 108.306 240.43 108.666C239.95 109.026 239.4 109.276 238.8 109.416L238.23 106.896C238.58 106.816 238.9 106.686 239.17 106.506C239.44 106.326 239.66 106.106 239.83 105.826C239.99 105.546 240.1 105.226 240.14 104.846C240.18 104.476 240.14 104.046 240.04 103.576C239.94 103.126 239.8 102.756 239.63 102.446C239.46 102.146 239.25 101.906 239.02 101.726C238.79 101.546 238.54 101.436 238.27 101.386C238 101.336 237.72 101.346 237.43 101.416C236.89 101.536 236.5 101.896 236.25 102.486C236.01 103.076 235.85 103.936 235.78 105.046C235.73 105.926 235.62 106.696 235.46 107.356C235.3 108.026 235.08 108.596 234.8 109.076C234.52 109.556 234.17 109.946 233.75 110.246C233.33 110.546 232.83 110.756 232.25 110.896C231.64 111.036 231.06 111.036 230.51 110.906C229.96 110.776 229.47 110.526 229.02 110.146C228.57 109.776 228.19 109.286 227.86 108.686C227.53 108.086 227.28 107.396 227.1 106.606C226.94 105.906 226.88 105.196 226.91 104.466C226.95 103.746 227.09 103.066 227.35 102.436C227.61 101.806 227.99 101.266 228.49 100.806C228.99 100.346 229.62 100.026 230.4 99.8463L230.98 102.376C230.52 102.476 230.14 102.656 229.85 102.896C229.56 103.136 229.34 103.416 229.19 103.756C229.04 104.086 228.97 104.456 228.96 104.866C228.96 105.276 229 105.706 229.1 106.146C229.3 107.026 229.63 107.646 230.09 108.006C230.55 108.366 231.07 108.486 231.66 108.346L231.65 108.396Z" fill="white"/>
<path d="M237.36 121.396L244.66 124.346L244.85 127.216L235.09 122.856L229.6 123.226L229.42 120.626L234.91 120.256L243.99 114.616L244.19 117.496L237.36 121.406V121.396Z" fill="white"/>
<path d="M232.97 140.866C233.27 140.896 233.54 140.866 233.78 140.806C234.02 140.736 234.25 140.596 234.47 140.376C234.69 140.156 234.9 139.846 235.12 139.456C235.34 139.056 235.57 138.546 235.82 137.916C236.09 137.226 236.39 136.596 236.71 136.016C237.03 135.436 237.39 134.946 237.79 134.546C238.19 134.146 238.63 133.836 239.12 133.636C239.61 133.426 240.16 133.356 240.77 133.406C241.37 133.456 241.91 133.636 242.39 133.926C242.87 134.226 243.28 134.616 243.61 135.116C243.94 135.616 244.18 136.196 244.33 136.856C244.48 137.516 244.52 138.246 244.45 139.026C244.38 139.866 244.19 140.606 243.9 141.256C243.6 141.906 243.22 142.436 242.77 142.866C242.31 143.286 241.8 143.606 241.23 143.806C240.66 144.006 240.06 144.076 239.44 144.026L239.66 141.446C240.02 141.476 240.36 141.446 240.67 141.366C240.98 141.276 241.26 141.126 241.5 140.916C241.74 140.706 241.94 140.426 242.09 140.086C242.24 139.746 242.34 139.326 242.38 138.846C242.42 138.386 242.4 137.986 242.33 137.646C242.26 137.306 242.14 137.016 241.97 136.776C241.8 136.536 241.6 136.356 241.36 136.226C241.12 136.096 240.85 136.026 240.56 135.996C240.01 135.946 239.52 136.166 239.11 136.656C238.7 137.146 238.29 137.916 237.89 138.956C237.57 139.776 237.24 140.476 236.89 141.066C236.54 141.656 236.16 142.136 235.74 142.506C235.33 142.876 234.88 143.146 234.39 143.306C233.9 143.466 233.36 143.516 232.76 143.466C232.13 143.416 231.58 143.236 231.1 142.946C230.62 142.656 230.22 142.266 229.91 141.776C229.6 141.286 229.38 140.706 229.24 140.036C229.11 139.366 229.08 138.626 229.15 137.826C229.21 137.106 229.37 136.416 229.62 135.736C229.87 135.056 230.22 134.456 230.66 133.936C231.1 133.416 231.63 133.016 232.24 132.726C232.86 132.436 233.56 132.326 234.35 132.396L234.13 134.986C233.66 134.946 233.25 134.986 232.9 135.136C232.55 135.276 232.25 135.476 232.01 135.756C231.77 136.026 231.59 136.356 231.45 136.746C231.32 137.136 231.23 137.556 231.19 138.016C231.11 138.916 231.24 139.606 231.56 140.096C231.89 140.576 232.35 140.846 232.95 140.896L232.97 140.866Z" fill="white"/>
<path d="M237.9 161.957L239.01 157.437L226.53 154.367L227.14 151.867L239.62 154.937L240.72 150.447L242.75 150.947L239.92 162.457L237.89 161.957H237.9Z" fill="white"/>
<path d="M226.55 174.256L228.91 168.586L224.66 166.826L221.91 173.446L220 172.656L223.75 163.636L237.55 169.376L233.83 178.326L231.9 177.526L234.63 170.966L230.82 169.386L228.46 175.056L226.56 174.266L226.55 174.256Z" fill="white"/>
<path d="M228.58 188.107L216.62 185.527L223.92 195.347L222.1 198.167L209.54 190.077L210.94 187.907L215.08 190.577L220.48 194.367L213.19 184.417L214.2 182.857L226.25 185.387L220.58 182.037L216.44 179.367L217.84 177.197L230.4 185.287L228.58 188.117V188.107Z" fill="white"/>
<path d="M97.05 164.967C97 165.607 96.86 166.197 96.62 166.737C96.38 167.277 96.04 167.737 95.61 168.127C95.18 168.517 94.66 168.817 94.05 169.027C93.44 169.247 92.74 169.357 91.96 169.357C91.18 169.357 90.42 169.217 89.77 168.937C89.12 168.657 88.58 168.247 88.13 167.727C87.68 167.197 87.34 166.557 87.1 165.807C86.86 165.057 86.74 164.217 86.74 163.277V162.437C86.74 161.507 86.86 160.657 87.11 159.907C87.36 159.157 87.71 158.517 88.17 157.987C88.62 157.457 89.18 157.057 89.83 156.767C90.48 156.487 91.2 156.337 92 156.337C92.8 156.337 93.48 156.447 94.09 156.667C94.7 156.887 95.21 157.197 95.63 157.597C96.05 157.997 96.38 158.467 96.62 159.017C96.86 159.567 97.01 160.157 97.07 160.807H94.46C94.43 160.427 94.37 160.097 94.26 159.807C94.16 159.517 94.01 159.277 93.82 159.077C93.63 158.877 93.38 158.727 93.08 158.627C92.78 158.527 92.41 158.477 91.98 158.477C91.1 158.477 90.44 158.797 90.01 159.437C89.58 160.077 89.36 161.067 89.36 162.417V163.267C89.36 163.917 89.41 164.497 89.5 164.987C89.6 165.477 89.75 165.887 89.95 166.227C90.16 166.557 90.42 166.807 90.75 166.967C91.08 167.127 91.47 167.217 91.94 167.217C92.35 167.217 92.71 167.167 93.01 167.077C93.31 166.987 93.56 166.847 93.76 166.657C93.96 166.467 94.11 166.237 94.23 165.947C94.34 165.667 94.41 165.337 94.44 164.957H97.05V164.967Z" fill="#2E343D"/>
<path d="M106.38 163.697H101.37V167.087H107.25V169.187H98.76V156.527H107.23V158.637H101.37V161.657H106.38V163.697Z" fill="#2E343D"/>
<path d="M113.46 164.547H111.38V169.177H108.77V156.517H113.47C114.2 156.517 114.86 156.597 115.44 156.767C116.02 156.937 116.51 157.177 116.91 157.497C117.31 157.817 117.62 158.217 117.83 158.697C118.04 159.177 118.15 159.727 118.15 160.347C118.15 160.807 118.1 161.227 117.99 161.597C117.89 161.967 117.73 162.297 117.54 162.577C117.34 162.867 117.11 163.117 116.83 163.327C116.55 163.537 116.24 163.727 115.89 163.887L118.63 169.057V169.177H115.83L113.46 164.547ZM111.39 162.437H113.49C113.83 162.437 114.13 162.397 114.39 162.307C114.65 162.217 114.86 162.087 115.03 161.927C115.2 161.757 115.33 161.567 115.42 161.337C115.51 161.107 115.55 160.847 115.55 160.567C115.55 159.967 115.38 159.497 115.04 159.157C114.7 158.817 114.18 158.647 113.48 158.647H111.38V162.447L111.39 162.437Z" fill="#2E343D"/>
<path d="M129.24 158.637H125.36V169.187H122.75V158.637H118.92V156.527H129.23V158.637H129.24Z" fill="#2E343D"/>
<path d="M133.5 169.187H130.89V156.527H133.5V169.187Z" fill="#2E343D"/>
<path d="M143.53 164.007H138.52V169.177H135.91V156.517H144.15V158.627H138.52V161.897H143.53V163.997V164.007Z" fill="#2E343D"/>
<path d="M148.44 169.187H145.83V156.527H148.44V169.187Z" fill="#2E343D"/>
<path d="M158.48 163.697H153.47V167.087H159.35V169.187H150.86V156.527H159.33V158.637H153.47V161.657H158.48V163.697Z" fill="#2E343D"/>
<path d="M160.88 169.187V156.527H164.78C165.63 156.527 166.41 156.677 167.12 156.967C167.83 157.257 168.44 157.667 168.95 158.207C169.46 158.737 169.85 159.377 170.14 160.117C170.42 160.857 170.57 161.677 170.57 162.587V163.157C170.57 164.057 170.43 164.887 170.15 165.617C169.87 166.357 169.47 166.987 168.96 167.517C168.45 168.047 167.83 168.457 167.12 168.747C166.41 169.037 165.62 169.177 164.76 169.177H160.89L160.88 169.187ZM163.48 158.637V167.087H164.74C165.77 167.087 166.56 166.747 167.1 166.067C167.64 165.387 167.91 164.417 167.91 163.147V162.557C167.91 161.267 167.64 160.297 167.11 159.627C166.58 158.967 165.8 158.627 164.77 158.627H163.48V158.637Z" fill="#2E343D"/>
<path d="M53.3301 145.406V140.666C53.3301 140.216 53.5001 139.876 53.8401 139.476C58.3601 134.956 62.3601 130.276 66.1501 126.206C69.2001 122.816 71.2901 119.826 71.2901 117.736C71.2901 115.086 69.2601 113.216 66.2101 113.216C63.1601 113.216 61.1301 115.076 61.1301 117.846V118.976C61.1301 119.596 60.7901 119.936 60.1701 119.936H54.0701C53.4501 119.936 53.1101 119.596 53.1101 118.976V116.606C53.4501 110.336 58.9801 106.386 66.2101 106.386C74.4001 106.386 79.3601 111.406 79.3601 117.566C79.3601 120.836 77.6101 124.116 74.6201 127.786C71.7401 131.346 68.0701 135.016 64.1801 139.136C63.9501 139.306 64.0701 139.536 64.3501 139.536H79.1401C79.7601 139.536 80.1001 139.876 80.1001 140.496V145.406C80.1001 146.026 79.7601 146.366 79.1401 146.366H54.3001C53.6801 146.366 53.3401 146.026 53.3401 145.406H53.3301Z" fill="#2E343D"/>
<path d="M116.05 134.056V119.156C116.05 111.306 121.19 106.396 129.49 106.396C137.79 106.396 142.98 111.306 142.98 119.156V134.056C142.98 142.016 137.79 146.986 129.49 146.986C121.19 146.986 116.05 142.016 116.05 134.056ZM135.02 134.456V118.926C135.02 115.426 132.87 113.226 129.49 113.226C126.11 113.226 124.01 115.426 124.01 118.926V134.456C124.01 137.956 126.16 140.156 129.49 140.156C132.82 140.156 135.02 137.956 135.02 134.456Z" fill="#2E343D"/>
<path d="M84.1301 134.087V119.187C84.1301 111.337 89.2701 106.427 97.5701 106.427C105.87 106.427 111.06 111.337 111.06 119.187V134.087C111.06 142.047 105.87 147.017 97.5701 147.017C89.2701 147.017 84.1301 142.047 84.1301 134.087ZM103.1 134.487V118.957C103.1 115.457 100.95 113.257 97.5701 113.257C94.1901 113.257 92.0901 115.457 92.0901 118.957V134.487C92.0901 137.987 94.2401 140.187 97.5701 140.187C100.9 140.187 103.1 137.987 103.1 134.487Z" fill="#2E343D"/>
<path d="M147.94 134.056V119.156C147.94 111.306 153.08 106.396 161.38 106.396C169.68 106.396 174.87 111.306 174.87 119.156V134.056C174.87 142.016 169.68 146.986 161.38 146.986C153.08 146.986 147.94 142.016 147.94 134.056ZM166.91 134.456V118.926C166.91 115.426 164.77 113.226 161.38 113.226C157.99 113.226 155.9 115.426 155.9 118.926V134.456C155.9 137.956 158.05 140.156 161.38 140.156C164.71 140.156 166.91 137.956 166.91 134.456Z" fill="#2E343D"/>
<path d="M179.84 134.056V119.156C179.84 111.306 184.98 106.396 193.28 106.396C201.58 106.396 206.77 111.306 206.77 119.156V134.056C206.77 142.016 201.58 146.986 193.28 146.986C184.98 146.986 179.84 142.016 179.84 134.056ZM198.81 134.456V118.926C198.81 115.426 196.66 113.226 193.28 113.226C189.9 113.226 187.8 115.426 187.8 118.926V134.456C187.8 137.956 189.95 140.156 193.28 140.156C196.61 140.156 198.81 137.956 198.81 134.456Z" fill="#2E343D"/>
</svg>
