<svg width="259" height="261" viewBox="0 0 259 261" fill="none" xmlns="http://www.w3.org/2000/svg">
<path d="M130.54 0.00656032C59.26 -0.71344 0 57.9266 0 129.207C0 184.727 35.03 232.067 84.19 250.347V205.377C58.16 189.967 40.72 161.597 40.73 129.157C40.76 81.0366 79.82 41.4166 127.94 40.7466C177.38 40.0566 217.67 79.9266 217.67 129.207C217.67 161.627 200.23 189.977 174.21 205.377V250.347C223.37 232.067 258.4 184.737 258.4 129.207C258.41 58.2966 201.28 0.73656 130.54 0.00656032Z" fill="#515760"/>
<path d="M167.22 252.277V189.557C167.22 185.138 163.638 181.557 159.22 181.557H99.19C94.7717 181.557 91.19 185.138 91.19 189.557V252.277C91.19 256.695 94.7717 260.277 99.19 260.277H159.22C163.638 260.277 167.22 256.695 167.22 252.277Z" fill="#515760"/>
<path d="M103.22 96.4865V69.8065C103.22 69.4465 103.46 69.2065 103.82 69.2065H106.45C106.81 69.2065 107.05 69.4465 107.05 69.8065V96.4865C107.05 96.8465 106.81 97.0865 106.45 97.0865H103.82C103.46 97.0865 103.22 96.8465 103.22 96.4865Z" fill="black"/>
<path d="M112.3 89.6365V88.6765C112.3 88.3165 112.54 88.0765 112.9 88.0765H115.45C115.81 88.0765 116.05 88.3165 116.05 88.6765V89.4365C116.05 92.0665 118.48 94.0965 122.46 94.0965C126.44 94.0965 128 92.3065 128 89.9165C128 87.4065 125.85 86.2965 121.19 84.4165C116.65 82.6665 112.67 81.0665 112.67 76.2165C112.67 71.3665 116.21 68.8865 121.75 68.8865C127.72 68.8865 131.59 72.0765 131.59 76.8165V77.4165C131.59 77.7765 131.35 78.0165 130.99 78.0165H128.4C128.04 78.0165 127.8 77.8165 127.8 77.4965V77.0165C127.8 74.3465 125.61 72.1965 121.59 72.1965C118.28 72.1965 116.41 73.5865 116.41 76.1365C116.41 78.6865 118.48 79.6765 123.18 81.4765C127.6 83.1865 131.82 84.9365 131.82 89.7965C131.82 94.3365 128.2 97.4065 122.18 97.4065C116.16 97.4065 112.3 94.3365 112.3 89.6365Z" fill="black"/>
<path d="M136.24 87.8865V78.4065C136.24 72.7165 140.18 68.8865 146.08 68.8865C151.98 68.8865 155.96 72.7065 155.96 78.4065V87.8865C155.96 93.6165 152.02 97.4465 146.08 97.4465C140.14 97.4465 136.24 93.6265 136.24 87.8865ZM152.13 88.0465V78.3665C152.13 74.6665 149.7 72.1965 146.08 72.1965C142.46 72.1965 140.07 74.6665 140.07 78.3665V88.0465C140.07 91.7065 142.5 94.1365 146.08 94.1365C149.66 94.1365 152.13 91.7065 152.13 88.0465Z" fill="black"/>
<path d="M103.22 96.4865V69.8065C103.22 69.4465 103.46 69.2065 103.82 69.2065H106.45C106.81 69.2065 107.05 69.4465 107.05 69.8065V96.4865C107.05 96.8465 106.81 97.0865 106.45 97.0865H103.82C103.46 97.0865 103.22 96.8465 103.22 96.4865Z" fill="#2E343D"/>
<path d="M112.3 89.6365V88.6765C112.3 88.3165 112.54 88.0765 112.9 88.0765H115.45C115.81 88.0765 116.05 88.3165 116.05 88.6765V89.4365C116.05 92.0665 118.48 94.0965 122.46 94.0965C126.44 94.0965 128 92.3065 128 89.9165C128 87.4065 125.85 86.2965 121.19 84.4165C116.65 82.6665 112.67 81.0665 112.67 76.2165C112.67 71.3665 116.21 68.8865 121.75 68.8865C127.72 68.8865 131.59 72.0765 131.59 76.8165V77.4165C131.59 77.7765 131.35 78.0165 130.99 78.0165H128.4C128.04 78.0165 127.8 77.8165 127.8 77.4965V77.0165C127.8 74.3465 125.61 72.1965 121.59 72.1965C118.28 72.1965 116.41 73.5865 116.41 76.1365C116.41 78.6865 118.48 79.6765 123.18 81.4765C127.6 83.1865 131.82 84.9365 131.82 89.7965C131.82 94.3365 128.2 97.4065 122.18 97.4065C116.16 97.4065 112.3 94.3365 112.3 89.6365Z" fill="#2E343D"/>
<path d="M136.24 87.8865V78.4065C136.24 72.7165 140.18 68.8865 146.08 68.8865C151.98 68.8865 155.96 72.7065 155.96 78.4065V87.8865C155.96 93.6165 152.02 97.4465 146.08 97.4465C140.14 97.4465 136.24 93.6265 136.24 87.8865ZM152.13 88.0465V78.3665C152.13 74.6665 149.7 72.1965 146.08 72.1965C142.46 72.1965 140.07 74.6665 140.07 78.3665V88.0465C140.07 91.7065 142.5 94.1365 146.08 94.1365C149.66 94.1365 152.13 91.7065 152.13 88.0465Z" fill="#2E343D"/>
<path d="M124.89 241.456C123.54 241.456 122.49 240.366 121.82 239.546C116.24 232.736 112.37 230.446 110.05 229.086C108.3 228.056 105.85 227.246 106.35 225.136C106.45 224.726 106.5 224.316 106.61 223.946C107.38 221.386 109.06 218.806 111.22 219.036C112.12 219.136 113.32 219.526 114.69 220.236C118.98 222.466 121 225.156 122.51 227.076C123.54 225.346 125.69 222.066 129.7 216.996C139.45 204.696 149.06 199.536 150.89 198.626C151.17 198.486 151.49 198.396 151.81 198.386H151.96C152.94 198.386 152.92 198.976 153.3 199.886C153.67 200.796 154.35 201.826 153.64 202.506C151.62 204.486 148 208.336 142.27 215.426C136.56 222.486 133.29 229.076 130.9 233.886C128.48 238.756 128.21 241.446 125.95 241.446H124.88L124.89 241.456Z" fill="white"/>
<path d="M41.63 193.757C42.72 192.847 43.8 192.227 44.88 191.907C45.96 191.587 47 191.537 47.98 191.767L47.86 188.517L50.11 188.827L50.23 192.877C50.57 193.137 50.89 193.457 51.2 193.817C51.79 194.517 52.19 195.257 52.42 196.057C52.65 196.857 52.7 197.667 52.58 198.487C52.46 199.307 52.15 200.127 51.65 200.937C51.16 201.747 50.47 202.517 49.61 203.247L49.03 203.737C48.16 204.467 47.28 205.007 46.39 205.357C45.5 205.707 44.64 205.867 43.81 205.857C42.98 205.847 42.19 205.657 41.44 205.287C40.7 204.917 40.03 204.387 39.45 203.697C38.85 202.987 38.43 202.227 38.2 201.427C37.96 200.627 37.91 199.817 38.05 198.987C38.18 198.167 38.5 197.347 39 196.547C39.5 195.747 40.19 194.967 41.06 194.237L41.64 193.747L41.63 193.757ZM42.7 196.257C41.41 197.337 40.64 198.397 40.37 199.437C40.11 200.477 40.35 201.437 41.09 202.317C41.45 202.737 41.85 203.047 42.31 203.247C42.76 203.447 43.26 203.517 43.79 203.477C44.32 203.437 44.88 203.277 45.48 202.997C46.08 202.717 46.7 202.307 47.34 201.767L47.94 201.267C48.58 200.727 49.09 200.187 49.47 199.647C49.85 199.107 50.11 198.567 50.24 198.057C50.37 197.537 50.38 197.037 50.27 196.557C50.15 196.077 49.92 195.617 49.56 195.197C48.82 194.307 47.91 193.917 46.84 193.997C45.77 194.087 44.59 194.667 43.3 195.757L42.7 196.257Z" fill="white"/>
<path d="M25.98 183.697L34.55 178.557C35.28 178.117 36 177.857 36.7 177.777C37.4 177.697 38.07 177.767 38.7 177.977C39.33 178.187 39.91 178.527 40.44 179.007C40.97 179.477 41.44 180.047 41.84 180.707C42.25 181.397 42.54 182.087 42.7 182.777C42.87 183.477 42.89 184.147 42.78 184.797C42.67 185.447 42.41 186.057 42 186.627C41.59 187.197 41.02 187.707 40.29 188.147L31.72 193.287L30.39 191.067L38.96 185.927C39.42 185.657 39.78 185.357 40.04 185.037C40.3 184.717 40.47 184.377 40.55 184.027C40.63 183.677 40.63 183.307 40.55 182.927C40.46 182.547 40.3 182.167 40.07 181.767C39.83 181.377 39.57 181.047 39.28 180.787C38.99 180.527 38.66 180.357 38.31 180.267C37.96 180.177 37.58 180.167 37.18 180.247C36.78 180.327 36.35 180.497 35.89 180.777L27.32 185.917L25.99 183.697H25.98Z" fill="white"/>
<path d="M30.4102 165.487L32.5802 170.847L36.2602 170.667L37.2702 173.167L21.3002 173.547L20.4302 171.387L32.1602 160.537L33.1802 163.047L30.4102 165.487ZM30.3702 170.967L28.7402 166.957L23.8102 171.287L30.3702 170.967Z" fill="white"/>
<path d="M28.56 154.877L26.96 148.287L28.97 147.797L31.18 156.917L16.66 160.447L16.05 157.927L28.56 154.887V154.877Z" fill="white"/>
<path d="M28.04 140.787L28.37 143.347L13.55 145.277L13.22 142.717L28.04 140.787Z" fill="white"/>
<path d="M14.4201 125.027L14.5001 129.687L27.3501 129.457L27.4001 132.037L14.5501 132.267L14.6301 136.887L12.5401 136.927L12.3301 125.077L14.4201 125.037V125.027Z" fill="white"/>
<path d="M20.4001 114.757L13.8201 110.437L14.1901 107.587L22.9101 113.767L28.3701 114.477L28.0301 117.067L22.5701 116.357L12.5601 120.117L12.9301 117.257L20.3901 114.757H20.4001Z" fill="white"/>
<path d="M28.6601 87.8667L26.5601 93.6367L30.8801 95.2167L33.3401 88.4767L35.2901 89.1867L31.9401 98.3667L17.9001 93.2467L21.2201 84.1367L23.1901 84.8567L20.7601 91.5267L24.6401 92.9367L26.7401 87.1667L28.6701 87.8667H28.6601Z" fill="white"/>
<path d="M42.6701 75.0066L41.4201 77.2766L28.9201 78.0066L38.2101 83.1166L36.9601 85.3866L23.8701 78.1866L25.1201 75.9166L37.6601 75.1966L28.3401 70.0666L29.5801 67.8066L42.6701 75.0066Z" fill="white"/>
<path d="M45.6 59.8066L41.86 64.6766L45.51 67.4766L49.88 61.7866L51.52 63.0466L45.57 70.7966L33.72 61.6966L39.63 54.0066L41.29 55.2866L36.96 60.9166L40.23 63.4266L43.97 58.5566L45.6 59.8066Z" fill="white"/>
<path d="M54.2502 51.9666L52.1802 53.9866L56.2002 58.1066L54.3402 59.9166L43.9102 49.2166L47.6702 45.5466C48.2802 44.9466 48.9002 44.4866 49.5102 44.1566C50.1302 43.8266 50.7302 43.6366 51.3302 43.5866C51.9302 43.5366 52.5102 43.6266 53.0702 43.8666C53.6302 44.0966 54.1702 44.4866 54.6902 45.0166C55.3902 45.7366 55.8002 46.4966 55.9202 47.3166C56.0402 48.1366 55.9202 48.9766 55.5602 49.8366L62.3102 51.9566L62.4002 52.0566L60.4102 53.9966L54.2502 51.9666ZM50.7202 52.4866L52.6302 50.6266C52.9602 50.3066 53.2102 49.9766 53.3802 49.6466C53.5402 49.3166 53.6302 48.9866 53.6502 48.6666C53.6602 48.3466 53.6102 48.0366 53.4802 47.7466C53.3502 47.4466 53.1602 47.1766 52.9102 46.9166C52.6402 46.6466 52.3602 46.4366 52.0702 46.2866C51.7702 46.1366 51.4702 46.0666 51.1502 46.0666C50.8302 46.0666 50.5102 46.1466 50.1702 46.3066C49.8302 46.4666 49.4902 46.7166 49.1402 47.0666L47.2402 48.9266L50.7302 52.5166L50.7202 52.4866Z" fill="white"/>
<path d="M73.5901 41.4065C73.5901 41.6665 73.5301 41.9765 73.4501 42.3465C73.3701 42.7165 73.2101 43.1065 72.9701 43.5465C72.7401 43.9765 72.4101 44.4365 71.9901 44.9065C71.5701 45.3865 71.0201 45.8665 70.3401 46.3465C69.5801 46.8865 68.7801 47.2565 67.9601 47.4465C67.1401 47.6365 66.3201 47.6465 65.5101 47.4765C64.7001 47.3065 63.9101 46.9465 63.1401 46.4065C62.3701 45.8665 61.6601 45.1265 60.9901 44.1965L60.4201 43.3965C59.7601 42.4665 59.2901 41.5665 59.0001 40.6765C58.7101 39.7865 58.6001 38.9365 58.6801 38.1265C58.7501 37.3165 59.0101 36.5665 59.4401 35.8665C59.8701 35.1665 60.4801 34.5365 61.2701 33.9765C62.0101 33.4465 62.7301 33.0865 63.4201 32.8865C64.1101 32.6865 64.7701 32.6265 65.3901 32.6965C66.0101 32.7765 66.6101 32.9665 67.1601 33.2965C67.7201 33.6165 68.2301 34.0365 68.7101 34.5565L66.6401 36.0265C66.3601 35.7465 66.0701 35.5065 65.7601 35.3265C65.4501 35.1465 65.1301 35.0265 64.7901 34.9765C64.4501 34.9265 64.0901 34.9565 63.7101 35.0565C63.3301 35.1565 62.9401 35.3565 62.5201 35.6465C62.0201 35.9965 61.6601 36.3965 61.4201 36.8365C61.1901 37.2765 61.0701 37.7665 61.0801 38.2965C61.0801 38.8265 61.2201 39.3865 61.4601 39.9865C61.7101 40.5865 62.0601 41.2165 62.5301 41.8765L63.1101 42.6965C63.5901 43.3665 64.0801 43.9065 64.5901 44.3165C65.1001 44.7265 65.6201 45.0165 66.1401 45.1765C66.6601 45.3365 67.1801 45.3665 67.7001 45.2765C68.2201 45.1865 68.7201 44.9665 69.2101 44.6165C69.5701 44.3565 69.8701 44.1165 70.0901 43.8865C70.3201 43.6565 70.4901 43.4365 70.6201 43.2365C70.7501 43.0365 70.8401 42.8565 70.8901 42.6865C70.9401 42.5165 70.9801 42.3665 71.0001 42.2365L69.3001 39.8565L66.7901 41.6365L65.6501 40.0265L70.2701 36.7465L73.5901 41.4165V41.4065Z" fill="white"/>
<path d="M79.78 31.3165L79.68 23.4465L82.25 22.1565L82 32.8365L84.46 37.7565L82.13 38.9265L79.67 34.0065L70.96 27.8065L73.54 26.5165L79.78 31.3065V31.3165Z" fill="white"/>
<path d="M99.7001 16.2866L106.33 26.5666L108.11 14.4666L111.39 13.7566L114.55 28.3566L112.02 28.9066L110.98 24.0966L109.84 17.6066L107.96 29.7966L106.14 30.1866L99.4101 19.8766L101.05 26.2566L102.09 31.0666L99.5601 31.6166L96.4001 17.0166L99.6901 16.3066L99.7001 16.2866Z" fill="white"/>
<path d="M127.88 24.1766L122.1 24.3666L121.01 27.8866L118.31 27.9766L123.45 12.8566L125.78 12.7766L131.93 27.5166L129.22 27.6066L127.88 24.1666V24.1766ZM122.75 22.2566L127.08 22.1166L124.71 15.9966L122.75 22.2666V22.2566Z" fill="white"/>
<path d="M147.36 29.2565L144.78 28.9265L139.51 17.5665L138.17 28.0865L135.59 27.7565L137.48 12.9365L140.06 13.2665L145.34 24.6665L146.69 14.1065L149.25 14.4365L147.36 29.2565Z" fill="white"/>
<path d="M161.43 29.4366L155.89 27.7766L153.73 30.7566L151.14 29.9866L160.84 17.2966L163.07 17.9666L164.2 33.9066L161.6 33.1266L161.43 29.4466V29.4366ZM157.19 25.9766L161.34 27.2166L161.05 20.6566L157.2 25.9766H157.19Z" fill="white"/>
<path d="M178.54 38.4665C178.31 38.5865 178.01 38.6965 177.65 38.7965C177.29 38.8965 176.86 38.9565 176.37 38.9565C175.88 38.9565 175.32 38.8965 174.7 38.7565C174.08 38.6165 173.39 38.3665 172.64 38.0065C171.8 37.5965 171.09 37.0765 170.53 36.4465C169.96 35.8165 169.56 35.1065 169.32 34.3165C169.08 33.5265 169.01 32.6565 169.12 31.7265C169.23 30.7865 169.53 29.8065 170.02 28.7765L170.45 27.8865C170.94 26.8665 171.51 26.0065 172.15 25.3265C172.79 24.6465 173.48 24.1365 174.22 23.8165C174.96 23.4865 175.74 23.3465 176.57 23.3865C177.39 23.4265 178.24 23.6565 179.11 24.0765C179.93 24.4765 180.59 24.9265 181.1 25.4265C181.61 25.9365 181.98 26.4765 182.21 27.0665C182.44 27.6465 182.56 28.2665 182.54 28.9065C182.53 29.5465 182.41 30.2065 182.18 30.8665L179.89 29.7565C180 29.3765 180.07 29.0065 180.08 28.6565C180.09 28.2965 180.04 27.9565 179.92 27.6365C179.8 27.3165 179.6 27.0065 179.33 26.7265C179.06 26.4465 178.7 26.1965 178.24 25.9765C177.69 25.7165 177.17 25.5865 176.66 25.5965C176.16 25.5965 175.68 25.7365 175.22 26.0065C174.76 26.2665 174.33 26.6565 173.92 27.1565C173.51 27.6665 173.13 28.2765 172.78 29.0065L172.34 29.9165C171.98 30.6565 171.75 31.3465 171.63 31.9965C171.52 32.6465 171.51 33.2365 171.63 33.7665C171.74 34.2965 171.96 34.7665 172.29 35.1765C172.62 35.5865 173.06 35.9265 173.6 36.1865C174 36.3765 174.36 36.5165 174.67 36.6065C174.98 36.6965 175.26 36.7465 175.49 36.7565C175.73 36.7665 175.93 36.7565 176.1 36.7265C176.27 36.6965 176.42 36.6465 176.54 36.6065L177.81 33.9765L175.04 32.6365L175.9 30.8665L181 33.3265L178.51 38.4865L178.54 38.4665Z" fill="white"/>
<path d="M192.88 42.1865L187.81 38.7265L185.22 42.5265L191.14 46.5765L189.97 48.2865L181.9 42.7765L190.33 30.4365L198.34 35.9065L197.16 37.6365L191.3 33.6365L188.97 37.0465L194.04 40.5065L192.88 42.1965V42.1865Z" fill="white"/>
<path d="M206.02 42.2465L201.18 53.4865L212.22 48.2265L214.64 50.5565L204.27 61.3165L202.41 59.5265L205.83 55.9765L210.59 51.4065L199.42 56.6365L198.08 55.3465L202.89 44.0065L198.51 48.9165L195.09 52.4665L193.23 50.6765L203.6 39.9165L206.02 42.2565V42.2465Z" fill="white"/>
<path d="M217.92 68.3067L214.27 63.3667L210.57 66.0967L214.83 71.8667L213.16 73.0967L207.35 65.2367L219.37 56.3567L225.13 64.1567L223.45 65.3967L219.23 59.6867L215.91 62.1367L219.56 67.0767L217.91 68.2967L217.92 68.3067Z" fill="white"/>
<path d="M220.93 87.0667L219.72 84.7667L226 73.9367L216.62 78.8767L215.41 76.5767L228.63 69.6167L229.84 71.9167L223.53 82.7867L232.95 77.8267L234.15 80.1067L220.93 87.0667Z" fill="white"/>
<path d="M238.41 97.5567L236.9 93.1467L224.74 97.3067L223.91 94.8667L236.07 90.7067L234.57 86.3367L236.55 85.6567L240.39 96.8667L238.41 97.5467V97.5567Z" fill="white"/>
<path d="M233.28 120.087C233.58 120.057 233.84 119.977 234.07 119.867C234.29 119.757 234.49 119.567 234.66 119.307C234.83 119.047 234.98 118.707 235.12 118.277C235.25 117.847 235.38 117.297 235.51 116.627C235.64 115.897 235.81 115.217 236.02 114.587C236.23 113.957 236.48 113.407 236.8 112.937C237.11 112.467 237.49 112.077 237.93 111.787C238.37 111.487 238.9 111.307 239.5 111.237C240.1 111.167 240.66 111.237 241.19 111.437C241.72 111.637 242.2 111.947 242.62 112.367C243.04 112.787 243.39 113.307 243.66 113.937C243.94 114.557 244.12 115.267 244.2 116.047C244.29 116.887 244.26 117.647 244.09 118.337C243.92 119.027 243.66 119.627 243.29 120.137C242.93 120.637 242.48 121.047 241.96 121.357C241.44 121.667 240.87 121.847 240.25 121.917L239.96 119.347C240.32 119.307 240.65 119.217 240.94 119.067C241.23 118.917 241.47 118.717 241.67 118.467C241.87 118.207 242 117.897 242.09 117.537C242.17 117.167 242.19 116.747 242.13 116.267C242.08 115.807 241.98 115.427 241.84 115.097C241.7 114.777 241.53 114.517 241.32 114.317C241.11 114.117 240.88 113.977 240.61 113.897C240.35 113.817 240.07 113.797 239.78 113.827C239.23 113.887 238.8 114.197 238.49 114.757C238.18 115.317 237.93 116.147 237.74 117.257C237.59 118.117 237.4 118.877 237.17 119.517C236.94 120.167 236.66 120.707 236.33 121.157C236 121.607 235.61 121.947 235.16 122.197C234.71 122.447 234.19 122.607 233.6 122.667C232.97 122.737 232.4 122.667 231.87 122.487C231.34 122.297 230.88 121.987 230.48 121.567C230.08 121.147 229.75 120.617 229.49 119.987C229.23 119.357 229.06 118.637 228.97 117.837C228.89 117.127 228.91 116.407 229.03 115.697C229.15 114.977 229.37 114.327 229.7 113.737C230.03 113.147 230.47 112.647 231.01 112.247C231.56 111.847 232.22 111.597 233.01 111.517L233.3 114.097C232.83 114.147 232.44 114.277 232.12 114.477C231.8 114.677 231.55 114.937 231.37 115.257C231.19 115.567 231.07 115.927 231.02 116.337C230.97 116.747 230.96 117.177 231.02 117.627C231.12 118.527 231.38 119.177 231.79 119.587C232.2 119.997 232.71 120.167 233.31 120.107L233.28 120.087Z" fill="white"/>
<path d="M237.56 132.577L244.52 136.247L244.42 139.117L235.15 133.797L229.65 133.617L229.74 131.007L235.24 131.187L244.84 126.487L244.74 129.367L237.55 132.567L237.56 132.577Z" fill="white"/>
<path d="M231.42 150.517C231.72 150.567 231.99 150.577 232.24 150.527C232.49 150.477 232.73 150.357 232.97 150.167C233.21 149.967 233.45 149.687 233.7 149.307C233.95 148.927 234.23 148.437 234.54 147.837C234.87 147.177 235.23 146.567 235.61 146.027C235.99 145.487 236.39 145.027 236.82 144.667C237.25 144.307 237.72 144.047 238.23 143.887C238.74 143.727 239.29 143.707 239.89 143.807C240.48 143.917 241.01 144.137 241.46 144.477C241.91 144.817 242.28 145.247 242.56 145.777C242.84 146.297 243.03 146.897 243.11 147.577C243.2 148.257 243.17 148.977 243.03 149.747C242.88 150.577 242.63 151.297 242.27 151.917C241.91 152.537 241.49 153.037 241 153.417C240.51 153.797 239.97 154.057 239.38 154.207C238.79 154.347 238.2 154.367 237.58 154.257L238.04 151.707C238.4 151.767 238.73 151.777 239.05 151.717C239.37 151.657 239.66 151.537 239.92 151.347C240.18 151.157 240.4 150.897 240.59 150.567C240.77 150.237 240.91 149.837 240.99 149.357C241.07 148.907 241.09 148.507 241.05 148.157C241.01 147.807 240.92 147.507 240.77 147.257C240.63 147.007 240.44 146.807 240.21 146.657C239.98 146.507 239.72 146.407 239.43 146.357C238.88 146.257 238.38 146.437 237.93 146.887C237.47 147.337 237 148.067 236.5 149.067C236.11 149.857 235.71 150.517 235.31 151.077C234.91 151.627 234.48 152.077 234.03 152.407C233.58 152.737 233.11 152.967 232.61 153.077C232.11 153.187 231.56 153.187 230.98 153.077C230.36 152.967 229.83 152.747 229.37 152.407C228.92 152.067 228.56 151.647 228.3 151.127C228.03 150.607 227.87 150.007 227.8 149.337C227.73 148.657 227.77 147.917 227.91 147.127C228.04 146.417 228.26 145.737 228.57 145.087C228.88 144.437 229.28 143.867 229.77 143.397C230.25 142.917 230.82 142.567 231.46 142.337C232.1 142.107 232.81 142.067 233.59 142.207L233.13 144.767C232.67 144.687 232.25 144.697 231.89 144.797C231.53 144.907 231.21 145.077 230.95 145.327C230.69 145.577 230.47 145.887 230.3 146.257C230.13 146.627 230.01 147.047 229.93 147.497C229.77 148.387 229.83 149.087 230.11 149.597C230.39 150.107 230.83 150.417 231.42 150.527V150.517Z" fill="white"/>
<path d="M234.78 170.906L236.27 166.486L224.09 162.387L224.91 159.947L237.09 164.046L238.56 159.667L240.54 160.337L236.76 171.566L234.78 170.896V170.906Z" fill="white"/>
<path d="M222.96 181.307L225.73 175.827L221.63 173.757L218.4 180.157L216.55 179.227L220.95 170.507L234.29 177.247L229.92 185.907L228.05 184.967L231.25 178.627L227.57 176.767L224.8 182.247L222.97 181.327L222.96 181.307Z" fill="white"/>
<path d="M224.6 194.357L212.83 191.017L219.49 201.277L217.5 203.977L205.48 195.097L207.02 193.017L210.98 195.947L216.13 200.067L209.49 189.677L210.59 188.187L222.46 191.477L217.02 187.777L213.06 184.847L214.6 182.767L226.62 191.647L224.62 194.357H224.6Z" fill="white"/>
<path d="M60.5401 145.406V140.666C60.5401 140.216 60.7101 139.876 61.0501 139.476C65.5701 134.956 69.5801 130.276 73.3601 126.206C76.4101 122.816 78.5001 119.826 78.5001 117.736C78.5001 115.086 76.4701 113.216 73.4201 113.216C70.3701 113.216 68.3401 115.076 68.3401 117.846V118.976C68.3401 119.596 68.0001 119.936 67.3801 119.936H61.2801C60.6601 119.936 60.3201 119.596 60.3201 118.976V116.606C60.6601 110.336 66.1901 106.386 73.4201 106.386C81.6101 106.386 86.5701 111.406 86.5701 117.566C86.5701 120.836 84.8201 124.116 81.8301 127.786C78.9501 131.346 75.2801 135.016 71.3901 139.136C71.1601 139.306 71.2801 139.536 71.5601 139.536H86.3501C86.9701 139.536 87.3101 139.876 87.3101 140.496V145.406C87.3101 146.026 86.9701 146.366 86.3501 146.366H61.5101C60.8901 146.366 60.5501 146.026 60.5501 145.406H60.5401Z" fill="#2E343D"/>
<path d="M95.94 145.236L107.97 114.076C108.03 113.846 107.97 113.676 107.74 113.676H97.3C97.13 113.676 96.96 113.786 96.96 114.016V116.276C96.96 116.896 96.62 117.236 96 117.236H91.43C90.81 117.236 90.47 116.896 90.47 116.276L90.53 107.806C90.53 107.186 90.87 106.846 91.49 106.846H115.6C116.22 106.846 116.56 107.186 116.56 107.806V113.056C116.56 113.456 116.5 113.786 116.33 114.246L104.25 145.636C104.08 146.146 103.69 146.366 103.18 146.366H96.69C96.01 146.366 95.73 145.856 95.96 145.236H95.94Z" fill="#2E343D"/>
<path d="M119.65 134.056V119.156C119.65 111.306 124.79 106.396 133.09 106.396C141.39 106.396 146.58 111.306 146.58 119.156V134.056C146.58 142.016 141.39 146.986 133.09 146.986C124.79 146.986 119.65 142.016 119.65 134.056ZM138.62 134.456V118.926C138.62 115.426 136.47 113.226 133.09 113.226C129.71 113.226 127.61 115.426 127.61 118.926V134.456C127.61 137.956 129.76 140.156 133.09 140.156C136.42 140.156 138.62 137.956 138.62 134.456Z" fill="#2E343D"/>
<path d="M151.54 134.056V119.156C151.54 111.306 156.68 106.396 164.98 106.396C173.28 106.396 178.47 111.306 178.47 119.156V134.056C178.47 142.016 173.28 146.986 164.98 146.986C156.68 146.986 151.54 142.016 151.54 134.056ZM170.51 134.456V118.926C170.51 115.426 168.36 113.226 164.98 113.226C161.6 113.226 159.5 115.426 159.5 118.926V134.456C159.5 137.956 161.65 140.156 164.98 140.156C168.31 140.156 170.51 137.956 170.51 134.456Z" fill="#2E343D"/>
<path d="M188.92 106.846H195.3C195.92 106.846 196.26 107.186 196.26 107.806V145.406C196.26 146.026 195.92 146.366 195.3 146.366H189.26C188.64 146.366 188.3 146.026 188.3 145.406V114.636C188.3 114.406 188.13 114.236 187.91 114.296L182.94 115.316C182.32 115.426 181.87 115.086 181.87 114.466V110.176C181.87 109.666 182.1 109.276 182.6 109.106L187.74 107.076C188.14 106.906 188.47 106.846 188.93 106.846H188.92Z" fill="#2E343D"/>
<path d="M97.05 164.967C97 165.607 96.86 166.197 96.62 166.737C96.38 167.277 96.04 167.737 95.61 168.127C95.18 168.517 94.66 168.817 94.05 169.027C93.44 169.247 92.74 169.357 91.96 169.357C91.18 169.357 90.42 169.217 89.77 168.937C89.12 168.657 88.58 168.247 88.13 167.727C87.68 167.197 87.34 166.557 87.1 165.807C86.86 165.057 86.74 164.217 86.74 163.277V162.437C86.74 161.507 86.86 160.657 87.11 159.907C87.36 159.157 87.71 158.517 88.17 157.987C88.62 157.457 89.18 157.057 89.83 156.767C90.48 156.487 91.2 156.337 92 156.337C92.8 156.337 93.48 156.447 94.09 156.667C94.7 156.887 95.21 157.197 95.63 157.597C96.05 157.997 96.38 158.467 96.62 159.017C96.86 159.567 97.01 160.157 97.07 160.807H94.46C94.43 160.427 94.37 160.097 94.26 159.807C94.16 159.517 94.01 159.277 93.82 159.077C93.63 158.877 93.38 158.727 93.08 158.627C92.78 158.527 92.41 158.477 91.98 158.477C91.1 158.477 90.44 158.797 90.01 159.437C89.58 160.077 89.36 161.067 89.36 162.417V163.267C89.36 163.917 89.41 164.497 89.5 164.987C89.6 165.477 89.75 165.887 89.95 166.227C90.16 166.557 90.42 166.807 90.75 166.967C91.08 167.127 91.47 167.217 91.94 167.217C92.35 167.217 92.71 167.167 93.01 167.077C93.31 166.987 93.56 166.847 93.76 166.657C93.96 166.467 94.11 166.237 94.23 165.947C94.34 165.667 94.41 165.337 94.44 164.957H97.05V164.967Z" fill="#2E343D"/>
<path d="M106.38 163.697H101.37V167.087H107.25V169.187H98.76V156.527H107.23V158.637H101.37V161.657H106.38V163.697Z" fill="#2E343D"/>
<path d="M113.46 164.547H111.38V169.177H108.77V156.517H113.47C114.2 156.517 114.86 156.597 115.44 156.767C116.02 156.937 116.51 157.177 116.91 157.497C117.31 157.817 117.62 158.217 117.83 158.697C118.04 159.177 118.15 159.727 118.15 160.347C118.15 160.807 118.1 161.227 117.99 161.597C117.89 161.967 117.73 162.297 117.54 162.577C117.34 162.867 117.11 163.117 116.83 163.327C116.55 163.537 116.24 163.727 115.89 163.887L118.63 169.057V169.177H115.83L113.46 164.547ZM111.39 162.437H113.49C113.83 162.437 114.13 162.397 114.39 162.307C114.65 162.217 114.86 162.087 115.03 161.927C115.2 161.757 115.33 161.567 115.42 161.337C115.51 161.107 115.55 160.847 115.55 160.567C115.55 159.967 115.38 159.497 115.04 159.157C114.7 158.817 114.18 158.647 113.48 158.647H111.38V162.447L111.39 162.437Z" fill="#2E343D"/>
<path d="M129.24 158.637H125.36V169.187H122.75V158.637H118.92V156.527H129.23V158.637H129.24Z" fill="#2E343D"/>
<path d="M133.5 169.187H130.89V156.527H133.5V169.187Z" fill="#2E343D"/>
<path d="M143.53 164.007H138.52V169.177H135.91V156.517H144.15V158.627H138.52V161.897H143.53V163.997V164.007Z" fill="#2E343D"/>
<path d="M148.44 169.187H145.83V156.527H148.44V169.187Z" fill="#2E343D"/>
<path d="M158.48 163.697H153.47V167.087H159.35V169.187H150.86V156.527H159.33V158.637H153.47V161.657H158.48V163.697Z" fill="#2E343D"/>
<path d="M160.88 169.187V156.527H164.77C165.62 156.527 166.4 156.677 167.11 156.967C167.82 157.257 168.43 157.667 168.94 158.207C169.45 158.737 169.84 159.377 170.13 160.117C170.41 160.857 170.56 161.677 170.56 162.587V163.157C170.56 164.057 170.42 164.887 170.14 165.617C169.86 166.357 169.46 166.987 168.95 167.517C168.44 168.047 167.82 168.457 167.11 168.747C166.4 169.037 165.61 169.177 164.75 169.177H160.88V169.187ZM163.48 158.637V167.087H164.74C165.77 167.087 166.56 166.747 167.1 166.067C167.64 165.387 167.91 164.417 167.91 163.147V162.557C167.91 161.267 167.64 160.297 167.11 159.627C166.58 158.967 165.8 158.627 164.77 158.627H163.48V158.637Z" fill="#2E343D"/>
</svg>
