<svg width="259" height="261" viewBox="0 0 259 261" fill="none" xmlns="http://www.w3.org/2000/svg">
<path d="M130.54 0.283172C59.26 -0.436828 0 58.2032 0 129.483C0 185.003 35.03 232.343 84.19 250.623V205.653C58.16 190.243 40.72 161.873 40.73 129.433C40.76 81.3132 79.82 41.6932 127.94 41.0232C177.38 40.3332 217.67 80.2032 217.67 129.483C217.67 161.903 200.23 190.253 174.21 205.653V250.623C223.37 232.343 258.4 185.013 258.4 129.483C258.41 58.5732 201.28 1.01317 130.54 0.283172Z" fill="#009C9A"/>
<path d="M167.22 252.553V189.833C167.22 185.415 163.638 181.833 159.22 181.833H99.19C94.7717 181.833 91.19 185.415 91.19 189.833V252.553C91.19 256.972 94.7717 260.553 99.19 260.553H159.22C163.638 260.553 167.22 256.972 167.22 252.553Z" fill="#009C9A"/>
<path d="M103.22 96.7632V70.0832C103.22 69.7232 103.46 69.4832 103.82 69.4832H106.45C106.81 69.4832 107.05 69.7232 107.05 70.0832V96.7632C107.05 97.1232 106.81 97.3632 106.45 97.3632H103.82C103.46 97.3632 103.22 97.1232 103.22 96.7632Z" fill="black"/>
<path d="M112.3 89.9131V88.9531C112.3 88.5931 112.54 88.3531 112.9 88.3531H115.45C115.81 88.3531 116.05 88.5931 116.05 88.9531V89.7131C116.05 92.3431 118.48 94.3731 122.46 94.3731C126.44 94.3731 128 92.5831 128 90.1931C128 87.6831 125.85 86.5731 121.19 84.6931C116.65 82.9431 112.67 81.3431 112.67 76.4931C112.67 71.6431 116.21 69.1631 121.75 69.1631C127.72 69.1631 131.59 72.3531 131.59 77.0931V77.6931C131.59 78.0531 131.35 78.2931 130.99 78.2931H128.4C128.04 78.2931 127.8 78.0931 127.8 77.7731V77.2931C127.8 74.6231 125.61 72.4731 121.59 72.4731C118.28 72.4731 116.41 73.8631 116.41 76.4131C116.41 78.9631 118.48 79.9531 123.18 81.7531C127.6 83.4631 131.82 85.2131 131.82 90.0731C131.82 94.6131 128.2 97.6831 122.18 97.6831C116.16 97.6831 112.3 94.6131 112.3 89.9131Z" fill="black"/>
<path d="M136.24 88.1631V78.6831C136.24 72.9931 140.18 69.1631 146.08 69.1631C151.98 69.1631 155.96 72.9831 155.96 78.6831V88.1631C155.96 93.8931 152.02 97.7231 146.08 97.7231C140.14 97.7231 136.24 93.9031 136.24 88.1631ZM152.13 88.3231V78.6431C152.13 74.9431 149.7 72.4731 146.08 72.4731C142.46 72.4731 140.07 74.9431 140.07 78.6431V88.3231C140.07 91.9831 142.5 94.4131 146.08 94.4131C149.66 94.4131 152.13 91.9831 152.13 88.3231Z" fill="black"/>
<path d="M103.22 96.7632V70.0832C103.22 69.7232 103.46 69.4832 103.82 69.4832H106.45C106.81 69.4832 107.05 69.7232 107.05 70.0832V96.7632C107.05 97.1232 106.81 97.3632 106.45 97.3632H103.82C103.46 97.3632 103.22 97.1232 103.22 96.7632Z" fill="#2E343D"/>
<path d="M112.3 89.9131V88.9531C112.3 88.5931 112.54 88.3531 112.9 88.3531H115.45C115.81 88.3531 116.05 88.5931 116.05 88.9531V89.7131C116.05 92.3431 118.48 94.3731 122.46 94.3731C126.44 94.3731 128 92.5831 128 90.1931C128 87.6831 125.85 86.5731 121.19 84.6931C116.65 82.9431 112.67 81.3431 112.67 76.4931C112.67 71.6431 116.21 69.1631 121.75 69.1631C127.72 69.1631 131.59 72.3531 131.59 77.0931V77.6931C131.59 78.0531 131.35 78.2931 130.99 78.2931H128.4C128.04 78.2931 127.8 78.0931 127.8 77.7731V77.2931C127.8 74.6231 125.61 72.4731 121.59 72.4731C118.28 72.4731 116.41 73.8631 116.41 76.4131C116.41 78.9631 118.48 79.9531 123.18 81.7531C127.6 83.4631 131.82 85.2131 131.82 90.0731C131.82 94.6131 128.2 97.6831 122.18 97.6831C116.16 97.6831 112.3 94.6131 112.3 89.9131Z" fill="#2E343D"/>
<path d="M136.24 88.1631V78.6831C136.24 72.9931 140.18 69.1631 146.08 69.1631C151.98 69.1631 155.96 72.9831 155.96 78.6831V88.1631C155.96 93.8931 152.02 97.7231 146.08 97.7231C140.14 97.7231 136.24 93.9031 136.24 88.1631ZM152.13 88.3231V78.6431C152.13 74.9431 149.7 72.4731 146.08 72.4731C142.46 72.4731 140.07 74.9431 140.07 78.6431V88.3231C140.07 91.9831 142.5 94.4131 146.08 94.4131C149.66 94.4131 152.13 91.9831 152.13 88.3231Z" fill="#2E343D"/>
<path d="M124.89 241.733C123.54 241.733 122.49 240.643 121.82 239.823C116.24 233.013 112.37 230.723 110.05 229.363C108.3 228.333 105.85 227.523 106.35 225.413C106.45 225.003 106.5 224.593 106.61 224.223C107.38 221.663 109.06 219.083 111.22 219.313C112.12 219.413 113.32 219.803 114.69 220.513C118.98 222.743 121 225.433 122.51 227.353C123.54 225.623 125.69 222.343 129.7 217.273C139.45 204.973 149.06 199.813 150.89 198.903C151.17 198.763 151.49 198.673 151.81 198.663H151.96C152.94 198.663 152.92 199.253 153.3 200.163C153.67 201.073 154.35 202.103 153.64 202.783C151.62 204.763 148 208.613 142.27 215.703C136.56 222.763 133.29 229.353 130.9 234.163C128.48 239.033 128.21 241.723 125.95 241.723H124.88L124.89 241.733Z" fill="white"/>
<path d="M41.63 194.033C42.72 193.123 43.8 192.503 44.88 192.183C45.96 191.863 47 191.813 47.98 192.043L47.86 188.793L50.11 189.103L50.23 193.153C50.57 193.413 50.89 193.733 51.2 194.093C51.79 194.793 52.19 195.533 52.42 196.333C52.65 197.133 52.7 197.943 52.58 198.763C52.46 199.583 52.15 200.403 51.65 201.213C51.16 202.023 50.47 202.793 49.61 203.523L49.03 204.013C48.16 204.743 47.28 205.283 46.39 205.633C45.5 205.983 44.64 206.143 43.81 206.133C42.98 206.123 42.19 205.933 41.44 205.563C40.7 205.193 40.03 204.663 39.45 203.973C38.85 203.263 38.43 202.503 38.2 201.703C37.96 200.903 37.91 200.093 38.05 199.263C38.18 198.443 38.5 197.623 39 196.823C39.5 196.023 40.19 195.243 41.06 194.513L41.64 194.023L41.63 194.033ZM42.7 196.533C41.41 197.613 40.64 198.673 40.37 199.713C40.11 200.753 40.35 201.713 41.09 202.593C41.45 203.013 41.85 203.323 42.31 203.523C42.76 203.723 43.26 203.793 43.79 203.753C44.32 203.713 44.88 203.553 45.48 203.273C46.08 202.993 46.7 202.583 47.34 202.043L47.94 201.543C48.58 201.003 49.09 200.463 49.47 199.923C49.85 199.383 50.11 198.843 50.24 198.333C50.37 197.813 50.38 197.313 50.27 196.833C50.15 196.353 49.92 195.893 49.56 195.473C48.82 194.583 47.91 194.193 46.84 194.273C45.77 194.363 44.59 194.943 43.3 196.033L42.7 196.533Z" fill="white"/>
<path d="M25.98 183.973L34.55 178.833C35.28 178.393 36 178.133 36.7 178.053C37.4 177.973 38.07 178.043 38.7 178.253C39.33 178.463 39.91 178.803 40.44 179.283C40.97 179.753 41.44 180.323 41.84 180.983C42.25 181.673 42.54 182.363 42.7 183.053C42.87 183.753 42.89 184.423 42.78 185.073C42.67 185.723 42.41 186.333 42 186.903C41.59 187.473 41.02 187.983 40.29 188.423L31.72 193.563L30.39 191.343L38.96 186.203C39.42 185.933 39.78 185.633 40.04 185.313C40.3 184.993 40.47 184.653 40.55 184.303C40.63 183.953 40.63 183.583 40.55 183.203C40.46 182.823 40.3 182.443 40.07 182.043C39.83 181.653 39.57 181.323 39.28 181.063C38.99 180.803 38.66 180.633 38.31 180.543C37.96 180.453 37.58 180.443 37.18 180.523C36.78 180.603 36.35 180.773 35.89 181.053L27.32 186.193L25.99 183.973H25.98Z" fill="white"/>
<path d="M30.4102 165.763L32.5802 171.123L36.2602 170.943L37.2702 173.443L21.3002 173.823L20.4302 171.663L32.1602 160.813L33.1802 163.323L30.4102 165.763ZM30.3702 171.243L28.7402 167.233L23.8102 171.563L30.3702 171.243Z" fill="white"/>
<path d="M28.56 155.153L26.96 148.563L28.97 148.073L31.18 157.193L16.66 160.723L16.05 158.203L28.56 155.163V155.153Z" fill="white"/>
<path d="M28.04 141.063L28.37 143.623L13.55 145.553L13.22 142.993L28.04 141.063Z" fill="white"/>
<path d="M14.4201 125.303L14.5001 129.963L27.3501 129.733L27.4001 132.313L14.5501 132.543L14.6301 137.163L12.5401 137.203L12.3301 125.353L14.4201 125.313V125.303Z" fill="white"/>
<path d="M20.4001 115.033L13.8201 110.713L14.1901 107.863L22.9101 114.043L28.3701 114.753L28.0301 117.343L22.5701 116.633L12.5601 120.393L12.9301 117.533L20.3901 115.033H20.4001Z" fill="white"/>
<path d="M28.6601 88.1433L26.5601 93.9133L30.8801 95.4933L33.3401 88.7533L35.2901 89.4633L31.9401 98.6433L17.9001 93.5233L21.2201 84.4133L23.1901 85.1333L20.7601 91.8033L24.6401 93.2133L26.7401 87.4433L28.6701 88.1433H28.6601Z" fill="white"/>
<path d="M42.6701 75.2832L41.4201 77.5532L28.9201 78.2832L38.2101 83.3932L36.9601 85.6632L23.8701 78.4632L25.1201 76.1933L37.6601 75.4733L28.3401 70.3432L29.5801 68.0833L42.6701 75.2832Z" fill="white"/>
<path d="M45.6 60.0832L41.86 64.9532L45.51 67.7532L49.88 62.0632L51.52 63.3232L45.57 71.0732L33.72 61.9732L39.63 54.2832L41.29 55.5632L36.96 61.1932L40.23 63.7032L43.97 58.8332L45.6 60.0832Z" fill="white"/>
<path d="M54.2502 52.2432L52.1802 54.2632L56.2002 58.3832L54.3402 60.1932L43.9102 49.4932L47.6702 45.8232C48.2802 45.2232 48.9002 44.7632 49.5102 44.4332C50.1302 44.1032 50.7302 43.9132 51.3302 43.8632C51.9302 43.8132 52.5102 43.9032 53.0702 44.1432C53.6302 44.3732 54.1702 44.7632 54.6902 45.2932C55.3902 46.0132 55.8002 46.7732 55.9202 47.5932C56.0402 48.4132 55.9202 49.2532 55.5602 50.1132L62.3102 52.2332L62.4002 52.3332L60.4102 54.2732L54.2502 52.2432ZM50.7202 52.7632L52.6302 50.9032C52.9602 50.5832 53.2102 50.2532 53.3802 49.9232C53.5402 49.5932 53.6302 49.2632 53.6502 48.9432C53.6602 48.6232 53.6102 48.3132 53.4802 48.0232C53.3502 47.7232 53.1602 47.4532 52.9102 47.1932C52.6402 46.9232 52.3602 46.7132 52.0702 46.5632C51.7702 46.4132 51.4702 46.3432 51.1502 46.3432C50.8302 46.3432 50.5102 46.4232 50.1702 46.5832C49.8302 46.7432 49.4902 46.9932 49.1402 47.3432L47.2402 49.2032L50.7302 52.7932L50.7202 52.7632Z" fill="white"/>
<path d="M73.5901 41.6831C73.5901 41.9431 73.5301 42.2531 73.4501 42.6231C73.3701 42.9931 73.2101 43.3831 72.9701 43.8231C72.7401 44.2531 72.4101 44.7131 71.9901 45.1831C71.5701 45.6631 71.0201 46.1431 70.3401 46.6231C69.5801 47.1631 68.7801 47.5331 67.9601 47.7231C67.1401 47.9131 66.3201 47.9231 65.5101 47.7531C64.7001 47.5831 63.9101 47.2231 63.1401 46.6831C62.3701 46.1431 61.6601 45.4031 60.9901 44.4731L60.4201 43.6731C59.7601 42.7431 59.2901 41.8431 59.0001 40.9531C58.7101 40.0631 58.6001 39.2131 58.6801 38.4031C58.7501 37.5931 59.0101 36.8431 59.4401 36.1431C59.8701 35.4431 60.4801 34.8131 61.2701 34.2531C62.0101 33.7231 62.7301 33.3631 63.4201 33.1631C64.1101 32.9631 64.7701 32.9031 65.3901 32.9731C66.0101 33.0531 66.6101 33.2431 67.1601 33.5731C67.7201 33.8931 68.2301 34.3131 68.7101 34.8331L66.6401 36.3031C66.3601 36.0231 66.0701 35.7831 65.7601 35.6031C65.4501 35.4231 65.1301 35.3031 64.7901 35.2531C64.4501 35.2031 64.0901 35.2331 63.7101 35.3331C63.3301 35.4331 62.9401 35.6331 62.5201 35.9231C62.0201 36.2731 61.6601 36.6731 61.4201 37.1131C61.1901 37.5531 61.0701 38.0431 61.0801 38.5731C61.0801 39.1031 61.2201 39.6631 61.4601 40.2631C61.7101 40.8631 62.0601 41.4931 62.5301 42.1531L63.1101 42.9731C63.5901 43.6431 64.0801 44.1831 64.5901 44.5931C65.1001 45.0031 65.6201 45.2931 66.1401 45.4531C66.6601 45.6131 67.1801 45.6431 67.7001 45.5531C68.2201 45.4631 68.7201 45.2431 69.2101 44.8931C69.5701 44.6331 69.8701 44.3931 70.0901 44.1631C70.3201 43.9331 70.4901 43.7131 70.6201 43.5131C70.7501 43.3131 70.8401 43.1331 70.8901 42.9631C70.9401 42.7931 70.9801 42.6431 71.0001 42.5131L69.3001 40.1331L66.7901 41.9131L65.6501 40.3031L70.2701 37.0231L73.5901 41.6931V41.6831Z" fill="white"/>
<path d="M79.78 31.5931L79.68 23.7231L82.25 22.4331L82 33.1131L84.46 38.0331L82.13 39.2031L79.67 34.2831L70.96 28.0831L73.54 26.7931L79.78 31.5831V31.5931Z" fill="white"/>
<path d="M99.7001 16.5632L106.33 26.8432L108.11 14.7432L111.39 14.0332L114.55 28.6332L112.02 29.1832L110.98 24.3732L109.84 17.8832L107.96 30.0732L106.14 30.4632L99.4101 20.1532L101.05 26.5332L102.09 31.3432L99.5601 31.8932L96.4001 17.2932L99.6901 16.5832L99.7001 16.5632Z" fill="white"/>
<path d="M127.88 24.4532L122.1 24.6432L121.01 28.1632L118.31 28.2532L123.45 13.1332L125.78 13.0532L131.93 27.7932L129.22 27.8832L127.88 24.4432V24.4532ZM122.75 22.5332L127.08 22.3932L124.71 16.2732L122.75 22.5432V22.5332Z" fill="white"/>
<path d="M147.36 29.5331L144.78 29.2031L139.51 17.8431L138.17 28.3631L135.59 28.0331L137.48 13.2131L140.06 13.5431L145.34 24.9431L146.69 14.3831L149.25 14.7131L147.36 29.5331Z" fill="white"/>
<path d="M161.43 29.7132L155.89 28.0532L153.73 31.0332L151.14 30.2632L160.84 17.5732L163.07 18.2432L164.2 34.1832L161.6 33.4032L161.43 29.7232V29.7132ZM157.19 26.2532L161.34 27.4932L161.05 20.9332L157.2 26.2532H157.19Z" fill="white"/>
<path d="M178.54 38.7431C178.31 38.8631 178.01 38.9731 177.65 39.0731C177.29 39.1731 176.86 39.2331 176.37 39.2331C175.88 39.2331 175.32 39.1731 174.7 39.0331C174.08 38.8931 173.39 38.6431 172.64 38.2831C171.8 37.8731 171.09 37.3531 170.53 36.7231C169.96 36.0931 169.56 35.3831 169.32 34.5931C169.08 33.8031 169.01 32.9331 169.12 32.0031C169.23 31.0631 169.53 30.0831 170.02 29.0531L170.45 28.1631C170.94 27.1431 171.51 26.2831 172.15 25.6031C172.79 24.9231 173.48 24.4131 174.22 24.0931C174.96 23.7631 175.74 23.6231 176.57 23.6631C177.39 23.7031 178.24 23.9331 179.11 24.3531C179.93 24.7531 180.59 25.2031 181.1 25.7031C181.61 26.2131 181.98 26.7531 182.21 27.3431C182.44 27.9231 182.56 28.5431 182.54 29.1831C182.53 29.8231 182.41 30.4831 182.18 31.1431L179.89 30.0331C180 29.6531 180.07 29.2831 180.08 28.9331C180.09 28.5731 180.04 28.2331 179.92 27.9131C179.8 27.5931 179.6 27.2831 179.33 27.0031C179.06 26.7231 178.7 26.4731 178.24 26.2531C177.69 25.9931 177.17 25.8631 176.66 25.8731C176.16 25.8731 175.68 26.0131 175.22 26.2831C174.76 26.5431 174.33 26.9331 173.92 27.4331C173.51 27.9431 173.13 28.5531 172.78 29.2831L172.34 30.1931C171.98 30.9331 171.75 31.6231 171.63 32.2731C171.52 32.9231 171.51 33.5131 171.63 34.0431C171.74 34.5731 171.96 35.0431 172.29 35.4531C172.62 35.8631 173.06 36.2031 173.6 36.4631C174 36.6531 174.36 36.7931 174.67 36.8831C174.98 36.9731 175.26 37.0231 175.49 37.0331C175.73 37.0431 175.93 37.0331 176.1 37.0031C176.27 36.9731 176.42 36.9231 176.54 36.8831L177.81 34.2531L175.04 32.9131L175.9 31.1431L181 33.6031L178.51 38.7631L178.54 38.7431Z" fill="white"/>
<path d="M192.88 42.4631L187.81 39.0031L185.22 42.8031L191.14 46.8531L189.97 48.5631L181.9 43.0531L190.33 30.7131L198.34 36.1831L197.16 37.9131L191.3 33.9131L188.97 37.3231L194.04 40.7831L192.88 42.4731V42.4631Z" fill="white"/>
<path d="M206.02 42.5231L201.18 53.7631L212.22 48.5031L214.64 50.8331L204.27 61.5931L202.41 59.8031L205.83 56.2531L210.59 51.6831L199.42 56.9131L198.08 55.6231L202.89 44.2831L198.51 49.1931L195.09 52.7431L193.23 50.9531L203.6 40.1931L206.02 42.5331V42.5231Z" fill="white"/>
<path d="M217.92 68.5833L214.27 63.6433L210.57 66.3733L214.83 72.1433L213.16 73.3733L207.35 65.5133L219.37 56.6333L225.13 64.4333L223.45 65.6733L219.23 59.9633L215.91 62.4133L219.56 67.3533L217.91 68.5733L217.92 68.5833Z" fill="white"/>
<path d="M220.93 87.3433L219.72 85.0433L226 74.2133L216.62 79.1533L215.41 76.8533L228.63 69.8933L229.84 72.1933L223.53 83.0633L232.95 78.1033L234.15 80.3833L220.93 87.3433Z" fill="white"/>
<path d="M238.41 97.8331L236.9 93.4231L224.74 97.5831L223.91 95.1431L236.07 90.9831L234.57 86.6131L236.55 85.9331L240.39 97.1431L238.41 97.8231V97.8331Z" fill="white"/>
<path d="M233.28 120.363C233.58 120.333 233.84 120.253 234.07 120.143C234.29 120.033 234.49 119.843 234.66 119.583C234.83 119.323 234.98 118.983 235.12 118.553C235.25 118.123 235.38 117.573 235.51 116.903C235.64 116.173 235.81 115.493 236.02 114.863C236.23 114.233 236.48 113.683 236.8 113.213C237.11 112.743 237.49 112.353 237.93 112.063C238.37 111.763 238.9 111.583 239.5 111.513C240.1 111.443 240.66 111.513 241.19 111.713C241.72 111.913 242.2 112.223 242.62 112.643C243.04 113.063 243.39 113.583 243.66 114.213C243.94 114.833 244.12 115.543 244.2 116.323C244.29 117.163 244.26 117.923 244.09 118.613C243.92 119.303 243.66 119.903 243.29 120.413C242.93 120.913 242.48 121.323 241.96 121.633C241.44 121.943 240.87 122.123 240.25 122.193L239.96 119.623C240.32 119.583 240.65 119.493 240.94 119.343C241.23 119.193 241.47 118.993 241.67 118.743C241.87 118.483 242 118.173 242.09 117.813C242.17 117.443 242.19 117.023 242.13 116.543C242.08 116.083 241.98 115.703 241.84 115.373C241.7 115.053 241.53 114.793 241.32 114.593C241.11 114.393 240.88 114.253 240.61 114.173C240.35 114.093 240.07 114.073 239.78 114.103C239.23 114.163 238.8 114.473 238.49 115.033C238.18 115.593 237.93 116.423 237.74 117.533C237.59 118.393 237.4 119.153 237.17 119.793C236.94 120.443 236.66 120.983 236.33 121.433C236 121.883 235.61 122.223 235.16 122.473C234.71 122.723 234.19 122.883 233.6 122.943C232.97 123.013 232.4 122.943 231.87 122.763C231.34 122.573 230.88 122.263 230.48 121.843C230.08 121.423 229.75 120.893 229.49 120.263C229.23 119.633 229.06 118.913 228.97 118.113C228.89 117.403 228.91 116.683 229.03 115.973C229.15 115.253 229.37 114.603 229.7 114.013C230.03 113.423 230.47 112.923 231.01 112.523C231.56 112.123 232.22 111.873 233.01 111.793L233.3 114.373C232.83 114.423 232.44 114.553 232.12 114.753C231.8 114.953 231.55 115.213 231.37 115.533C231.19 115.843 231.07 116.203 231.02 116.613C230.97 117.023 230.96 117.453 231.02 117.903C231.12 118.803 231.38 119.453 231.79 119.863C232.2 120.273 232.71 120.443 233.31 120.383L233.28 120.363Z" fill="white"/>
<path d="M237.56 132.853L244.52 136.523L244.42 139.393L235.15 134.073L229.65 133.893L229.74 131.283L235.24 131.463L244.84 126.763L244.74 129.643L237.55 132.843L237.56 132.853Z" fill="white"/>
<path d="M231.42 150.793C231.72 150.843 231.99 150.853 232.24 150.803C232.49 150.753 232.73 150.633 232.97 150.443C233.21 150.243 233.45 149.963 233.7 149.583C233.95 149.203 234.23 148.713 234.54 148.113C234.87 147.453 235.23 146.843 235.61 146.303C235.99 145.763 236.39 145.303 236.82 144.943C237.25 144.583 237.72 144.323 238.23 144.163C238.74 144.003 239.29 143.983 239.89 144.083C240.48 144.193 241.01 144.413 241.46 144.753C241.91 145.093 242.28 145.523 242.56 146.053C242.84 146.573 243.03 147.173 243.11 147.853C243.2 148.533 243.17 149.253 243.03 150.023C242.88 150.853 242.63 151.573 242.27 152.193C241.91 152.813 241.49 153.313 241 153.693C240.51 154.073 239.97 154.333 239.38 154.483C238.79 154.623 238.2 154.643 237.58 154.533L238.04 151.983C238.4 152.043 238.73 152.053 239.05 151.993C239.37 151.933 239.66 151.813 239.92 151.623C240.18 151.433 240.4 151.173 240.59 150.843C240.77 150.513 240.91 150.113 240.99 149.633C241.07 149.183 241.09 148.783 241.05 148.433C241.01 148.083 240.92 147.783 240.77 147.533C240.63 147.283 240.44 147.083 240.21 146.933C239.98 146.783 239.72 146.683 239.43 146.633C238.88 146.533 238.38 146.713 237.93 147.163C237.47 147.613 237 148.343 236.5 149.343C236.11 150.133 235.71 150.793 235.31 151.353C234.91 151.903 234.48 152.353 234.03 152.683C233.58 153.013 233.11 153.243 232.61 153.353C232.11 153.463 231.56 153.463 230.98 153.353C230.36 153.243 229.83 153.023 229.37 152.683C228.92 152.343 228.56 151.923 228.3 151.403C228.03 150.883 227.87 150.283 227.8 149.613C227.73 148.933 227.77 148.193 227.91 147.403C228.04 146.693 228.26 146.013 228.57 145.363C228.88 144.713 229.28 144.143 229.77 143.673C230.25 143.193 230.82 142.843 231.46 142.613C232.1 142.383 232.81 142.343 233.59 142.483L233.13 145.043C232.67 144.963 232.25 144.973 231.89 145.073C231.53 145.183 231.21 145.353 230.95 145.603C230.69 145.853 230.47 146.163 230.3 146.533C230.13 146.903 230.01 147.323 229.93 147.773C229.77 148.663 229.83 149.363 230.11 149.873C230.39 150.383 230.83 150.693 231.42 150.803V150.793Z" fill="white"/>
<path d="M234.78 171.183L236.27 166.763L224.09 162.663L224.91 160.223L237.09 164.323L238.56 159.943L240.54 160.613L236.76 171.843L234.78 171.173V171.183Z" fill="white"/>
<path d="M222.96 181.583L225.73 176.103L221.63 174.033L218.4 180.433L216.55 179.503L220.95 170.783L234.29 177.523L229.92 186.183L228.05 185.243L231.25 178.903L227.57 177.043L224.8 182.523L222.97 181.603L222.96 181.583Z" fill="white"/>
<path d="M224.6 194.633L212.83 191.293L219.49 201.553L217.5 204.253L205.48 195.373L207.02 193.293L210.98 196.223L216.13 200.343L209.49 189.953L210.59 188.463L222.46 191.753L217.02 188.053L213.06 185.123L214.6 183.043L226.62 191.923L224.62 194.633H224.6Z" fill="white"/>
<path d="M60.5401 145.683V140.943C60.5401 140.493 60.7101 140.153 61.0501 139.753C65.5701 135.233 69.5801 130.553 73.3601 126.483C76.4101 123.093 78.5001 120.103 78.5001 118.013C78.5001 115.363 76.4701 113.493 73.4201 113.493C70.3701 113.493 68.3401 115.353 68.3401 118.123V119.253C68.3401 119.873 68.0001 120.213 67.3801 120.213H61.2801C60.6601 120.213 60.3201 119.873 60.3201 119.253V116.883C60.6601 110.613 66.1901 106.663 73.4201 106.663C81.6101 106.663 86.5701 111.683 86.5701 117.843C86.5701 121.113 84.8201 124.393 81.8301 128.063C78.9501 131.623 75.2801 135.293 71.3901 139.413C71.1601 139.583 71.2801 139.813 71.5601 139.813H86.3501C86.9701 139.813 87.3101 140.153 87.3101 140.773V145.683C87.3101 146.303 86.9701 146.643 86.3501 146.643H61.5101C60.8901 146.643 60.5501 146.303 60.5501 145.683H60.5401Z" fill="#2E343D"/>
<path d="M95.94 145.513L107.97 114.353C108.03 114.123 107.97 113.953 107.74 113.953H97.3C97.13 113.953 96.96 114.063 96.96 114.293V116.553C96.96 117.173 96.62 117.513 96 117.513H91.43C90.81 117.513 90.47 117.173 90.47 116.553L90.53 108.083C90.53 107.463 90.87 107.123 91.49 107.123H115.6C116.22 107.123 116.56 107.463 116.56 108.083V113.333C116.56 113.733 116.5 114.063 116.33 114.523L104.25 145.913C104.08 146.423 103.69 146.643 103.18 146.643H96.69C96.01 146.643 95.73 146.133 95.96 145.513H95.94Z" fill="#2E343D"/>
<path d="M119.65 134.333V119.433C119.65 111.583 124.79 106.673 133.09 106.673C141.39 106.673 146.58 111.583 146.58 119.433V134.333C146.58 142.293 141.39 147.263 133.09 147.263C124.79 147.263 119.65 142.293 119.65 134.333ZM138.62 134.733V119.203C138.62 115.703 136.47 113.503 133.09 113.503C129.71 113.503 127.61 115.703 127.61 119.203V134.733C127.61 138.233 129.76 140.433 133.09 140.433C136.42 140.433 138.62 138.233 138.62 134.733Z" fill="#2E343D"/>
<path d="M151.54 134.333V119.433C151.54 111.583 156.68 106.673 164.98 106.673C173.28 106.673 178.47 111.583 178.47 119.433V134.333C178.47 142.293 173.28 147.263 164.98 147.263C156.68 147.263 151.54 142.293 151.54 134.333ZM170.51 134.733V119.203C170.51 115.703 168.36 113.503 164.98 113.503C161.6 113.503 159.5 115.703 159.5 119.203V134.733C159.5 138.233 161.65 140.433 164.98 140.433C168.31 140.433 170.51 138.233 170.51 134.733Z" fill="#2E343D"/>
<path d="M188.92 107.123H195.3C195.92 107.123 196.26 107.463 196.26 108.083V145.683C196.26 146.303 195.92 146.643 195.3 146.643H189.26C188.64 146.643 188.3 146.303 188.3 145.683V114.913C188.3 114.683 188.13 114.513 187.91 114.573L182.94 115.593C182.32 115.703 181.87 115.363 181.87 114.743V110.453C181.87 109.943 182.1 109.553 182.6 109.383L187.74 107.353C188.14 107.183 188.47 107.123 188.93 107.123H188.92Z" fill="#2E343D"/>
<path d="M97.05 165.243C97 165.883 96.86 166.473 96.62 167.013C96.38 167.553 96.04 168.013 95.61 168.403C95.18 168.793 94.66 169.093 94.05 169.303C93.44 169.523 92.74 169.633 91.96 169.633C91.18 169.633 90.42 169.493 89.77 169.213C89.12 168.933 88.58 168.523 88.13 168.003C87.68 167.473 87.34 166.833 87.1 166.083C86.86 165.333 86.74 164.493 86.74 163.553V162.713C86.74 161.783 86.86 160.933 87.11 160.183C87.36 159.433 87.71 158.793 88.17 158.263C88.62 157.733 89.18 157.333 89.83 157.043C90.48 156.763 91.2 156.613 92 156.613C92.8 156.613 93.48 156.723 94.09 156.943C94.7 157.163 95.21 157.473 95.63 157.873C96.05 158.273 96.38 158.743 96.62 159.293C96.86 159.843 97.01 160.433 97.07 161.083H94.46C94.43 160.703 94.37 160.373 94.26 160.083C94.16 159.793 94.01 159.553 93.82 159.353C93.63 159.153 93.38 159.003 93.08 158.903C92.78 158.803 92.41 158.753 91.98 158.753C91.1 158.753 90.44 159.073 90.01 159.713C89.58 160.353 89.36 161.343 89.36 162.693V163.543C89.36 164.193 89.41 164.773 89.5 165.263C89.6 165.753 89.75 166.163 89.95 166.503C90.16 166.833 90.42 167.083 90.75 167.243C91.08 167.403 91.47 167.493 91.94 167.493C92.35 167.493 92.71 167.443 93.01 167.353C93.31 167.263 93.56 167.123 93.76 166.933C93.96 166.743 94.11 166.513 94.23 166.223C94.34 165.943 94.41 165.613 94.44 165.233H97.05V165.243Z" fill="#2E343D"/>
<path d="M106.38 163.973H101.37V167.363H107.25V169.463H98.76V156.803H107.23V158.913H101.37V161.933H106.38V163.973Z" fill="#2E343D"/>
<path d="M113.46 164.823H111.38V169.453H108.77V156.793H113.47C114.2 156.793 114.86 156.873 115.44 157.043C116.02 157.213 116.51 157.453 116.91 157.773C117.31 158.093 117.62 158.493 117.83 158.973C118.04 159.453 118.15 160.003 118.15 160.623C118.15 161.083 118.1 161.503 117.99 161.873C117.89 162.243 117.73 162.573 117.54 162.853C117.34 163.143 117.11 163.393 116.83 163.603C116.55 163.813 116.24 164.003 115.89 164.163L118.63 169.333V169.453H115.83L113.46 164.823ZM111.39 162.713H113.49C113.83 162.713 114.13 162.673 114.39 162.583C114.65 162.493 114.86 162.363 115.03 162.203C115.2 162.033 115.33 161.843 115.42 161.613C115.51 161.383 115.55 161.123 115.55 160.843C115.55 160.243 115.38 159.773 115.04 159.433C114.7 159.093 114.18 158.923 113.48 158.923H111.38V162.723L111.39 162.713Z" fill="#2E343D"/>
<path d="M129.24 158.913H125.36V169.463H122.75V158.913H118.92V156.803H129.23V158.913H129.24Z" fill="#2E343D"/>
<path d="M133.5 169.463H130.89V156.803H133.5V169.463Z" fill="#2E343D"/>
<path d="M143.53 164.283H138.52V169.453H135.91V156.793H144.15V158.903H138.52V162.173H143.53V164.273V164.283Z" fill="#2E343D"/>
<path d="M148.44 169.463H145.83V156.803H148.44V169.463Z" fill="#2E343D"/>
<path d="M158.48 163.973H153.47V167.363H159.35V169.463H150.86V156.803H159.33V158.913H153.47V161.933H158.48V163.973Z" fill="#2E343D"/>
<path d="M160.88 169.463V156.803H164.77C165.62 156.803 166.4 156.953 167.11 157.243C167.82 157.533 168.43 157.943 168.94 158.483C169.45 159.013 169.84 159.653 170.13 160.393C170.41 161.133 170.56 161.953 170.56 162.863V163.433C170.56 164.333 170.42 165.163 170.14 165.893C169.86 166.633 169.46 167.263 168.95 167.793C168.44 168.323 167.82 168.733 167.11 169.023C166.4 169.313 165.61 169.453 164.75 169.453H160.88V169.463ZM163.48 158.913V167.363H164.74C165.77 167.363 166.56 167.023 167.1 166.343C167.64 165.663 167.91 164.693 167.91 163.423V162.833C167.91 161.543 167.64 160.573 167.11 159.903C166.58 159.243 165.8 158.903 164.77 158.903H163.48V158.913Z" fill="#2E343D"/>
</svg>
