<svg width="259" height="261" viewBox="0 0 259 261" fill="none" xmlns="http://www.w3.org/2000/svg">
<path d="M130.54 0.00656032C59.26 -0.71344 0 57.9266 0 129.207C0 184.727 35.03 232.067 84.19 250.347V205.377C58.16 189.967 40.72 161.597 40.73 129.157C40.76 81.0366 79.82 41.4166 127.94 40.7466C177.38 40.0566 217.67 79.9266 217.67 129.207C217.67 161.627 200.23 189.977 174.21 205.377V250.347C223.37 232.067 258.4 184.737 258.4 129.207C258.41 58.2966 201.28 0.73656 130.54 0.00656032Z" fill="#515760"/>
<path d="M167.22 252.277V189.557C167.22 185.138 163.638 181.557 159.22 181.557H99.19C94.7717 181.557 91.19 185.138 91.19 189.557V252.277C91.19 256.695 94.7717 260.277 99.19 260.277H159.22C163.638 260.277 167.22 256.695 167.22 252.277Z" fill="#515760"/>
<path d="M103.22 96.4865V69.8065C103.22 69.4465 103.46 69.2065 103.82 69.2065H106.45C106.81 69.2065 107.05 69.4465 107.05 69.8065V96.4865C107.05 96.8465 106.81 97.0865 106.45 97.0865H103.82C103.46 97.0865 103.22 96.8465 103.22 96.4865Z" fill="black"/>
<path d="M112.3 89.6365V88.6765C112.3 88.3165 112.54 88.0765 112.9 88.0765H115.45C115.81 88.0765 116.05 88.3165 116.05 88.6765V89.4365C116.05 92.0665 118.48 94.0965 122.46 94.0965C126.44 94.0965 128 92.3065 128 89.9165C128 87.4065 125.85 86.2965 121.19 84.4165C116.65 82.6665 112.67 81.0665 112.67 76.2165C112.67 71.3665 116.21 68.8865 121.75 68.8865C127.72 68.8865 131.59 72.0765 131.59 76.8165V77.4165C131.59 77.7765 131.35 78.0165 130.99 78.0165H128.4C128.04 78.0165 127.8 77.8165 127.8 77.4965V77.0165C127.8 74.3465 125.61 72.1965 121.59 72.1965C118.28 72.1965 116.41 73.5865 116.41 76.1365C116.41 78.6865 118.48 79.6765 123.18 81.4765C127.6 83.1865 131.82 84.9365 131.82 89.7965C131.82 94.3365 128.2 97.4065 122.18 97.4065C116.16 97.4065 112.3 94.3365 112.3 89.6365Z" fill="black"/>
<path d="M136.24 87.8865V78.4065C136.24 72.7165 140.18 68.8865 146.08 68.8865C151.98 68.8865 155.96 72.7065 155.96 78.4065V87.8865C155.96 93.6165 152.02 97.4465 146.08 97.4465C140.14 97.4465 136.24 93.6265 136.24 87.8865ZM152.13 88.0465V78.3665C152.13 74.6665 149.7 72.1965 146.08 72.1965C142.46 72.1965 140.07 74.6665 140.07 78.3665V88.0465C140.07 91.7065 142.5 94.1365 146.08 94.1365C149.66 94.1365 152.13 91.7065 152.13 88.0465Z" fill="black"/>
<path d="M103.22 96.4865V69.8065C103.22 69.4465 103.46 69.2065 103.82 69.2065H106.45C106.81 69.2065 107.05 69.4465 107.05 69.8065V96.4865C107.05 96.8465 106.81 97.0865 106.45 97.0865H103.82C103.46 97.0865 103.22 96.8465 103.22 96.4865Z" fill="#2E343D"/>
<path d="M112.3 89.6365V88.6765C112.3 88.3165 112.54 88.0765 112.9 88.0765H115.45C115.81 88.0765 116.05 88.3165 116.05 88.6765V89.4365C116.05 92.0665 118.48 94.0965 122.46 94.0965C126.44 94.0965 128 92.3065 128 89.9165C128 87.4065 125.85 86.2965 121.19 84.4165C116.65 82.6665 112.67 81.0665 112.67 76.2165C112.67 71.3665 116.21 68.8865 121.75 68.8865C127.72 68.8865 131.59 72.0765 131.59 76.8165V77.4165C131.59 77.7765 131.35 78.0165 130.99 78.0165H128.4C128.04 78.0165 127.8 77.8165 127.8 77.4965V77.0165C127.8 74.3465 125.61 72.1965 121.59 72.1965C118.28 72.1965 116.41 73.5865 116.41 76.1365C116.41 78.6865 118.48 79.6765 123.18 81.4765C127.6 83.1865 131.82 84.9365 131.82 89.7965C131.82 94.3365 128.2 97.4065 122.18 97.4065C116.16 97.4065 112.3 94.3365 112.3 89.6365Z" fill="#2E343D"/>
<path d="M136.24 87.8865V78.4065C136.24 72.7165 140.18 68.8865 146.08 68.8865C151.98 68.8865 155.96 72.7065 155.96 78.4065V87.8865C155.96 93.6165 152.02 97.4465 146.08 97.4465C140.14 97.4465 136.24 93.6265 136.24 87.8865ZM152.13 88.0465V78.3665C152.13 74.6665 149.7 72.1965 146.08 72.1965C142.46 72.1965 140.07 74.6665 140.07 78.3665V88.0465C140.07 91.7065 142.5 94.1365 146.08 94.1365C149.66 94.1365 152.13 91.7065 152.13 88.0465Z" fill="#2E343D"/>
<path d="M98.62 119.547V136.537C98.62 142.747 93.43 146.817 85.92 146.817C78.41 146.817 73.5 142.757 73.5 136.707V135.407C73.5 134.787 73.84 134.447 74.46 134.447H80.5C81.12 134.447 81.46 134.677 81.46 135.007V135.627C81.46 138.107 83.27 139.977 85.92 139.977C88.57 139.977 90.66 138.117 90.66 135.457V130.267C90.66 129.987 90.49 129.867 90.26 130.097C88.45 131.567 86.31 132.017 84.16 132.017C79.7 132.017 75.92 129.927 73.88 125.977C72.92 124.167 72.53 121.967 72.53 119.487C72.53 117.227 72.92 115.257 73.6 113.617C75.52 109.217 79.81 106.447 85.51 106.447C91.21 106.447 95.73 109.267 97.59 114.017C98.27 115.657 98.61 117.577 98.61 119.547H98.62ZM90.61 119.267C90.61 117.967 90.38 116.787 89.88 115.827C89.09 114.247 87.68 113.347 85.59 113.347C83.5 113.347 82.15 114.307 81.36 115.827C80.8 116.787 80.51 118.027 80.51 119.387C80.51 120.747 80.79 122.097 81.41 123.117C82.31 124.587 83.67 125.377 85.53 125.377C87.56 125.377 88.97 124.587 89.76 123.067C90.38 121.997 90.61 120.527 90.61 119.287V119.267Z" fill="#2E343D"/>
<path d="M103.59 134.056V119.156C103.59 111.306 108.73 106.396 117.03 106.396C125.33 106.396 130.52 111.306 130.52 119.156V134.056C130.52 142.016 125.33 146.986 117.03 146.986C108.73 146.986 103.59 142.016 103.59 134.056ZM122.56 134.456V118.926C122.56 115.426 120.41 113.226 117.03 113.226C113.65 113.226 111.55 115.426 111.55 118.926V134.456C111.55 137.956 113.7 140.156 117.03 140.156C120.36 140.156 122.56 137.956 122.56 134.456Z" fill="#2E343D"/>
<path d="M135.77 134.056V119.156C135.77 111.306 140.91 106.396 149.21 106.396C157.51 106.396 162.7 111.306 162.7 119.156V134.056C162.7 142.016 157.51 146.986 149.21 146.986C140.91 146.986 135.77 142.016 135.77 134.056ZM154.74 134.456V118.926C154.74 115.426 152.59 113.226 149.21 113.226C145.83 113.226 143.73 115.426 143.73 118.926V134.456C143.73 137.956 145.88 140.156 149.21 140.156C152.54 140.156 154.74 137.956 154.74 134.456Z" fill="#2E343D"/>
<path d="M173.42 106.846H179.8C180.42 106.846 180.76 107.186 180.76 107.806V145.406C180.76 146.026 180.42 146.366 179.8 146.366H173.76C173.14 146.366 172.8 146.026 172.8 145.406V114.636C172.8 114.406 172.63 114.236 172.41 114.296L167.44 115.316C166.82 115.426 166.37 115.086 166.37 114.466V110.176C166.37 109.666 166.6 109.276 167.1 109.106L172.24 107.076C172.64 106.906 172.97 106.846 173.43 106.846H173.42Z" fill="#2E343D"/>
<path d="M124.89 241.456C123.54 241.456 122.49 240.366 121.82 239.546C116.24 232.736 112.37 230.446 110.05 229.086C108.3 228.056 105.85 227.246 106.35 225.136C106.45 224.726 106.5 224.316 106.61 223.946C107.38 221.386 109.06 218.806 111.22 219.036C112.12 219.136 113.32 219.526 114.69 220.236C118.98 222.466 121 225.156 122.51 227.076C123.54 225.346 125.69 222.066 129.7 216.996C139.45 204.696 149.06 199.536 150.89 198.626C151.17 198.486 151.49 198.396 151.81 198.386H151.96C152.94 198.386 152.92 198.976 153.3 199.886C153.67 200.796 154.35 201.826 153.64 202.506C151.62 204.486 148 208.336 142.27 215.426C136.56 222.486 133.29 229.076 130.9 233.886C128.48 238.756 128.21 241.446 125.95 241.446H124.88L124.89 241.456Z" fill="white"/>
<path d="M46.73 200.086C47.74 199.096 48.78 198.406 49.83 197.996C50.89 197.596 51.91 197.466 52.91 197.616L52.55 194.386L54.81 194.536L55.23 198.566C55.58 198.806 55.93 199.096 56.26 199.436C56.9 200.086 57.36 200.806 57.65 201.576C57.94 202.356 58.05 203.156 57.99 203.986C57.93 204.816 57.68 205.656 57.25 206.506C56.82 207.356 56.2 208.176 55.38 208.966L54.84 209.496C54.03 210.286 53.19 210.896 52.33 211.306C51.47 211.716 50.63 211.946 49.8 211.996C48.97 212.046 48.17 211.916 47.4 211.606C46.63 211.296 45.93 210.816 45.29 210.166C44.64 209.496 44.17 208.776 43.87 207.996C43.58 207.216 43.46 206.406 43.53 205.576C43.6 204.746 43.86 203.906 44.29 203.066C44.73 202.226 45.35 201.406 46.17 200.616L46.71 200.086H46.73ZM48 202.496C46.8 203.666 46.1 204.786 45.92 205.846C45.74 206.906 46.05 207.846 46.85 208.666C47.24 209.066 47.66 209.346 48.13 209.506C48.6 209.666 49.09 209.706 49.62 209.626C50.15 209.546 50.7 209.346 51.27 209.016C51.85 208.686 52.43 208.236 53.03 207.656L53.59 207.116C54.19 206.536 54.66 205.956 55 205.386C55.34 204.816 55.56 204.266 55.65 203.736C55.74 203.206 55.71 202.706 55.56 202.236C55.41 201.766 55.14 201.326 54.75 200.926C53.94 200.096 53.01 199.766 51.95 199.936C50.89 200.106 49.76 200.776 48.55 201.946L47.99 202.486L48 202.496Z" fill="white"/>
<path d="M30.98 192.157L39.09 186.317C39.78 185.817 40.48 185.497 41.17 185.357C41.86 185.217 42.53 185.227 43.18 185.387C43.83 185.547 44.43 185.837 45 186.257C45.57 186.677 46.08 187.207 46.53 187.837C47 188.487 47.34 189.147 47.57 189.827C47.79 190.507 47.88 191.177 47.82 191.827C47.76 192.487 47.55 193.117 47.2 193.717C46.84 194.317 46.32 194.877 45.62 195.367L37.51 201.207L36 199.107L44.11 193.267C44.54 192.957 44.88 192.627 45.11 192.287C45.34 191.947 45.48 191.597 45.54 191.237C45.59 190.877 45.56 190.517 45.44 190.147C45.32 189.777 45.13 189.407 44.86 189.037C44.59 188.667 44.3 188.367 43.99 188.127C43.68 187.897 43.34 187.747 42.98 187.687C42.62 187.627 42.25 187.657 41.85 187.767C41.45 187.877 41.04 188.087 40.61 188.407L32.5 194.247L30.99 192.147L30.98 192.157Z" fill="white"/>
<path d="M34.2902 174.567L36.9602 179.697L40.6102 179.167L41.8602 181.557L26.0002 183.447L24.9202 181.377L35.5702 169.467L36.8202 171.867L34.3002 174.557L34.2902 174.567ZM34.7702 180.017L32.7702 176.177L28.2702 180.957L34.7702 180.017Z" fill="white"/>
<path d="M31.7902 165.096L29.5102 158.706L31.4602 158.006L34.6102 166.836L20.5402 171.856L19.6702 169.406L31.7902 165.076V165.096Z" fill="white"/>
<path d="M30.02 152.096L30.64 154.606L16.14 158.206L15.52 155.696L30.02 152.096Z" fill="white"/>
<path d="M14.8 139.086L15.45 143.696L28.17 141.896L28.53 144.446L15.81 146.246L16.46 150.816L14.39 151.106L12.73 139.366L14.8 139.076V139.086Z" fill="white"/>
<path d="M19.49 129.216L12.35 125.896L12.3 123.026L21.82 127.876L27.32 127.786L27.36 130.396L21.86 130.486L12.5 135.656L12.45 132.776L19.47 129.226L19.49 129.216Z" fill="white"/>
<path d="M26.6901 104.526L25.5101 110.196L28.6701 112.096L28.1201 114.736L14.6501 106.156L15.1301 103.876L30.9101 101.396L30.3601 104.046L26.7001 104.526H26.6901ZM23.6001 109.046L24.4901 104.806L17.9801 105.656L23.6001 109.046Z" fill="white"/>
<path d="M30.8501 90.1163C30.5701 90.0163 30.3001 89.9663 30.0501 89.9663C29.8001 89.9663 29.5401 90.0463 29.2701 90.1963C29.0001 90.3463 28.7101 90.5863 28.4001 90.9163C28.0901 91.2463 27.7301 91.6763 27.3201 92.2163C26.8801 92.8163 26.4201 93.3463 25.9601 93.8163C25.5001 94.2863 25.0201 94.6663 24.5301 94.9463C24.0401 95.2263 23.5301 95.4063 23.0001 95.4763C22.4701 95.5463 21.9201 95.4763 21.3501 95.2663C20.7801 95.0563 20.3101 94.7463 19.9201 94.3363C19.5301 93.9263 19.2401 93.4363 19.0601 92.8663C18.8701 92.3063 18.7901 91.6763 18.8201 90.9963C18.8501 90.3163 19.0001 89.6063 19.2701 88.8663C19.5601 88.0763 19.9301 87.4063 20.3901 86.8563C20.8501 86.3063 21.3501 85.8863 21.9001 85.5963C22.4501 85.3063 23.0301 85.1363 23.6301 85.0963C24.2301 85.0563 24.8301 85.1363 25.4101 85.3563L24.5201 87.7863C24.1801 87.6663 23.8501 87.5963 23.5201 87.6063C23.2001 87.6063 22.8901 87.6763 22.6001 87.8263C22.3101 87.9663 22.0501 88.1863 21.8101 88.4763C21.5701 88.7663 21.3701 89.1463 21.2001 89.5963C21.0401 90.0263 20.9601 90.4163 20.9401 90.7663C20.9201 91.1163 20.9601 91.4263 21.0601 91.6963C21.1601 91.9663 21.3101 92.1963 21.5101 92.3863C21.7101 92.5763 21.9501 92.7163 22.2301 92.8163C22.7501 93.0063 23.2701 92.9163 23.8001 92.5563C24.3301 92.1863 24.9201 91.5563 25.5801 90.6563C26.1001 89.9463 26.6101 89.3563 27.1001 88.8863C27.5901 88.4063 28.0901 88.0463 28.5801 87.7963C29.0801 87.5463 29.5801 87.4063 30.1001 87.3863C30.6101 87.3663 31.1501 87.4563 31.7101 87.6563C32.3001 87.8763 32.7901 88.1863 33.1801 88.5863C33.5701 88.9963 33.8501 89.4763 34.0201 90.0263C34.1901 90.5763 34.2601 91.1963 34.2101 91.8763C34.1601 92.5563 34.0001 93.2763 33.7201 94.0363C33.4701 94.7063 33.1401 95.3463 32.7201 95.9363C32.3001 96.5263 31.8101 97.0163 31.2501 97.3963C30.6901 97.7863 30.0801 98.0363 29.4101 98.1463C28.7401 98.2663 28.0301 98.1863 27.2901 97.9163L28.1801 95.4763C28.6201 95.6363 29.0301 95.6963 29.4101 95.6563C29.7901 95.6163 30.1201 95.4963 30.4301 95.2963C30.7301 95.0963 31.0001 94.8263 31.2301 94.4863C31.4601 94.1463 31.6501 93.7663 31.8101 93.3363C32.1201 92.4863 32.1801 91.7863 31.9901 91.2363C31.8001 90.6863 31.4201 90.3063 30.8601 90.0963L30.8501 90.1163Z" fill="white"/>
<path d="M37.0102 77.2464C36.7402 77.1064 36.4902 77.0164 36.2402 76.9864C35.9902 76.9564 35.7202 76.9964 35.4402 77.1164C35.1502 77.2364 34.8302 77.4264 34.4802 77.7164C34.1302 77.9964 33.7102 78.3764 33.2302 78.8564C32.7102 79.3864 32.1902 79.8564 31.6702 80.2564C31.1502 80.6564 30.6202 80.9664 30.1002 81.1864C29.5802 81.3964 29.0502 81.5064 28.5202 81.5064C27.9902 81.5064 27.4502 81.3564 26.9102 81.0764C26.3802 80.7964 25.9502 80.4264 25.6202 79.9564C25.2902 79.4964 25.0702 78.9664 24.9602 78.3864C24.8502 77.8064 24.8602 77.1764 24.9802 76.5064C25.1002 75.8364 25.3502 75.1564 25.7102 74.4564C26.1002 73.7164 26.5602 73.0964 27.0902 72.6164C27.6202 72.1364 28.1702 71.7864 28.7602 71.5764C29.3402 71.3664 29.9402 71.2764 30.5402 71.3164C31.1402 71.3564 31.7202 71.5164 32.2702 71.8164L31.0602 74.1064C30.7402 73.9364 30.4202 73.8264 30.1002 73.7864C29.7802 73.7464 29.4602 73.7764 29.1602 73.8764C28.8502 73.9764 28.5602 74.1564 28.2902 74.4164C28.0102 74.6764 27.7602 75.0164 27.5402 75.4464C27.3302 75.8564 27.1902 76.2264 27.1202 76.5664C27.0502 76.9064 27.0502 77.2264 27.1202 77.5064C27.1802 77.7864 27.3002 78.0364 27.4702 78.2464C27.6402 78.4564 27.8602 78.6364 28.1202 78.7664C28.6102 79.0264 29.1402 79.0064 29.7102 78.7164C30.2802 78.4264 30.9602 77.8764 31.7402 77.0764C32.3502 76.4464 32.9302 75.9264 33.4902 75.5264C34.0402 75.1264 34.5802 74.8264 35.1102 74.6464C35.6402 74.4664 36.1602 74.3964 36.6702 74.4464C37.1802 74.4964 37.7002 74.6564 38.2302 74.9364C38.7902 75.2264 39.2302 75.6064 39.5602 76.0564C39.8902 76.5164 40.1002 77.0264 40.2002 77.5964C40.3002 78.1664 40.2702 78.7864 40.1302 79.4564C39.9902 80.1264 39.7302 80.8164 39.3502 81.5264C39.0102 82.1664 38.6002 82.7464 38.1002 83.2664C37.6002 83.7964 37.0502 84.2064 36.4402 84.5164C35.8302 84.8264 35.1902 84.9864 34.5102 85.0164C33.8302 85.0364 33.1402 84.8664 32.4402 84.4964L33.6502 82.1964C34.0702 82.4164 34.4602 82.5364 34.8402 82.5464C35.2202 82.5464 35.5702 82.4864 35.9002 82.3264C36.2302 82.1664 36.5302 81.9364 36.8002 81.6364C37.0702 81.3364 37.3202 80.9764 37.5302 80.5764C37.9502 79.7764 38.1102 79.0964 38.0002 78.5164C37.8902 77.9464 37.5702 77.5164 37.0302 77.2364L37.0102 77.2464Z" fill="white"/>
<path d="M37.7102 56.3064L45.8102 62.1664C46.5002 62.6664 47.0202 63.2264 47.3702 63.8364C47.7202 64.4464 47.9202 65.0864 47.9702 65.7464C48.0202 66.4064 47.9402 67.0764 47.7102 67.7564C47.4902 68.4264 47.1502 69.0864 46.7002 69.7064C46.2302 70.3564 45.7102 70.8964 45.1402 71.3164C44.5702 71.7364 43.9602 72.0264 43.3202 72.1764C42.6802 72.3264 42.0102 72.3264 41.3302 72.1764C40.6402 72.0264 39.9602 71.6964 39.2602 71.1964L31.1602 65.3364L32.6802 63.2464L40.7802 69.1064C41.2102 69.4164 41.6302 69.6364 42.0202 69.7464C42.4202 69.8564 42.7902 69.8864 43.1502 69.8264C43.5102 69.7664 43.8402 69.6164 44.1602 69.3864C44.4702 69.1564 44.7602 68.8564 45.0302 68.4864C45.3002 68.1164 45.4902 67.7464 45.6202 67.3664C45.7402 66.9964 45.7802 66.6264 45.7202 66.2764C45.6702 65.9164 45.5202 65.5764 45.2902 65.2364C45.0602 64.8964 44.7302 64.5664 44.3002 64.2564L36.2002 58.3964L37.7202 56.3064H37.7102Z" fill="white"/>
<path d="M51.9901 54.2066L49.9801 56.2866L54.1201 60.2866L52.3101 62.1566L41.5701 51.7666L45.2201 47.9866C45.8101 47.3766 46.4101 46.8966 47.0201 46.5466C47.6301 46.1966 48.2301 45.9966 48.8201 45.9266C49.4101 45.8566 50.0001 45.9266 50.5701 46.1566C51.1401 46.3766 51.6901 46.7366 52.2201 47.2566C52.9401 47.9466 53.3701 48.7066 53.5201 49.5166C53.6701 50.3366 53.5701 51.1766 53.2401 52.0466L60.0501 53.9666L60.1501 54.0566L58.2201 56.0566L52.0001 54.2066H51.9901ZM48.4801 54.8366L50.3401 52.9166C50.6601 52.5866 50.9001 52.2466 51.0601 51.9066C51.2101 51.5666 51.2901 51.2466 51.3001 50.9266C51.3001 50.6066 51.2401 50.2966 51.1001 50.0066C50.9601 49.7166 50.7701 49.4366 50.5101 49.1866C50.2301 48.9166 49.9501 48.7166 49.6501 48.5766C49.3501 48.4366 49.0401 48.3766 48.7301 48.3866C48.4101 48.3866 48.0901 48.4866 47.7601 48.6566C47.4301 48.8266 47.0901 49.0866 46.7501 49.4466L44.9001 51.3566L48.5001 54.8366H48.4801Z" fill="white"/>
<path d="M66.8201 44.2964L62.2401 47.8364L63.4101 51.3264L61.2801 52.9764L56.6001 37.7064L58.4401 36.2764L72.0601 44.6264L69.9201 46.2864L66.8201 44.2864V44.2964ZM61.5401 45.7364L64.9601 43.0864L59.4501 39.5064L61.5301 45.7364H61.5401Z" fill="white"/>
<path d="M84.6901 37.4765L82.4201 38.7365L71.4501 32.6965L76.5901 41.9665L74.3201 43.2265L67.0701 30.1665L69.3401 28.9065L80.3501 34.9665L75.1901 25.6665L77.4401 24.4165L84.6901 37.4765Z" fill="white"/>
<path d="M97.3901 27.2965C97.5801 28.0065 97.6501 28.6965 97.6101 29.3765C97.5701 30.0565 97.4001 30.6865 97.1001 31.2765C96.8001 31.8665 96.3701 32.4065 95.8001 32.8865C95.2301 33.3665 94.5201 33.7665 93.6601 34.0865C92.8001 34.4065 91.9601 34.5365 91.1501 34.4865C90.3401 34.4365 89.5801 34.2065 88.8801 33.8165C88.1801 33.4265 87.5401 32.8665 86.9801 32.1565C86.4201 31.4365 85.9501 30.5765 85.5701 29.5565L85.1501 28.4165C84.7801 27.4065 84.5701 26.4465 84.5401 25.5265C84.5101 24.6065 84.6301 23.7665 84.9201 23.0065C85.2101 22.2465 85.6501 21.5765 86.2401 20.9965C86.8301 20.4165 87.5701 19.9665 88.4501 19.6465C89.2801 19.3365 90.0701 19.1865 90.8001 19.1865C91.5301 19.1865 92.2001 19.3265 92.8001 19.5865C93.4001 19.8465 93.9401 20.2265 94.4101 20.7265C94.8801 21.2265 95.2801 21.8065 95.6101 22.4765L93.1901 23.3765C92.9701 22.9565 92.7401 22.5865 92.4801 22.2765C92.2201 21.9665 91.9301 21.7365 91.6101 21.5765C91.2901 21.4165 90.9301 21.3365 90.5301 21.3365C90.1301 21.3365 89.6801 21.4365 89.1801 21.6165C88.6301 21.8165 88.1801 22.1065 87.8501 22.4665C87.5101 22.8265 87.2801 23.2565 87.1501 23.7565C87.0201 24.2565 86.9901 24.8165 87.0701 25.4465C87.1501 26.0765 87.3201 26.7565 87.5901 27.4965L88.0201 28.6465C88.2801 29.3465 88.5801 29.9565 88.9101 30.4865C89.2401 31.0165 89.6101 31.4265 90.0201 31.7465C90.4301 32.0565 90.8701 32.2565 91.3601 32.3265C91.8501 32.3965 92.3701 32.3265 92.9401 32.1265C93.4701 31.9365 93.8901 31.7065 94.2101 31.4465C94.5301 31.1865 94.7601 30.8965 94.9101 30.5765C95.0601 30.2565 95.1401 29.8865 95.1401 29.4965C95.1401 29.0965 95.0901 28.6665 94.9801 28.1965L97.4101 27.2965H97.3901Z" fill="white"/>
<path d="M109.46 22.6164L103.47 23.9364L104.46 28.4264L111.47 26.8864L111.92 28.9064L102.38 31.0064L99.1699 16.4164L108.64 14.3264L109.09 16.3664L102.15 17.8964L103.04 21.9264L109.03 20.6064L109.47 22.6064L109.46 22.6164Z" fill="white"/>
<path d="M125.28 12.6865L129.4 24.2065L133.88 12.8265L137.24 12.8765L137 27.8165L134.41 27.7765L134.49 22.8465L134.85 16.2665L130.25 27.7065L128.39 27.6765L124.17 16.1065L124.32 22.6865L124.24 27.6065L121.65 27.5665L121.89 12.6265L125.26 12.6765L125.28 12.6865Z" fill="white"/>
<path d="M150.01 26.3765L144.31 25.3565L142.5 28.5665L139.84 28.0865L148.03 14.3765L150.32 14.7865L153.25 30.4965L150.58 30.0165L149.99 26.3765H150.01ZM145.4 23.4165L149.66 24.1765L148.62 17.6965L145.39 23.4165H145.4Z" fill="white"/>
<path d="M167.04 35.0764L164.58 34.2364L161.73 22.0464L158.29 32.0764L155.83 31.2364L160.68 17.1064L163.14 17.9464L166 30.1864L169.46 20.1264L171.9 20.9664L167.05 35.0964L167.04 35.0764Z" fill="white"/>
<path d="M179.92 37.6164L174.8 34.9164L172.1 37.4264L169.71 36.1664L181.68 25.5864L183.74 26.6764L181.76 42.5264L179.36 41.2564L179.9 37.6064L179.92 37.6164ZM176.43 33.3964L180.26 35.4164L181.24 28.9264L176.43 33.3964Z" fill="white"/>
<path d="M194.22 49.1365C193.97 49.2065 193.66 49.2665 193.29 49.2965C192.92 49.3365 192.49 49.2965 192 49.2165C191.52 49.1265 190.98 48.9665 190.4 48.7165C189.81 48.4665 189.18 48.0965 188.51 47.6065C187.75 47.0565 187.16 46.4165 186.72 45.6865C186.28 44.9665 186.01 44.1865 185.92 43.3665C185.83 42.5465 185.92 41.6865 186.2 40.7765C186.48 39.8765 186.95 38.9665 187.63 38.0465L188.21 37.2565C188.88 36.3465 189.6 35.6065 190.35 35.0565C191.1 34.5065 191.88 34.1365 192.67 33.9465C193.46 33.7665 194.25 33.7665 195.06 33.9465C195.86 34.1365 196.65 34.5165 197.43 35.0865C198.16 35.6265 198.73 36.1865 199.14 36.7765C199.55 37.3665 199.81 37.9765 199.94 38.5865C200.06 39.2065 200.06 39.8265 199.93 40.4565C199.8 41.0865 199.56 41.7065 199.22 42.3265L197.17 40.8165C197.35 40.4665 197.48 40.1165 197.56 39.7665C197.64 39.4165 197.65 39.0665 197.59 38.7265C197.53 38.3865 197.39 38.0565 197.18 37.7265C196.97 37.3965 196.66 37.0865 196.25 36.7865C195.76 36.4265 195.27 36.2065 194.77 36.1165C194.28 36.0365 193.78 36.0765 193.28 36.2565C192.78 36.4265 192.29 36.7265 191.8 37.1565C191.31 37.5765 190.82 38.1165 190.34 38.7665L189.74 39.5765C189.25 40.2365 188.9 40.8765 188.66 41.4965C188.43 42.1165 188.32 42.6865 188.33 43.2365C188.34 43.7765 188.47 44.2865 188.72 44.7465C188.97 45.2065 189.34 45.6165 189.82 45.9765C190.18 46.2365 190.5 46.4465 190.79 46.5865C191.08 46.7265 191.34 46.8265 191.57 46.8865C191.8 46.9465 192 46.9765 192.18 46.9665C192.36 46.9665 192.51 46.9465 192.64 46.9265L194.37 44.5665L191.89 42.7465L193.06 41.1565L197.63 44.5065L194.24 49.1265L194.22 49.1365Z" fill="white"/>
<path d="M206.91 54.6264L202.51 50.3464L199.3 53.6364L204.44 58.6464L202.99 60.1264L195.99 53.3064L206.42 42.6064L213.37 49.3764L211.91 50.8764L206.82 45.9164L203.94 48.8664L208.34 53.1464L206.91 54.6164V54.6264Z" fill="white"/>
<path d="M219.14 56.0765L212.53 66.3765L224.28 62.9765L226.29 65.6665L214.31 74.5965L212.76 72.5265L216.71 69.5865L222.15 65.8565L210.28 69.1965L209.17 67.7065L215.76 57.2965L210.64 61.4365L206.69 64.3765L205.14 62.3065L217.12 53.3765L219.13 56.0765H219.14Z" fill="white"/>
<path d="M226.19 82.7665L223.34 77.3265L219.27 79.4565L222.6 85.8165L220.76 86.7765L216.23 78.1165L229.47 71.1865L233.97 79.7765L232.12 80.7465L228.83 74.4565L225.18 76.3665L228.03 81.8065L226.21 82.7565L226.19 82.7665Z" fill="white"/>
<path d="M226 100.837L225.14 98.3865L232.93 88.5865L222.93 92.1065L222.07 89.6565L236.16 84.6965L237.02 87.1465L229.2 96.9865L239.24 93.4465L240.1 95.8765L226.01 100.837H226Z" fill="white"/>
<path d="M241.61 112.656L240.71 108.086L228.1 110.556L227.6 108.026L240.21 105.556L239.32 101.026L241.37 100.626L243.65 112.256L241.6 112.656H241.61Z" fill="white"/>
<path d="M233.56 132.216C233.86 132.216 234.13 132.176 234.37 132.096C234.61 132.016 234.83 131.856 235.03 131.616C235.23 131.386 235.43 131.066 235.62 130.646C235.81 130.236 236.01 129.706 236.22 129.056C236.44 128.346 236.7 127.696 236.98 127.096C237.26 126.496 237.59 125.986 237.96 125.556C238.33 125.126 238.75 124.796 239.23 124.556C239.71 124.316 240.25 124.206 240.86 124.216C241.46 124.216 242.01 124.366 242.52 124.626C243.02 124.886 243.45 125.256 243.82 125.726C244.18 126.196 244.46 126.756 244.65 127.416C244.84 128.066 244.94 128.786 244.92 129.576C244.91 130.416 244.77 131.176 244.52 131.836C244.27 132.506 243.93 133.066 243.5 133.516C243.08 133.966 242.59 134.316 242.03 134.556C241.47 134.796 240.89 134.906 240.26 134.896L240.3 132.306C240.66 132.306 241 132.266 241.3 132.156C241.61 132.046 241.87 131.876 242.1 131.646C242.33 131.416 242.5 131.126 242.63 130.776C242.76 130.426 242.83 130.006 242.84 129.516C242.84 129.056 242.8 128.656 242.71 128.326C242.61 127.986 242.47 127.706 242.29 127.486C242.11 127.256 241.89 127.096 241.64 126.986C241.39 126.876 241.12 126.816 240.82 126.816C240.27 126.816 239.8 127.066 239.42 127.576C239.04 128.096 238.69 128.886 238.36 129.956C238.1 130.796 237.81 131.516 237.5 132.126C237.19 132.736 236.84 133.246 236.45 133.646C236.06 134.046 235.63 134.346 235.15 134.536C234.67 134.726 234.13 134.816 233.54 134.806C232.91 134.796 232.35 134.666 231.85 134.406C231.35 134.146 230.93 133.786 230.58 133.316C230.23 132.846 229.97 132.286 229.8 131.626C229.62 130.966 229.54 130.236 229.55 129.426C229.56 128.706 229.67 128.006 229.88 127.306C230.09 126.616 230.39 125.986 230.79 125.446C231.19 124.896 231.69 124.456 232.28 124.126C232.87 123.796 233.57 123.636 234.36 123.656L234.32 126.256C233.85 126.256 233.44 126.326 233.1 126.486C232.76 126.646 232.48 126.876 232.26 127.156C232.04 127.446 231.88 127.786 231.77 128.176C231.66 128.566 231.61 128.996 231.6 129.456C231.59 130.356 231.76 131.046 232.12 131.506C232.48 131.966 232.96 132.206 233.56 132.216Z" fill="white"/>
<path d="M236.56 144.136L243.1 148.526L242.7 151.376L234.04 145.106L228.59 144.346L228.95 141.766L234.4 142.526L244.45 138.866L244.05 141.726L236.56 144.146V144.136Z" fill="white"/>
<path d="M228.86 160.326C229.15 160.406 229.42 160.436 229.67 160.416C229.92 160.396 230.17 160.296 230.43 160.126C230.69 159.956 230.96 159.696 231.24 159.346C231.53 158.996 231.85 158.536 232.22 157.966C232.62 157.336 233.03 156.776 233.46 156.266C233.89 155.756 234.33 155.346 234.8 155.026C235.27 154.706 235.76 154.496 236.28 154.386C236.8 154.276 237.35 154.306 237.94 154.466C238.52 154.626 239.02 154.906 239.44 155.286C239.86 155.666 240.18 156.136 240.41 156.686C240.64 157.236 240.76 157.846 240.79 158.526C240.81 159.206 240.71 159.926 240.5 160.686C240.27 161.496 239.95 162.186 239.53 162.766C239.11 163.346 238.64 163.796 238.12 164.136C237.59 164.466 237.03 164.676 236.43 164.766C235.83 164.856 235.24 164.816 234.64 164.646L235.34 162.156C235.69 162.256 236.03 162.286 236.35 162.266C236.67 162.246 236.97 162.146 237.25 161.986C237.53 161.826 237.77 161.586 237.99 161.276C238.2 160.966 238.38 160.576 238.51 160.116C238.63 159.676 238.69 159.276 238.68 158.926C238.68 158.576 238.61 158.266 238.49 158.006C238.37 157.746 238.21 157.526 237.99 157.356C237.78 157.186 237.53 157.056 237.24 156.976C236.71 156.826 236.19 156.956 235.69 157.356C235.19 157.756 234.65 158.436 234.05 159.386C233.58 160.126 233.12 160.756 232.67 161.266C232.21 161.776 231.75 162.176 231.27 162.466C230.79 162.756 230.3 162.926 229.79 162.996C229.28 163.056 228.74 163.006 228.16 162.846C227.55 162.676 227.04 162.406 226.63 162.026C226.21 161.646 225.9 161.196 225.69 160.646C225.48 160.106 225.37 159.496 225.36 158.816C225.36 158.136 225.46 157.406 225.68 156.626C225.87 155.936 226.16 155.276 226.54 154.656C226.92 154.036 227.37 153.516 227.9 153.086C228.43 152.656 229.02 152.366 229.68 152.196C230.34 152.026 231.05 152.056 231.81 152.266L231.11 154.766C230.66 154.636 230.24 154.606 229.87 154.676C229.5 154.746 229.17 154.886 228.88 155.116C228.59 155.336 228.35 155.626 228.15 155.976C227.95 156.326 227.78 156.726 227.66 157.166C227.41 158.036 227.41 158.736 227.64 159.276C227.87 159.816 228.27 160.166 228.85 160.326H228.86Z" fill="white"/>
<path d="M230.72 179.987L232.59 175.717L220.82 170.567L221.85 168.207L233.62 173.357L235.47 169.127L237.39 169.967L232.64 180.827L230.72 179.987Z" fill="white"/>
<path d="M218.62 188.446L221.8 183.196L217.87 180.816L214.15 186.946L212.38 185.866L217.45 177.516L230.22 185.266L225.19 193.556L223.4 192.466L227.08 186.396L223.55 184.256L220.37 189.506L218.62 188.446Z" fill="white"/>
<path d="M219.96 200.687L208.44 196.567L214.39 207.257L212.22 209.817L200.83 200.157L202.5 198.187L206.26 201.377L211.12 205.837L205.19 195.027L206.39 193.607L218.01 197.687L212.83 193.627L209.07 190.437L210.74 188.467L222.13 198.127L219.95 200.697L219.96 200.687Z" fill="white"/>
<path d="M97.05 164.967C97 165.607 96.86 166.197 96.62 166.737C96.38 167.277 96.04 167.737 95.61 168.127C95.18 168.517 94.66 168.817 94.05 169.027C93.44 169.247 92.74 169.357 91.96 169.357C91.18 169.357 90.42 169.217 89.77 168.937C89.12 168.657 88.58 168.247 88.13 167.727C87.68 167.197 87.34 166.557 87.1 165.807C86.86 165.057 86.74 164.217 86.74 163.277V162.447C86.74 161.517 86.86 160.667 87.11 159.917C87.36 159.167 87.71 158.527 88.17 157.997C88.62 157.467 89.18 157.067 89.83 156.777C90.48 156.497 91.2 156.347 92 156.347C92.8 156.347 93.48 156.457 94.09 156.687C94.7 156.907 95.21 157.217 95.63 157.617C96.05 158.017 96.38 158.487 96.62 159.037C96.86 159.587 97.01 160.177 97.07 160.827H94.46C94.43 160.447 94.37 160.117 94.26 159.827C94.16 159.537 94.01 159.297 93.82 159.097C93.63 158.897 93.38 158.747 93.08 158.647C92.78 158.547 92.41 158.497 91.98 158.497C91.1 158.497 90.44 158.817 90.01 159.457C89.58 160.097 89.36 161.087 89.36 162.437V163.287C89.36 163.947 89.41 164.517 89.5 165.007C89.6 165.497 89.75 165.907 89.95 166.237C90.16 166.567 90.42 166.817 90.75 166.977C91.08 167.137 91.47 167.227 91.94 167.227C92.35 167.227 92.71 167.177 93.01 167.087C93.31 166.997 93.56 166.857 93.76 166.667C93.96 166.477 94.11 166.247 94.23 165.957C94.34 165.677 94.41 165.347 94.44 164.967H97.05Z" fill="#2E343D"/>
<path d="M106.38 163.697H101.37V167.087H107.25V169.187H98.76V156.527H107.23V158.637H101.37V161.657H106.38V163.697Z" fill="#2E343D"/>
<path d="M113.46 164.547H111.38V169.177H108.77V156.517H113.47C114.2 156.517 114.86 156.597 115.44 156.767C116.02 156.927 116.51 157.177 116.91 157.497C117.31 157.817 117.62 158.217 117.83 158.697C118.04 159.177 118.15 159.727 118.15 160.347C118.15 160.807 118.1 161.227 117.99 161.597C117.89 161.967 117.73 162.297 117.54 162.577C117.34 162.867 117.11 163.117 116.83 163.327C116.55 163.537 116.24 163.727 115.89 163.887L118.63 169.057V169.177H115.83L113.46 164.547ZM111.39 162.437H113.49C113.83 162.437 114.13 162.397 114.39 162.307C114.65 162.217 114.86 162.087 115.03 161.927C115.2 161.767 115.33 161.567 115.42 161.337C115.51 161.107 115.55 160.847 115.55 160.567C115.55 159.967 115.38 159.497 115.04 159.157C114.7 158.817 114.18 158.647 113.48 158.647H111.38V162.447L111.39 162.437Z" fill="#2E343D"/>
<path d="M129.24 158.637H125.36V169.187H122.75V158.637H118.92V156.527H129.23V158.637H129.24Z" fill="#2E343D"/>
<path d="M133.5 169.187H130.89V156.527H133.5V169.187Z" fill="#2E343D"/>
<path d="M143.53 164.007H138.52V169.177H135.91V156.517H144.15V158.627H138.52V161.897H143.53V163.997V164.007Z" fill="#2E343D"/>
<path d="M148.44 169.187H145.83V156.527H148.44V169.187Z" fill="#2E343D"/>
<path d="M158.48 163.697H153.47V167.087H159.35V169.187H150.86V156.527H159.33V158.637H153.47V161.657H158.48V163.697Z" fill="#2E343D"/>
<path d="M160.88 169.187V156.527H164.77C165.62 156.527 166.4 156.677 167.11 156.967C167.82 157.257 168.43 157.667 168.94 158.197C169.45 158.727 169.84 159.367 170.13 160.107C170.41 160.847 170.56 161.677 170.56 162.577V163.147C170.56 164.047 170.42 164.877 170.14 165.607C169.86 166.347 169.46 166.977 168.95 167.507C168.44 168.037 167.82 168.447 167.11 168.737C166.4 169.027 165.61 169.167 164.75 169.167H160.88V169.187ZM163.48 158.637V167.087H164.74C165.77 167.087 166.56 166.747 167.1 166.067C167.64 165.387 167.91 164.417 167.91 163.147V162.557C167.91 161.267 167.64 160.297 167.11 159.627C166.58 158.967 165.8 158.627 164.77 158.627H163.48V158.637Z" fill="#2E343D"/>
</svg>
