<svg width="259" height="261" viewBox="0 0 259 261" fill="none" xmlns="http://www.w3.org/2000/svg">
<path d="M130.54 0.283172C59.26 -0.436828 0 58.2032 0 129.483C0 185.003 35.03 232.343 84.19 250.623V205.653C58.16 190.243 40.72 161.873 40.73 129.433C40.76 81.3132 79.82 41.6932 127.94 41.0232C177.38 40.3332 217.67 80.2032 217.67 129.483C217.67 161.903 200.23 190.253 174.21 205.653V250.623C223.37 232.343 258.4 185.013 258.4 129.483C258.41 58.5732 201.28 1.01317 130.54 0.283172Z" fill="#3462A6"/>
<path d="M167.22 252.553V189.833C167.22 185.415 163.638 181.833 159.22 181.833H99.19C94.7717 181.833 91.19 185.415 91.19 189.833V252.553C91.19 256.972 94.7717 260.553 99.19 260.553H159.22C163.638 260.553 167.22 256.972 167.22 252.553Z" fill="#3462A6"/>
<path d="M103.22 96.7632V70.0832C103.22 69.7232 103.46 69.4832 103.82 69.4832H106.45C106.81 69.4832 107.05 69.7232 107.05 70.0832V96.7632C107.05 97.1232 106.81 97.3632 106.45 97.3632H103.82C103.46 97.3632 103.22 97.1232 103.22 96.7632Z" fill="black"/>
<path d="M112.3 89.9131V88.9531C112.3 88.5931 112.54 88.3531 112.9 88.3531H115.45C115.81 88.3531 116.05 88.5931 116.05 88.9531V89.7131C116.05 92.3431 118.48 94.3731 122.46 94.3731C126.44 94.3731 128 92.5831 128 90.1931C128 87.6831 125.85 86.5731 121.19 84.6931C116.65 82.9431 112.67 81.3431 112.67 76.4931C112.67 71.6431 116.21 69.1631 121.75 69.1631C127.72 69.1631 131.59 72.3531 131.59 77.0931V77.6931C131.59 78.0531 131.35 78.2931 130.99 78.2931H128.4C128.04 78.2931 127.8 78.0931 127.8 77.7731V77.2931C127.8 74.6231 125.61 72.4731 121.59 72.4731C118.28 72.4731 116.41 73.8631 116.41 76.4131C116.41 78.9631 118.48 79.9531 123.18 81.7531C127.6 83.4631 131.82 85.2131 131.82 90.0731C131.82 94.6131 128.2 97.6831 122.18 97.6831C116.16 97.6831 112.3 94.6131 112.3 89.9131Z" fill="black"/>
<path d="M136.24 88.1631V78.6831C136.24 72.9931 140.18 69.1631 146.08 69.1631C151.98 69.1631 155.96 72.9831 155.96 78.6831V88.1631C155.96 93.8931 152.02 97.7231 146.08 97.7231C140.14 97.7231 136.24 93.9031 136.24 88.1631ZM152.13 88.3231V78.6431C152.13 74.9431 149.7 72.4731 146.08 72.4731C142.46 72.4731 140.07 74.9431 140.07 78.6431V88.3231C140.07 91.9831 142.5 94.4131 146.08 94.4131C149.66 94.4131 152.13 91.9831 152.13 88.3231Z" fill="black"/>
<path d="M103.22 96.7632V70.0832C103.22 69.7232 103.46 69.4832 103.82 69.4832H106.45C106.81 69.4832 107.05 69.7232 107.05 70.0832V96.7632C107.05 97.1232 106.81 97.3632 106.45 97.3632H103.82C103.46 97.3632 103.22 97.1232 103.22 96.7632Z" fill="#2E343D"/>
<path d="M112.3 89.9131V88.9531C112.3 88.5931 112.54 88.3531 112.9 88.3531H115.45C115.81 88.3531 116.05 88.5931 116.05 88.9531V89.7131C116.05 92.3431 118.48 94.3731 122.46 94.3731C126.44 94.3731 128 92.5831 128 90.1931C128 87.6831 125.85 86.5731 121.19 84.6931C116.65 82.9431 112.67 81.3431 112.67 76.4931C112.67 71.6431 116.21 69.1631 121.75 69.1631C127.72 69.1631 131.59 72.3531 131.59 77.0931V77.6931C131.59 78.0531 131.35 78.2931 130.99 78.2931H128.4C128.04 78.2931 127.8 78.0931 127.8 77.7731V77.2931C127.8 74.6231 125.61 72.4731 121.59 72.4731C118.28 72.4731 116.41 73.8631 116.41 76.4131C116.41 78.9631 118.48 79.9531 123.18 81.7531C127.6 83.4631 131.82 85.2131 131.82 90.0731C131.82 94.6131 128.2 97.6831 122.18 97.6831C116.16 97.6831 112.3 94.6131 112.3 89.9131Z" fill="#2E343D"/>
<path d="M136.24 88.1631V78.6831C136.24 72.9931 140.18 69.1631 146.08 69.1631C151.98 69.1631 155.96 72.9831 155.96 78.6831V88.1631C155.96 93.8931 152.02 97.7231 146.08 97.7231C140.14 97.7231 136.24 93.9031 136.24 88.1631ZM152.13 88.3231V78.6431C152.13 74.9431 149.7 72.4731 146.08 72.4731C142.46 72.4731 140.07 74.9431 140.07 78.6431V88.3231C140.07 91.9831 142.5 94.4131 146.08 94.4131C149.66 94.4131 152.13 91.9831 152.13 88.3231Z" fill="#2E343D"/>
<path d="M98.62 119.823V136.813C98.62 143.023 93.43 147.093 85.92 147.093C78.41 147.093 73.5 143.033 73.5 136.983V135.683C73.5 135.063 73.84 134.723 74.46 134.723H80.5C81.12 134.723 81.46 134.953 81.46 135.283V135.903C81.46 138.383 83.27 140.253 85.92 140.253C88.57 140.253 90.66 138.393 90.66 135.733V130.543C90.66 130.263 90.49 130.143 90.26 130.373C88.45 131.843 86.31 132.293 84.16 132.293C79.7 132.293 75.92 130.203 73.88 126.253C72.92 124.443 72.53 122.243 72.53 119.763C72.53 117.503 72.92 115.533 73.6 113.893C75.52 109.493 79.81 106.723 85.51 106.723C91.21 106.723 95.73 109.543 97.59 114.293C98.27 115.933 98.61 117.853 98.61 119.823H98.62ZM90.61 119.543C90.61 118.243 90.38 117.063 89.88 116.103C89.09 114.523 87.68 113.623 85.59 113.623C83.5 113.623 82.15 114.583 81.36 116.103C80.8 117.063 80.51 118.303 80.51 119.663C80.51 121.023 80.79 122.373 81.41 123.393C82.31 124.863 83.67 125.653 85.53 125.653C87.56 125.653 88.97 124.863 89.76 123.343C90.38 122.273 90.61 120.803 90.61 119.563V119.543Z" fill="#2E343D"/>
<path d="M103.59 134.333V119.433C103.59 111.583 108.73 106.673 117.03 106.673C125.33 106.673 130.52 111.583 130.52 119.433V134.333C130.52 142.293 125.33 147.263 117.03 147.263C108.73 147.263 103.59 142.293 103.59 134.333ZM122.56 134.733V119.203C122.56 115.703 120.41 113.503 117.03 113.503C113.65 113.503 111.55 115.703 111.55 119.203V134.733C111.55 138.233 113.7 140.433 117.03 140.433C120.36 140.433 122.56 138.233 122.56 134.733Z" fill="#2E343D"/>
<path d="M135.77 134.333V119.433C135.77 111.583 140.91 106.673 149.21 106.673C157.51 106.673 162.7 111.583 162.7 119.433V134.333C162.7 142.293 157.51 147.263 149.21 147.263C140.91 147.263 135.77 142.293 135.77 134.333ZM154.74 134.733V119.203C154.74 115.703 152.59 113.503 149.21 113.503C145.83 113.503 143.73 115.703 143.73 119.203V134.733C143.73 138.233 145.88 140.433 149.21 140.433C152.54 140.433 154.74 138.233 154.74 134.733Z" fill="#2E343D"/>
<path d="M173.42 107.123H179.8C180.42 107.123 180.76 107.463 180.76 108.083V145.683C180.76 146.303 180.42 146.643 179.8 146.643H173.76C173.14 146.643 172.8 146.303 172.8 145.683V114.913C172.8 114.683 172.63 114.513 172.41 114.573L167.44 115.593C166.82 115.703 166.37 115.363 166.37 114.743V110.453C166.37 109.943 166.6 109.553 167.1 109.383L172.24 107.353C172.64 107.183 172.97 107.123 173.43 107.123H173.42Z" fill="#2E343D"/>
<path d="M124.89 241.733C123.54 241.733 122.49 240.643 121.82 239.823C116.24 233.013 112.37 230.723 110.05 229.363C108.3 228.333 105.85 227.523 106.35 225.413C106.45 225.003 106.5 224.593 106.61 224.223C107.38 221.663 109.06 219.083 111.22 219.313C112.12 219.413 113.32 219.803 114.69 220.513C118.98 222.743 121 225.433 122.51 227.353C123.54 225.623 125.69 222.343 129.7 217.273C139.45 204.973 149.06 199.813 150.89 198.903C151.17 198.763 151.49 198.673 151.81 198.663H151.96C152.94 198.663 152.92 199.253 153.3 200.163C153.67 201.073 154.35 202.103 153.64 202.783C151.62 204.763 148 208.613 142.27 215.703C136.56 222.763 133.29 229.353 130.9 234.163C128.48 239.033 128.21 241.723 125.95 241.723H124.88L124.89 241.733Z" fill="white"/>
<path d="M46.73 200.363C47.74 199.373 48.78 198.683 49.83 198.273C50.89 197.873 51.91 197.743 52.91 197.893L52.55 194.663L54.81 194.813L55.23 198.843C55.58 199.083 55.93 199.373 56.26 199.713C56.9 200.363 57.36 201.083 57.65 201.853C57.94 202.633 58.05 203.433 57.99 204.263C57.93 205.093 57.68 205.933 57.25 206.783C56.82 207.633 56.2 208.453 55.38 209.243L54.84 209.773C54.03 210.563 53.19 211.173 52.33 211.583C51.47 211.993 50.63 212.223 49.8 212.273C48.97 212.323 48.17 212.193 47.4 211.883C46.63 211.573 45.93 211.093 45.29 210.443C44.64 209.773 44.17 209.053 43.87 208.273C43.58 207.493 43.46 206.683 43.53 205.853C43.6 205.023 43.86 204.183 44.29 203.343C44.73 202.503 45.35 201.683 46.17 200.893L46.71 200.363H46.73ZM48 202.773C46.8 203.943 46.1 205.063 45.92 206.123C45.74 207.183 46.05 208.123 46.85 208.943C47.24 209.343 47.66 209.623 48.13 209.783C48.6 209.943 49.09 209.983 49.62 209.903C50.15 209.823 50.7 209.623 51.27 209.293C51.85 208.963 52.43 208.513 53.03 207.933L53.59 207.393C54.19 206.813 54.66 206.233 55 205.663C55.34 205.093 55.56 204.543 55.65 204.013C55.74 203.483 55.71 202.983 55.56 202.513C55.41 202.043 55.14 201.603 54.75 201.203C53.94 200.373 53.01 200.043 51.95 200.213C50.89 200.383 49.76 201.053 48.55 202.223L47.99 202.763L48 202.773Z" fill="white"/>
<path d="M30.98 192.433L39.09 186.593C39.78 186.093 40.48 185.773 41.17 185.633C41.86 185.493 42.53 185.503 43.18 185.663C43.83 185.823 44.43 186.113 45 186.533C45.57 186.953 46.08 187.483 46.53 188.113C47 188.763 47.34 189.423 47.57 190.103C47.79 190.783 47.88 191.453 47.82 192.103C47.76 192.763 47.55 193.393 47.2 193.993C46.84 194.593 46.32 195.153 45.62 195.643L37.51 201.483L36 199.383L44.11 193.543C44.54 193.233 44.88 192.903 45.11 192.563C45.34 192.223 45.48 191.873 45.54 191.513C45.59 191.153 45.56 190.793 45.44 190.423C45.32 190.053 45.13 189.683 44.86 189.313C44.59 188.943 44.3 188.643 43.99 188.403C43.68 188.173 43.34 188.023 42.98 187.963C42.62 187.903 42.25 187.933 41.85 188.043C41.45 188.153 41.04 188.363 40.61 188.683L32.5 194.523L30.99 192.423L30.98 192.433Z" fill="white"/>
<path d="M34.2902 174.843L36.9602 179.973L40.6102 179.443L41.8602 181.833L26.0002 183.723L24.9202 181.653L35.5702 169.743L36.8202 172.143L34.3002 174.833L34.2902 174.843ZM34.7702 180.293L32.7702 176.453L28.2702 181.233L34.7702 180.293Z" fill="white"/>
<path d="M31.7902 165.373L29.5102 158.983L31.4602 158.283L34.6102 167.113L20.5402 172.133L19.6702 169.683L31.7902 165.353V165.373Z" fill="white"/>
<path d="M30.02 152.373L30.64 154.883L16.14 158.483L15.52 155.973L30.02 152.373Z" fill="white"/>
<path d="M14.8 139.363L15.45 143.973L28.17 142.173L28.53 144.723L15.81 146.523L16.46 151.093L14.39 151.383L12.73 139.643L14.8 139.353V139.363Z" fill="white"/>
<path d="M19.49 129.493L12.35 126.173L12.3 123.303L21.82 128.153L27.32 128.063L27.36 130.673L21.86 130.763L12.5 135.933L12.45 133.053L19.47 129.503L19.49 129.493Z" fill="white"/>
<path d="M26.6901 104.803L25.5101 110.473L28.6701 112.373L28.1201 115.013L14.6501 106.433L15.1301 104.153L30.9101 101.673L30.3601 104.323L26.7001 104.803H26.6901ZM23.6001 109.323L24.4901 105.083L17.9801 105.933L23.6001 109.323Z" fill="white"/>
<path d="M30.8501 90.3932C30.5701 90.2932 30.3001 90.2432 30.0501 90.2432C29.8001 90.2432 29.5401 90.3232 29.2701 90.4732C29.0001 90.6232 28.7101 90.8632 28.4001 91.1932C28.0901 91.5232 27.7301 91.9532 27.3201 92.4932C26.8801 93.0932 26.4201 93.6232 25.9601 94.0932C25.5001 94.5632 25.0201 94.9432 24.5301 95.2232C24.0401 95.5032 23.5301 95.6832 23.0001 95.7532C22.4701 95.8232 21.9201 95.7532 21.3501 95.5432C20.7801 95.3332 20.3101 95.0232 19.9201 94.6132C19.5301 94.2032 19.2401 93.7132 19.0601 93.1432C18.8701 92.5832 18.7901 91.9532 18.8201 91.2732C18.8501 90.5932 19.0001 89.8832 19.2701 89.1432C19.5601 88.3532 19.9301 87.6832 20.3901 87.1332C20.8501 86.5832 21.3501 86.1632 21.9001 85.8732C22.4501 85.5832 23.0301 85.4132 23.6301 85.3732C24.2301 85.3332 24.8301 85.4132 25.4101 85.6332L24.5201 88.0632C24.1801 87.9432 23.8501 87.8732 23.5201 87.8832C23.2001 87.8832 22.8901 87.9532 22.6001 88.1032C22.3101 88.2432 22.0501 88.4632 21.8101 88.7532C21.5701 89.0432 21.3701 89.4232 21.2001 89.8732C21.0401 90.3032 20.9601 90.6932 20.9401 91.0432C20.9201 91.3932 20.9601 91.7032 21.0601 91.9732C21.1601 92.2432 21.3101 92.4732 21.5101 92.6632C21.7101 92.8532 21.9501 92.9932 22.2301 93.0932C22.7501 93.2832 23.2701 93.1932 23.8001 92.8332C24.3301 92.4632 24.9201 91.8332 25.5801 90.9332C26.1001 90.2232 26.6101 89.6332 27.1001 89.1632C27.5901 88.6832 28.0901 88.3232 28.5801 88.0732C29.0801 87.8232 29.5801 87.6832 30.1001 87.6632C30.6101 87.6432 31.1501 87.7332 31.7101 87.9332C32.3001 88.1532 32.7901 88.4632 33.1801 88.8632C33.5701 89.2732 33.8501 89.7532 34.0201 90.3032C34.1901 90.8532 34.2601 91.4732 34.2101 92.1532C34.1601 92.8332 34.0001 93.5532 33.7201 94.3132C33.4701 94.9832 33.1401 95.6232 32.7201 96.2132C32.3001 96.8032 31.8101 97.2932 31.2501 97.6732C30.6901 98.0632 30.0801 98.3132 29.4101 98.4232C28.7401 98.5432 28.0301 98.4632 27.2901 98.1932L28.1801 95.7532C28.6201 95.9132 29.0301 95.9732 29.4101 95.9332C29.7901 95.8932 30.1201 95.7732 30.4301 95.5732C30.7301 95.3732 31.0001 95.1032 31.2301 94.7632C31.4601 94.4232 31.6501 94.0432 31.8101 93.6132C32.1201 92.7632 32.1801 92.0632 31.9901 91.5132C31.8001 90.9632 31.4201 90.5832 30.8601 90.3732L30.8501 90.3932Z" fill="white"/>
<path d="M37.0102 77.523C36.7402 77.383 36.4902 77.293 36.2402 77.263C35.9902 77.233 35.7202 77.273 35.4402 77.393C35.1502 77.513 34.8302 77.703 34.4802 77.993C34.1302 78.273 33.7102 78.653 33.2302 79.133C32.7102 79.663 32.1902 80.133 31.6702 80.533C31.1502 80.933 30.6202 81.243 30.1002 81.463C29.5802 81.673 29.0502 81.783 28.5202 81.783C27.9902 81.783 27.4502 81.633 26.9102 81.353C26.3802 81.073 25.9502 80.703 25.6202 80.233C25.2902 79.773 25.0702 79.243 24.9602 78.663C24.8502 78.083 24.8602 77.453 24.9802 76.783C25.1002 76.113 25.3502 75.433 25.7102 74.733C26.1002 73.993 26.5602 73.373 27.0902 72.893C27.6202 72.413 28.1702 72.063 28.7602 71.853C29.3402 71.643 29.9402 71.553 30.5402 71.593C31.1402 71.633 31.7202 71.793 32.2702 72.093L31.0602 74.383C30.7402 74.213 30.4202 74.103 30.1002 74.063C29.7802 74.023 29.4602 74.053 29.1602 74.153C28.8502 74.253 28.5602 74.433 28.2902 74.693C28.0102 74.953 27.7602 75.293 27.5402 75.723C27.3302 76.133 27.1902 76.503 27.1202 76.843C27.0502 77.183 27.0502 77.503 27.1202 77.783C27.1802 78.063 27.3002 78.313 27.4702 78.523C27.6402 78.733 27.8602 78.913 28.1202 79.043C28.6102 79.303 29.1402 79.283 29.7102 78.993C30.2802 78.703 30.9602 78.153 31.7402 77.353C32.3502 76.723 32.9302 76.203 33.4902 75.803C34.0402 75.403 34.5802 75.103 35.1102 74.923C35.6402 74.743 36.1602 74.673 36.6702 74.723C37.1802 74.773 37.7002 74.933 38.2302 75.213C38.7902 75.503 39.2302 75.883 39.5602 76.333C39.8902 76.793 40.1002 77.303 40.2002 77.873C40.3002 78.443 40.2702 79.063 40.1302 79.733C39.9902 80.403 39.7302 81.093 39.3502 81.803C39.0102 82.443 38.6002 83.023 38.1002 83.543C37.6002 84.073 37.0502 84.483 36.4402 84.793C35.8302 85.103 35.1902 85.263 34.5102 85.293C33.8302 85.313 33.1402 85.143 32.4402 84.773L33.6502 82.473C34.0702 82.693 34.4602 82.813 34.8402 82.823C35.2202 82.823 35.5702 82.763 35.9002 82.603C36.2302 82.443 36.5302 82.213 36.8002 81.913C37.0702 81.613 37.3202 81.253 37.5302 80.853C37.9502 80.053 38.1102 79.373 38.0002 78.793C37.8902 78.223 37.5702 77.793 37.0302 77.513L37.0102 77.523Z" fill="white"/>
<path d="M37.7102 56.583L45.8102 62.443C46.5002 62.943 47.0202 63.503 47.3702 64.113C47.7202 64.723 47.9202 65.363 47.9702 66.023C48.0202 66.683 47.9402 67.353 47.7102 68.033C47.4902 68.703 47.1502 69.363 46.7002 69.983C46.2302 70.633 45.7102 71.173 45.1402 71.593C44.5702 72.013 43.9602 72.303 43.3202 72.453C42.6802 72.603 42.0102 72.603 41.3302 72.453C40.6402 72.303 39.9602 71.973 39.2602 71.473L31.1602 65.613L32.6802 63.523L40.7802 69.383C41.2102 69.693 41.6302 69.913 42.0202 70.023C42.4202 70.133 42.7902 70.163 43.1502 70.103C43.5102 70.043 43.8402 69.893 44.1602 69.663C44.4702 69.433 44.7602 69.133 45.0302 68.763C45.3002 68.393 45.4902 68.023 45.6202 67.643C45.7402 67.273 45.7802 66.903 45.7202 66.553C45.6702 66.193 45.5202 65.853 45.2902 65.513C45.0602 65.173 44.7302 64.843 44.3002 64.533L36.2002 58.673L37.7202 56.583H37.7102Z" fill="white"/>
<path d="M51.9901 54.4832L49.9801 56.5632L54.1201 60.5632L52.3101 62.4332L41.5701 52.0432L45.2201 48.2632C45.8101 47.6532 46.4101 47.1732 47.0201 46.8232C47.6301 46.4732 48.2301 46.2732 48.8201 46.2032C49.4101 46.1332 50.0001 46.2032 50.5701 46.4332C51.1401 46.6532 51.6901 47.0132 52.2201 47.5332C52.9401 48.2232 53.3701 48.9832 53.5201 49.7932C53.6701 50.6132 53.5701 51.4532 53.2401 52.3232L60.0501 54.2432L60.1501 54.3332L58.2201 56.3332L52.0001 54.4832H51.9901ZM48.4801 55.1132L50.3401 53.1932C50.6601 52.8632 50.9001 52.5232 51.0601 52.1832C51.2101 51.8432 51.2901 51.5232 51.3001 51.2032C51.3001 50.8832 51.2401 50.5732 51.1001 50.2832C50.9601 49.9932 50.7701 49.7132 50.5101 49.4632C50.2301 49.1932 49.9501 48.9932 49.6501 48.8532C49.3501 48.7132 49.0401 48.6532 48.7301 48.6632C48.4101 48.6632 48.0901 48.7632 47.7601 48.9332C47.4301 49.1032 47.0901 49.3632 46.7501 49.7232L44.9001 51.6332L48.5001 55.1132H48.4801Z" fill="white"/>
<path d="M66.8201 44.573L62.2401 48.113L63.4101 51.603L61.2801 53.253L56.6001 37.983L58.4401 36.553L72.0601 44.903L69.9201 46.563L66.8201 44.563V44.573ZM61.5401 46.013L64.9601 43.363L59.4501 39.783L61.5301 46.013H61.5401Z" fill="white"/>
<path d="M84.6901 37.7531L82.4201 39.0131L71.4501 32.9731L76.5901 42.2431L74.3201 43.5031L67.0701 30.4431L69.3401 29.1831L80.3501 35.2431L75.1901 25.9431L77.4401 24.6931L84.6901 37.7531Z" fill="white"/>
<path d="M97.3901 27.5731C97.5801 28.2831 97.6501 28.9731 97.6101 29.6531C97.5701 30.3331 97.4001 30.9631 97.1001 31.5531C96.8001 32.1431 96.3701 32.6831 95.8001 33.1631C95.2301 33.6431 94.5201 34.0431 93.6601 34.3631C92.8001 34.6831 91.9601 34.8131 91.1501 34.7631C90.3401 34.7131 89.5801 34.4831 88.8801 34.0931C88.1801 33.7031 87.5401 33.1431 86.9801 32.4331C86.4201 31.7131 85.9501 30.8531 85.5701 29.8331L85.1501 28.6931C84.7801 27.6831 84.5701 26.7231 84.5401 25.8031C84.5101 24.8831 84.6301 24.0431 84.9201 23.2831C85.2101 22.5231 85.6501 21.8531 86.2401 21.2731C86.8301 20.6931 87.5701 20.2431 88.4501 19.9231C89.2801 19.6131 90.0701 19.4631 90.8001 19.4631C91.5301 19.4631 92.2001 19.6031 92.8001 19.8631C93.4001 20.1231 93.9401 20.5031 94.4101 21.0031C94.8801 21.5031 95.2801 22.0831 95.6101 22.7531L93.1901 23.6531C92.9701 23.2331 92.7401 22.8631 92.4801 22.5531C92.2201 22.2431 91.9301 22.0131 91.6101 21.8531C91.2901 21.6931 90.9301 21.6131 90.5301 21.6131C90.1301 21.6131 89.6801 21.7131 89.1801 21.8931C88.6301 22.0931 88.1801 22.3831 87.8501 22.7431C87.5101 23.1031 87.2801 23.5331 87.1501 24.0331C87.0201 24.5331 86.9901 25.0931 87.0701 25.7231C87.1501 26.3531 87.3201 27.0331 87.5901 27.7731L88.0201 28.9231C88.2801 29.6231 88.5801 30.2331 88.9101 30.7631C89.2401 31.2931 89.6101 31.7031 90.0201 32.0231C90.4301 32.3331 90.8701 32.5331 91.3601 32.6031C91.8501 32.6731 92.3701 32.6031 92.9401 32.4031C93.4701 32.2131 93.8901 31.9831 94.2101 31.7231C94.5301 31.4631 94.7601 31.1731 94.9101 30.8531C95.0601 30.5331 95.1401 30.1631 95.1401 29.7731C95.1401 29.3731 95.0901 28.9431 94.9801 28.4731L97.4101 27.5731H97.3901Z" fill="white"/>
<path d="M109.46 22.893L103.47 24.213L104.46 28.703L111.47 27.163L111.92 29.183L102.38 31.283L99.1699 16.693L108.64 14.603L109.09 16.643L102.15 18.173L103.04 22.203L109.03 20.883L109.47 22.883L109.46 22.893Z" fill="white"/>
<path d="M125.28 12.9631L129.4 24.4831L133.88 13.1031L137.24 13.1531L137 28.0931L134.41 28.0531L134.49 23.1231L134.85 16.5431L130.25 27.9831L128.39 27.9531L124.17 16.3831L124.32 22.9631L124.24 27.8831L121.65 27.8431L121.89 12.9031L125.26 12.9531L125.28 12.9631Z" fill="white"/>
<path d="M150.01 26.6531L144.31 25.6331L142.5 28.8431L139.84 28.3631L148.03 14.6531L150.32 15.0631L153.25 30.7731L150.58 30.2931L149.99 26.6531H150.01ZM145.4 23.6931L149.66 24.4531L148.62 17.9731L145.39 23.6931H145.4Z" fill="white"/>
<path d="M167.04 35.3531L164.58 34.5131L161.73 22.3231L158.29 32.3531L155.83 31.5131L160.68 17.3831L163.14 18.2231L166 30.4631L169.46 20.4031L171.9 21.2431L167.05 35.3731L167.04 35.3531Z" fill="white"/>
<path d="M179.92 37.893L174.8 35.193L172.1 37.703L169.71 36.443L181.68 25.863L183.74 26.953L181.76 42.803L179.36 41.533L179.9 37.883L179.92 37.893ZM176.43 33.673L180.26 35.693L181.24 29.203L176.43 33.673Z" fill="white"/>
<path d="M194.22 49.4131C193.97 49.4831 193.66 49.5431 193.29 49.5731C192.92 49.6131 192.49 49.5731 192 49.4931C191.52 49.4031 190.98 49.2431 190.4 48.9931C189.81 48.7431 189.18 48.3731 188.51 47.8831C187.75 47.3331 187.16 46.6931 186.72 45.9631C186.28 45.2431 186.01 44.4631 185.92 43.6431C185.83 42.8231 185.92 41.9631 186.2 41.0531C186.48 40.1531 186.95 39.2431 187.63 38.3231L188.21 37.5331C188.88 36.6231 189.6 35.8831 190.35 35.3331C191.1 34.7831 191.88 34.4131 192.67 34.2231C193.46 34.0431 194.25 34.0431 195.06 34.2231C195.86 34.4131 196.65 34.7931 197.43 35.3631C198.16 35.9031 198.73 36.4631 199.14 37.0531C199.55 37.6431 199.81 38.2531 199.94 38.8631C200.06 39.4831 200.06 40.1031 199.93 40.7331C199.8 41.3631 199.56 41.9831 199.22 42.6031L197.17 41.0931C197.35 40.7431 197.48 40.3931 197.56 40.0431C197.64 39.6931 197.65 39.3431 197.59 39.0031C197.53 38.6631 197.39 38.3331 197.18 38.0031C196.97 37.6731 196.66 37.3631 196.25 37.0631C195.76 36.7031 195.27 36.4831 194.77 36.3931C194.28 36.3131 193.78 36.3531 193.28 36.5331C192.78 36.7031 192.29 37.0031 191.8 37.4331C191.31 37.8531 190.82 38.3931 190.34 39.0431L189.74 39.8531C189.25 40.5131 188.9 41.1531 188.66 41.7731C188.43 42.3931 188.32 42.9631 188.33 43.5131C188.34 44.0531 188.47 44.5631 188.72 45.0231C188.97 45.4831 189.34 45.8931 189.82 46.2531C190.18 46.5131 190.5 46.7231 190.79 46.8631C191.08 47.0031 191.34 47.1031 191.57 47.1631C191.8 47.2231 192 47.2531 192.18 47.2431C192.36 47.2431 192.51 47.2231 192.64 47.2031L194.37 44.8431L191.89 43.0231L193.06 41.4331L197.63 44.7831L194.24 49.4031L194.22 49.4131Z" fill="white"/>
<path d="M206.91 54.9031L202.51 50.6231L199.3 53.9131L204.44 58.9231L202.99 60.4031L195.99 53.5831L206.42 42.8831L213.37 49.6531L211.91 51.1531L206.82 46.1931L203.94 49.1431L208.34 53.4231L206.91 54.8931V54.9031Z" fill="white"/>
<path d="M219.14 56.3531L212.53 66.6531L224.28 63.2531L226.29 65.9431L214.31 74.8731L212.76 72.8031L216.71 69.8631L222.15 66.1331L210.28 69.4731L209.17 67.9831L215.76 57.5731L210.64 61.7131L206.69 64.6531L205.14 62.5831L217.12 53.6531L219.13 56.3531H219.14Z" fill="white"/>
<path d="M226.19 83.0431L223.34 77.6031L219.27 79.7331L222.6 86.0931L220.76 87.0531L216.23 78.3931L229.47 71.4631L233.97 80.0531L232.12 81.0231L228.83 74.7331L225.18 76.6431L228.03 82.0831L226.21 83.0331L226.19 83.0431Z" fill="white"/>
<path d="M226 101.113L225.14 98.6631L232.93 88.8631L222.93 92.3831L222.07 89.9331L236.16 84.9731L237.02 87.4231L229.2 97.2631L239.24 93.7231L240.1 96.1531L226.01 101.113H226Z" fill="white"/>
<path d="M241.61 112.933L240.71 108.363L228.1 110.833L227.6 108.303L240.21 105.833L239.32 101.303L241.37 100.903L243.65 112.533L241.6 112.933H241.61Z" fill="white"/>
<path d="M233.56 132.493C233.86 132.493 234.13 132.453 234.37 132.373C234.61 132.293 234.83 132.133 235.03 131.893C235.23 131.663 235.43 131.343 235.62 130.923C235.81 130.513 236.01 129.983 236.22 129.333C236.44 128.623 236.7 127.973 236.98 127.373C237.26 126.773 237.59 126.263 237.96 125.833C238.33 125.403 238.75 125.073 239.23 124.833C239.71 124.593 240.25 124.483 240.86 124.493C241.46 124.493 242.01 124.643 242.52 124.903C243.02 125.163 243.45 125.533 243.82 126.003C244.18 126.473 244.46 127.033 244.65 127.693C244.84 128.343 244.94 129.063 244.92 129.853C244.91 130.693 244.77 131.453 244.52 132.113C244.27 132.783 243.93 133.343 243.5 133.793C243.08 134.243 242.59 134.593 242.03 134.833C241.47 135.073 240.89 135.183 240.26 135.173L240.3 132.583C240.66 132.583 241 132.543 241.3 132.433C241.61 132.323 241.87 132.153 242.1 131.923C242.33 131.693 242.5 131.403 242.63 131.053C242.76 130.703 242.83 130.283 242.84 129.793C242.84 129.333 242.8 128.933 242.71 128.603C242.61 128.263 242.47 127.983 242.29 127.763C242.11 127.533 241.89 127.373 241.64 127.263C241.39 127.153 241.12 127.093 240.82 127.093C240.27 127.093 239.8 127.343 239.42 127.853C239.04 128.373 238.69 129.163 238.36 130.233C238.1 131.073 237.81 131.793 237.5 132.403C237.19 133.013 236.84 133.523 236.45 133.923C236.06 134.323 235.63 134.623 235.15 134.813C234.67 135.003 234.13 135.093 233.54 135.083C232.91 135.073 232.35 134.943 231.85 134.683C231.35 134.423 230.93 134.063 230.58 133.593C230.23 133.123 229.97 132.563 229.8 131.903C229.62 131.243 229.54 130.513 229.55 129.703C229.56 128.983 229.67 128.283 229.88 127.583C230.09 126.893 230.39 126.263 230.79 125.723C231.19 125.173 231.69 124.733 232.28 124.403C232.87 124.073 233.57 123.913 234.36 123.933L234.32 126.533C233.85 126.533 233.44 126.603 233.1 126.763C232.76 126.923 232.48 127.153 232.26 127.433C232.04 127.723 231.88 128.063 231.77 128.453C231.66 128.843 231.61 129.273 231.6 129.733C231.59 130.633 231.76 131.323 232.12 131.783C232.48 132.243 232.96 132.483 233.56 132.493Z" fill="white"/>
<path d="M236.56 144.413L243.1 148.803L242.7 151.653L234.04 145.383L228.59 144.623L228.95 142.043L234.4 142.803L244.45 139.143L244.05 142.003L236.56 144.423V144.413Z" fill="white"/>
<path d="M228.86 160.603C229.15 160.683 229.42 160.713 229.67 160.693C229.92 160.673 230.17 160.573 230.43 160.403C230.69 160.233 230.96 159.973 231.24 159.623C231.53 159.273 231.85 158.813 232.22 158.243C232.62 157.613 233.03 157.053 233.46 156.543C233.89 156.033 234.33 155.623 234.8 155.303C235.27 154.983 235.76 154.773 236.28 154.663C236.8 154.553 237.35 154.583 237.94 154.743C238.52 154.903 239.02 155.183 239.44 155.563C239.86 155.943 240.18 156.413 240.41 156.963C240.64 157.513 240.76 158.123 240.79 158.803C240.81 159.483 240.71 160.203 240.5 160.963C240.27 161.773 239.95 162.463 239.53 163.043C239.11 163.623 238.64 164.073 238.12 164.413C237.59 164.743 237.03 164.953 236.43 165.043C235.83 165.133 235.24 165.093 234.64 164.923L235.34 162.433C235.69 162.533 236.03 162.563 236.35 162.543C236.67 162.523 236.97 162.423 237.25 162.263C237.53 162.103 237.77 161.863 237.99 161.553C238.2 161.243 238.38 160.853 238.51 160.393C238.63 159.953 238.69 159.553 238.68 159.203C238.68 158.853 238.61 158.543 238.49 158.283C238.37 158.023 238.21 157.803 237.99 157.633C237.78 157.463 237.53 157.333 237.24 157.253C236.71 157.103 236.19 157.233 235.69 157.633C235.19 158.033 234.65 158.713 234.05 159.663C233.58 160.403 233.12 161.033 232.67 161.543C232.21 162.053 231.75 162.453 231.27 162.743C230.79 163.033 230.3 163.203 229.79 163.273C229.28 163.333 228.74 163.283 228.16 163.123C227.55 162.953 227.04 162.683 226.63 162.303C226.21 161.923 225.9 161.473 225.69 160.923C225.48 160.383 225.37 159.773 225.36 159.093C225.36 158.413 225.46 157.683 225.68 156.903C225.87 156.213 226.16 155.553 226.54 154.933C226.92 154.313 227.37 153.793 227.9 153.363C228.43 152.933 229.02 152.643 229.68 152.473C230.34 152.303 231.05 152.333 231.81 152.543L231.11 155.043C230.66 154.913 230.24 154.883 229.87 154.953C229.5 155.023 229.17 155.163 228.88 155.393C228.59 155.613 228.35 155.903 228.15 156.253C227.95 156.603 227.78 157.003 227.66 157.443C227.41 158.313 227.41 159.013 227.64 159.553C227.87 160.093 228.27 160.443 228.85 160.603H228.86Z" fill="white"/>
<path d="M230.72 180.263L232.59 175.993L220.82 170.843L221.85 168.483L233.62 173.633L235.47 169.403L237.39 170.243L232.64 181.103L230.72 180.263Z" fill="white"/>
<path d="M218.62 188.723L221.8 183.473L217.87 181.093L214.15 187.223L212.38 186.143L217.45 177.793L230.22 185.543L225.19 193.833L223.4 192.743L227.08 186.673L223.55 184.533L220.37 189.783L218.62 188.723Z" fill="white"/>
<path d="M219.96 200.963L208.44 196.843L214.39 207.533L212.22 210.093L200.83 200.433L202.5 198.463L206.26 201.653L211.12 206.113L205.19 195.303L206.39 193.883L218.01 197.963L212.83 193.903L209.07 190.713L210.74 188.743L222.13 198.403L219.95 200.973L219.96 200.963Z" fill="white"/>
<path d="M97.05 165.243C97 165.883 96.86 166.473 96.62 167.013C96.38 167.553 96.04 168.013 95.61 168.403C95.18 168.793 94.66 169.093 94.05 169.303C93.44 169.523 92.74 169.633 91.96 169.633C91.18 169.633 90.42 169.493 89.77 169.213C89.12 168.933 88.58 168.523 88.13 168.003C87.68 167.473 87.34 166.833 87.1 166.083C86.86 165.333 86.74 164.493 86.74 163.553V162.723C86.74 161.793 86.86 160.943 87.11 160.193C87.36 159.443 87.71 158.803 88.17 158.273C88.62 157.743 89.18 157.343 89.83 157.053C90.48 156.773 91.2 156.623 92 156.623C92.8 156.623 93.48 156.733 94.09 156.963C94.7 157.183 95.21 157.493 95.63 157.893C96.05 158.293 96.38 158.763 96.62 159.313C96.86 159.863 97.01 160.453 97.07 161.103H94.46C94.43 160.723 94.37 160.393 94.26 160.103C94.16 159.813 94.01 159.573 93.82 159.373C93.63 159.173 93.38 159.023 93.08 158.923C92.78 158.823 92.41 158.773 91.98 158.773C91.1 158.773 90.44 159.093 90.01 159.733C89.58 160.373 89.36 161.363 89.36 162.713V163.563C89.36 164.223 89.41 164.793 89.5 165.283C89.6 165.773 89.75 166.183 89.95 166.513C90.16 166.843 90.42 167.093 90.75 167.253C91.08 167.413 91.47 167.503 91.94 167.503C92.35 167.503 92.71 167.453 93.01 167.363C93.31 167.273 93.56 167.133 93.76 166.943C93.96 166.753 94.11 166.523 94.23 166.233C94.34 165.953 94.41 165.623 94.44 165.243H97.05Z" fill="#2E343D"/>
<path d="M106.38 163.973H101.37V167.363H107.25V169.463H98.76V156.803H107.23V158.913H101.37V161.933H106.38V163.973Z" fill="#2E343D"/>
<path d="M113.46 164.823H111.38V169.453H108.77V156.793H113.47C114.2 156.793 114.86 156.873 115.44 157.043C116.02 157.203 116.51 157.453 116.91 157.773C117.31 158.093 117.62 158.493 117.83 158.973C118.04 159.453 118.15 160.003 118.15 160.623C118.15 161.083 118.1 161.503 117.99 161.873C117.89 162.243 117.73 162.573 117.54 162.853C117.34 163.143 117.11 163.393 116.83 163.603C116.55 163.813 116.24 164.003 115.89 164.163L118.63 169.333V169.453H115.83L113.46 164.823ZM111.39 162.713H113.49C113.83 162.713 114.13 162.673 114.39 162.583C114.65 162.493 114.86 162.363 115.03 162.203C115.2 162.043 115.33 161.843 115.42 161.613C115.51 161.383 115.55 161.123 115.55 160.843C115.55 160.243 115.38 159.773 115.04 159.433C114.7 159.093 114.18 158.923 113.48 158.923H111.38V162.723L111.39 162.713Z" fill="#2E343D"/>
<path d="M129.24 158.913H125.36V169.463H122.75V158.913H118.92V156.803H129.23V158.913H129.24Z" fill="#2E343D"/>
<path d="M133.5 169.463H130.89V156.803H133.5V169.463Z" fill="#2E343D"/>
<path d="M143.53 164.283H138.52V169.453H135.91V156.793H144.15V158.903H138.52V162.173H143.53V164.273V164.283Z" fill="#2E343D"/>
<path d="M148.44 169.463H145.83V156.803H148.44V169.463Z" fill="#2E343D"/>
<path d="M158.48 163.973H153.47V167.363H159.35V169.463H150.86V156.803H159.33V158.913H153.47V161.933H158.48V163.973Z" fill="#2E343D"/>
<path d="M160.88 169.463V156.803H164.77C165.62 156.803 166.4 156.953 167.11 157.243C167.82 157.533 168.43 157.943 168.94 158.473C169.45 159.003 169.84 159.643 170.13 160.383C170.41 161.123 170.56 161.953 170.56 162.853V163.423C170.56 164.323 170.42 165.153 170.14 165.883C169.86 166.623 169.46 167.253 168.95 167.783C168.44 168.313 167.82 168.723 167.11 169.013C166.4 169.303 165.61 169.443 164.75 169.443H160.88V169.463ZM163.48 158.913V167.363H164.74C165.77 167.363 166.56 167.023 167.1 166.343C167.64 165.663 167.91 164.693 167.91 163.423V162.833C167.91 161.543 167.64 160.573 167.11 159.903C166.58 159.243 165.8 158.903 164.77 158.903H163.48V158.913Z" fill="#2E343D"/>
</svg>
