<svg width="63" height="50" viewBox="0 0 63 50" fill="none" xmlns="http://www.w3.org/2000/svg">
<path d="M26.4127 24.6275C26.4127 25.9854 26.9426 27.2651 27.9059 28.2298C28.8693 29.1919 30.1426 29.7231 31.4913 29.7231C34.3008 29.7231 36.5869 27.437 36.5869 24.6275V24.0325H50.8387C53.2641 24.0325 55.2377 22.0589 55.2377 19.6335L55.2365 8.90461C55.2365 8.54528 54.9448 8.25366 54.5855 8.25366C54.2262 8.25366 53.9346 8.54528 53.9346 8.90461L53.9359 19.6335C53.9359 21.3415 52.5454 22.7306 50.8387 22.7306H36.5869V18.9864C36.5869 17.9085 35.7186 17.0323 34.651 17.0323H28.3486C27.281 17.0323 26.4127 17.9085 26.4127 18.9864V22.7306H12.1622C10.4542 22.7306 9.06504 21.3415 9.06504 19.6335V8.90461C9.06504 8.54528 8.77342 8.25366 8.4141 8.25366C8.05348 8.25366 7.76315 8.54528 7.76315 8.90461V19.6335C7.76315 22.0589 9.73551 24.0325 12.1622 24.0325H26.4127V24.6275ZM27.7146 18.9864C27.7146 18.6271 27.9997 18.3342 28.3486 18.3342H34.651C34.9999 18.3342 35.285 18.6271 35.285 18.9864V24.6275C35.285 26.7196 33.5835 28.4212 31.4913 28.4212C30.4902 28.4212 29.545 28.0254 28.8264 27.3094C28.1103 26.5907 27.7146 25.639 27.7146 24.6275V18.9864Z" fill="#F83908"/>
<path d="M58.9369 8.2542H41.7975V4.11161C41.7975 1.85152 39.9593 0.0119629 37.6992 0.0119629H25.3013C23.04 0.0119629 21.2017 1.85152 21.2017 4.11161V8.2542H4.07928C2.09652 8.2542 0.484772 9.85943 0.484772 11.8331V22.9668C0.484772 23.3262 0.775102 23.6178 1.13572 23.6178C1.49504 23.6178 1.78666 23.3262 1.78666 22.9668V11.8331C1.78666 10.5768 2.81516 9.55609 4.07928 9.55609H26.6918C27.0524 9.55609 27.3427 9.26446 27.3427 8.90514C27.3427 8.54584 27.0524 8.2542 26.6918 8.2542H22.5036V4.11161C22.5036 2.56887 23.7586 1.31385 25.3013 1.31385H37.6992C39.2419 1.31385 40.4957 2.56887 40.4957 4.11161V8.2542H31.2392C30.8786 8.2542 30.5883 8.54584 30.5883 8.90514C30.5883 9.26446 30.8786 9.55609 31.2392 9.55609H58.9369C60.2127 9.55609 61.2139 10.5559 61.2139 11.8331V46.4099C61.2139 47.6649 60.1919 48.6856 58.9369 48.6856H54.9167C54.5573 48.6856 54.2657 48.9772 54.2657 49.3365C54.2657 49.6972 54.5573 49.9875 54.9167 49.9875H58.9369C60.9105 49.9875 62.5158 48.3823 62.5158 46.4099V11.8331C62.5158 9.85943 60.9105 8.2542 58.9369 8.2542Z" fill="black"/>
<path d="M1.13514 27.5162C0.775813 27.5162 0.484192 27.8078 0.484192 28.1671V46.4092C0.484192 48.3828 2.09723 49.9881 4.07868 49.9881H49.508C49.8686 49.9881 50.1589 49.6964 50.1589 49.3371C50.1589 48.9765 49.8686 48.6862 49.508 48.6862H46.2546V23.3814C46.2546 23.0221 45.963 22.7305 45.6037 22.7305C45.243 22.7305 44.9527 23.0221 44.9527 23.3814V48.6862H18.0479V23.3814C18.0479 23.0221 17.7563 22.7305 17.397 22.7305C17.0364 22.7305 16.7461 23.0221 16.7461 23.3814V48.6862H4.07868C2.81456 48.6862 1.78608 47.6655 1.78608 46.4092V28.1671C1.78608 27.8078 1.49444 27.5162 1.13514 27.5162Z" fill="black"/>
</svg>
