<svg width="69" height="70" viewBox="0 0 69 70" fill="none" xmlns="http://www.w3.org/2000/svg">
<path d="M19.2783 50.948H9.1158C7.70326 50.948 6.55499 52.0963 6.55499 53.5088V63.6583C6.55499 65.0709 7.70326 66.2191 9.1158 66.2191C9.47643 66.2191 9.76674 65.9275 9.76674 65.5682C9.76674 65.2089 9.47643 64.9172 9.1158 64.9172C8.42191 64.9172 7.85688 64.3522 7.85688 63.6583V53.5088C7.85688 52.8149 8.42191 52.2499 9.1158 52.2499H19.2783C19.9722 52.2499 20.5373 52.8149 20.5373 53.5088V63.6583C20.5373 64.3522 19.9722 64.9172 19.2783 64.9172H14.5928C14.2335 64.9172 13.9419 65.2089 13.9419 65.5682C13.9419 65.9275 14.2335 66.2191 14.5928 66.2191H19.2783C20.6909 66.2191 21.8392 65.0709 21.8392 63.6583V53.5088C21.8392 52.0963 20.6909 50.948 19.2783 50.948Z" fill="#F83908"/>
<path d="M59.8842 50.9482H49.7216C48.3091 50.9482 47.1608 52.0965 47.1608 53.5091C47.1608 53.8697 47.4524 54.16 47.8118 54.16C48.1711 54.16 48.4627 53.8697 48.4627 53.5091C48.4627 52.8152 49.0277 52.2501 49.7216 52.2501H59.8842C60.5781 52.2501 61.1431 52.8152 61.1431 53.5091V63.6586C61.1431 64.3525 60.5781 64.9175 59.8842 64.9175H49.7216C49.0277 64.9175 48.4627 64.3525 48.4627 63.6586V57.8248C48.4627 57.4642 48.1711 57.1739 47.8118 57.1739C47.4524 57.1739 47.1608 57.4642 47.1608 57.8248V63.6586C47.1608 65.0711 48.3091 66.2194 49.7216 66.2194H59.8842C61.2967 66.2194 62.445 65.0711 62.445 63.6586V53.5091C62.445 52.0965 61.2967 50.9482 59.8842 50.9482Z" fill="#F83908"/>
<path d="M42.0706 63.6581V53.5099C42.0706 52.0973 40.9223 50.9478 39.5098 50.9478H29.3472C27.9347 50.9478 26.7864 52.0973 26.7864 53.5099V63.6581C26.7864 65.0706 27.9347 66.2189 29.3472 66.2189H39.5098C40.9223 66.2189 42.0706 65.0706 42.0706 63.6581ZM28.0883 63.6581V53.5099C28.0883 52.8146 28.6533 52.2496 29.3472 52.2496H39.5098C40.2037 52.2496 40.7687 52.8146 40.7687 53.5099V63.6581C40.7687 64.352 40.2037 64.917 39.5098 64.917H29.3472C28.6533 64.917 28.0883 64.352 28.0883 63.6581Z" fill="#F83908"/>
<path d="M45.2328 14.6072C45.0896 14.8156 45.0779 15.0876 45.2054 15.3064C45.8863 16.4703 46.3745 17.6745 46.657 18.8865C46.7169 19.1404 46.9213 19.3344 47.1778 19.38L50.5627 19.9788C50.6018 19.9854 50.6395 19.9892 50.6773 19.9892C50.9871 19.9892 51.2618 19.7666 51.3165 19.4516C51.3803 19.0975 51.1433 18.759 50.7892 18.6978L47.8196 18.1718C47.5332 17.1017 47.1023 16.0419 46.5347 15.0121L48.2844 12.4813C48.7687 11.7731 48.6841 10.8097 48.0826 10.1874L45.9722 8.02491C45.346 7.41953 44.3905 7.34663 43.7083 7.84787L41.2529 9.61712C40.2674 9.05601 39.235 8.62247 38.1753 8.32304L37.6506 5.28964C37.5282 4.43041 36.7809 3.78076 35.9126 3.78076H32.9443C32.0772 3.78076 31.3299 4.43041 31.2102 5.27143L30.6816 8.32304C29.618 8.62247 28.5895 9.05732 27.6143 9.61712L25.1486 7.84787C24.8556 7.63696 24.4495 7.70466 24.2399 7.99628C24.0302 8.2879 24.0967 8.6954 24.3896 8.90499L27.2003 10.9229C27.4138 11.0765 27.6977 11.0843 27.9216 10.9489C29.0165 10.2733 30.1895 9.77855 31.408 9.47783C31.6593 9.41533 31.8494 9.21094 31.8937 8.95577L32.4951 5.47451C32.5277 5.25059 32.7203 5.08265 32.9443 5.08265H35.9126C36.1365 5.08265 36.3305 5.25059 36.3643 5.49275L36.9632 8.95577C37.0075 9.21094 37.1988 9.41533 37.4488 9.47783C38.6609 9.77726 39.8391 10.2733 40.9509 10.9503C41.1761 11.0869 41.4599 11.0752 41.6708 10.9229L44.4738 8.90108C44.6495 8.76959 44.8956 8.79564 45.0544 8.94794L47.1491 11.0948C47.3236 11.2744 47.3484 11.5426 47.2116 11.7431L45.2328 14.6072Z" fill="black"/>
<path d="M14.198 51.0981C14.5573 51.0981 14.8489 50.8065 14.8489 50.4472V46.9751C14.8489 46.2564 15.4335 45.6732 16.1508 45.6732H33.7784V50.4472C33.7784 50.8065 34.0687 51.0981 34.4293 51.0981C34.7886 51.0981 35.0803 50.8065 35.0803 50.4472V45.6732H52.8497C53.5684 45.6732 54.1516 46.2564 54.1516 46.9751V50.4472C54.1516 50.8065 54.4432 51.0981 54.8025 51.0981C55.1632 51.0981 55.4535 50.8065 55.4535 50.4472V46.9751C55.4535 45.5378 54.2857 44.3713 52.8497 44.3713H35.0803V40.1818H35.9135C36.7805 40.1818 37.5278 39.5322 37.6476 38.6911L38.1748 35.6395C39.2476 35.3362 40.2774 34.8988 41.2447 34.335L43.7027 36.1108C44.4083 36.6303 45.3704 36.5456 45.9862 35.9116L48.077 33.7804C48.6902 33.1686 48.7774 32.2012 48.2827 31.48L46.5355 28.9504C47.0876 27.9428 47.5172 26.883 47.8166 25.7908L50.7888 25.2648C51.1429 25.2023 51.3799 24.8651 51.3174 24.511C51.2536 24.1569 50.9164 23.9186 50.5636 23.9824L47.1787 24.5813C46.9235 24.6269 46.7191 24.8169 46.6592 25.0695C46.3559 26.3193 45.8664 27.5262 45.2063 28.6562C45.0787 28.8749 45.0892 29.147 45.2324 29.3553L47.2099 32.2182C47.3466 32.4161 47.3232 32.6934 47.1514 32.8652L45.0527 35.0029C44.89 35.1722 44.6569 35.1956 44.4695 35.0589L41.6574 33.0279C41.4413 32.8717 41.1535 32.8626 40.9296 33.0045C39.8504 33.6828 38.6787 34.1801 37.4484 34.4848C37.1984 34.5472 37.0084 34.7516 36.9641 35.0068L36.3613 38.4881C36.3301 38.7107 36.1374 38.8799 35.9135 38.8799H34.4514C34.4436 38.8799 34.4358 38.8747 34.4293 38.8747C34.4215 38.8747 34.4137 38.8799 34.4059 38.8799H32.9439C32.7212 38.8799 32.5273 38.7107 32.4921 38.4698L31.8932 35.0068C31.8503 34.7516 31.6589 34.5472 31.4089 34.4848C30.1787 34.1814 29.0083 33.6828 27.9264 33.0045C27.7025 32.8626 27.4147 32.8717 27.1986 33.0279L24.3839 35.0615C24.2004 35.1956 23.9674 35.1722 23.8007 35.0003L21.7008 32.86C21.5341 32.6934 21.5107 32.4174 21.6461 32.2195L23.625 29.3553C23.7682 29.147 23.7786 28.8749 23.651 28.6562C22.9909 27.5262 22.5014 26.3193 22.1994 25.0695C22.1382 24.8169 21.9338 24.6269 21.6799 24.5813L18.2911 23.9824C18.0724 23.9447 17.9084 23.7338 17.9084 23.4916V20.4712C17.9084 20.2278 18.0724 20.0169 18.2937 19.9791L21.6799 19.3803C21.9364 19.3347 22.1408 19.1407 22.1994 18.8869C22.4819 17.6748 22.9701 16.4706 23.651 15.3054C23.7786 15.0866 23.7695 14.8145 23.625 14.6076L21.6461 11.7434C21.4404 11.4466 21.0355 11.3724 20.74 11.5781C20.4444 11.7811 20.3702 12.1873 20.5746 12.4829L22.3218 15.0111C21.7554 16.0422 21.3245 17.102 21.0368 18.1708L18.0711 18.6968C17.2223 18.8426 16.6065 19.5886 16.6065 20.4712V23.4916C16.6065 24.3743 17.2223 25.1203 18.0685 25.2648L21.0407 25.7908C21.3401 26.883 21.7698 27.9428 22.3218 28.9504L20.5733 31.4813C20.0799 32.2012 20.1671 33.1686 20.7764 33.7765L22.8686 35.909C23.4844 36.5456 24.4477 36.6316 25.1508 36.1134L27.6126 34.335C28.5799 34.9001 29.6097 35.3375 30.6825 35.6395L31.2058 38.6729C31.3295 39.5322 32.0768 40.1818 32.9439 40.1818H33.7784V44.3713H16.1508C14.7148 44.3713 13.5471 45.5378 13.5471 46.9751V50.4472C13.5471 50.8065 13.8387 51.0981 14.198 51.0981Z" fill="black"/>
<path d="M34.4287 13.3682C29.682 13.3682 25.8206 17.2283 25.8206 21.9749C25.8206 26.7281 29.682 30.5947 34.4287 30.5947C39.1753 30.5947 43.0367 26.7281 43.0367 21.9749C43.0367 17.2283 39.1753 13.3682 34.4287 13.3682ZM34.4287 29.2928C30.4006 29.2928 27.1224 26.0108 27.1224 21.9749C27.1224 17.9469 30.4006 14.6701 34.4287 14.6701C38.4567 14.6701 41.7348 17.9469 41.7348 21.9749C41.7348 26.0108 38.4567 29.2928 34.4287 29.2928Z" fill="black"/>
</svg>
