<svg width="96" height="96" viewBox="0 0 96 96" fill="none" xmlns="http://www.w3.org/2000/svg">
<path d="M74.977 54.1516C74.6338 54.1516 74.3048 53.9553 74.1527 53.6219C72.451 49.8913 68.701 47.4812 64.6008 47.4812H31.3974C27.2989 47.4812 23.5489 49.8913 21.8455 53.6219C21.6385 54.0774 21.1026 54.2772 20.6444 54.0685C20.1898 53.8607 19.9899 53.3238 20.1969 52.8683C22.1957 48.4957 26.5914 45.6699 31.3974 45.6699H64.6008C69.4086 45.6699 73.8042 48.4957 75.8013 52.8701C76.0082 53.3247 75.8083 53.8624 75.3537 54.0703C75.2317 54.1251 75.1026 54.1516 74.977 54.1516Z" fill="black"/>
<path d="M79.8775 91.0135H72.795C72.2944 91.0135 71.8893 90.6084 71.8893 90.1078C71.8893 89.6072 72.2944 89.2022 72.795 89.2022H79.8775C81.9312 89.2022 83.6346 87.5969 83.7567 85.5468L85.3681 58.5388C85.4389 57.39 85.0409 56.295 84.252 55.4548C83.4595 54.6146 82.3911 54.1512 81.2396 54.1512H14.762C13.6104 54.1512 12.5403 54.6137 11.7496 55.4539C10.9589 56.2941 10.5627 57.3891 10.6317 58.538L10.8952 62.9407C10.9253 63.4395 10.545 63.8684 10.0462 63.8985C9.51198 63.9286 9.11752 63.5483 9.08745 63.0486L8.82389 58.6467C8.72306 56.9946 9.29441 55.4194 10.4318 54.2122C11.5515 53.0226 13.1293 52.3398 14.762 52.3398H81.2396C82.8722 52.3398 84.4501 53.0226 85.5715 54.214C86.7071 55.4212 87.2767 56.9964 87.1759 58.6476L85.5645 85.6547C85.3858 88.6591 82.8882 91.0135 79.8775 91.0135Z" fill="#F83908"/>
<path d="M66.2312 91.0141H16.1245C13.1157 91.0141 10.6162 88.6606 10.4358 85.6553L9.40811 69.2756C9.37627 68.7768 9.75658 68.3461 10.2554 68.3151C10.7949 68.2966 11.1841 68.6645 11.2159 69.1624L12.2436 85.5448C12.3674 87.5967 14.0708 89.2028 16.1245 89.2028H66.2312C66.7318 89.2028 67.1369 89.6079 67.1369 90.1085C67.1369 90.6091 66.7318 91.0141 66.2312 91.0141Z" fill="#F83908"/>
<path d="M47.9998 79.1682C43.9349 79.1682 40.6289 75.8604 40.6289 71.7956C40.6289 67.7307 43.9349 64.4238 47.9998 64.4238C52.0646 64.4238 55.3724 67.7307 55.3724 71.7956C55.3724 75.8604 52.0646 79.1682 47.9998 79.1682ZM47.9998 66.2351C44.9343 66.2351 42.4402 68.7293 42.4402 71.7956C42.4402 74.8619 44.9343 77.3569 47.9998 77.3569C51.067 77.3569 53.5611 74.8619 53.5611 71.7956C53.5611 68.7293 51.067 66.2351 47.9998 66.2351Z" fill="black"/>
<path d="M48.007 47.4814C39.9074 47.4814 33.543 39.4437 31.0559 31.9746C30.1556 29.2869 29.6992 26.6415 29.6992 24.1138C29.6992 23.4452 29.7275 22.8057 29.7965 22.1521C30.7411 12.3685 38.5701 4.98438 48.007 4.98438C52.0701 4.98438 55.9174 6.3464 59.1314 8.92276C59.5223 9.23585 59.5842 9.80542 59.2729 10.1955C58.9581 10.589 58.3867 10.6483 57.9993 10.3361C55.109 8.01975 51.6544 6.7957 48.007 6.7957C39.5076 6.7957 32.4533 13.4758 31.599 22.3334C31.5353 22.9313 31.5105 23.5106 31.5105 24.1138C31.5105 26.446 31.9351 28.8977 32.7735 31.4015C35.0624 38.2745 40.8042 45.6701 48.007 45.6701C55.201 45.6701 60.9392 38.2745 63.2263 31.4033C64.0666 28.8977 64.4911 26.446 64.4911 24.1138C64.4911 23.5106 64.4663 22.9313 64.4044 22.3414C64.1161 19.3662 63.0937 16.513 61.4469 14.0808C61.1674 13.6669 61.2753 13.1035 61.6892 12.8231C62.1031 12.5436 62.6656 12.6515 62.9469 13.0654C64.7617 15.7471 65.8903 18.8912 66.2069 22.1592C66.2741 22.8057 66.3024 23.4452 66.3024 24.1138C66.3024 26.6415 65.846 29.2869 64.9439 31.9764C62.4587 39.4437 56.0978 47.4814 48.007 47.4814Z" fill="black"/>
</svg>
