<svg width="69" height="70" viewBox="0 0 69 70" fill="none" xmlns="http://www.w3.org/2000/svg">
<path d="M43.4211 26.5266C41.1479 28.8413 37.9909 30.2721 34.4992 30.2721C31.0088 30.2721 27.8531 28.8413 25.58 26.5266C26.0669 25.5228 26.7165 24.6193 27.4977 23.8473C29.2929 22.0507 31.7704 20.9441 34.4992 20.9441C38.4179 20.9441 41.808 23.2185 43.4211 26.5266Z" fill="white"/>
<path d="M34.499 30.9229C30.9443 30.9229 27.612 29.5238 25.1163 26.9829C24.923 26.7865 24.8747 26.4903 24.9942 26.2424C25.5117 25.1763 26.1995 24.2145 27.0399 23.3843C29.0308 21.3921 31.6804 20.293 34.499 20.293C38.5738 20.293 42.2175 22.5719 44.0063 26.2411C44.1271 26.489 44.0788 26.7859 43.8856 26.9829C41.3899 29.5238 38.0563 30.9229 34.499 30.9229ZM26.3787 26.3981C28.5871 28.48 31.4528 29.621 34.499 29.621C37.5478 29.621 40.4147 28.48 42.6218 26.3987C40.9881 23.4237 37.9165 21.5949 34.499 21.5949C32.0287 21.5949 29.7059 22.5579 27.9578 24.3073C27.331 24.9271 26.8021 25.6283 26.3787 26.3981Z" fill="#F83908"/>
<path d="M39.9871 15.4567C39.9871 18.4863 37.5304 20.9416 34.5022 20.9416C31.4727 20.9416 29.0173 18.4863 29.0173 15.4567C29.0173 12.4273 31.4727 9.97192 34.5022 9.97192C37.5304 9.97192 39.9871 12.4273 39.9871 15.4567Z" fill="white"/>
<path d="M34.5028 21.5923C31.1184 21.5923 28.3658 18.8398 28.3658 15.4567C28.3658 12.0736 31.1184 9.32104 34.5028 9.32104C37.8859 9.32104 40.6384 12.0736 40.6384 15.4567C40.6384 18.8398 37.8859 21.5923 34.5028 21.5923ZM34.5028 10.6229C31.8367 10.6229 29.6677 12.7913 29.6677 15.4567C29.6677 18.1221 31.8367 20.2905 34.5028 20.2905C37.1676 20.2905 39.3365 18.1221 39.3365 15.4567C39.3365 12.7913 37.1676 10.6229 34.5028 10.6229Z" fill="#F83908"/>
<path d="M60.9851 60.9406C58.7107 63.2541 55.5549 64.6849 52.0632 64.6849C48.5728 64.6849 45.4158 63.2541 43.1427 60.9406C43.6296 59.9356 44.2792 59.0321 45.0617 58.2614C46.8569 56.4648 49.3332 55.3582 52.0632 55.3582C55.9806 55.3582 59.3707 57.6313 60.9851 60.9406Z" fill="white"/>
<path d="M52.063 65.336C48.507 65.336 45.1747 63.9368 42.679 61.3972C42.4858 61.2008 42.4375 60.9046 42.557 60.6573C43.0744 59.5894 43.7635 58.6276 44.6039 57.798C46.5949 55.8064 49.2444 54.7073 52.063 54.7073C56.1378 54.7073 59.7803 56.9862 61.5704 60.6554C61.6911 60.9033 61.6428 61.2008 61.4496 61.3972C58.9526 63.9374 55.6191 65.336 52.063 65.336ZM43.9415 60.8124C46.1499 62.8937 49.0155 64.0341 52.063 64.0341C55.1105 64.0341 57.9762 62.8937 60.1858 60.8124C58.5508 57.838 55.4805 56.0092 52.063 56.0092C49.5927 56.0092 47.2699 56.9722 45.5218 58.7216C44.8938 59.3408 44.3649 60.042 43.9415 60.8124Z" fill="#F83908"/>
<path d="M57.5499 49.8708C57.5499 52.9003 55.0945 55.3557 52.0651 55.3557C49.0355 55.3557 46.5802 52.9003 46.5802 49.8708C46.5802 46.8413 49.0355 44.386 52.0651 44.386C55.0945 44.386 57.5499 46.8413 57.5499 49.8708Z" fill="white"/>
<path d="M52.0655 56.0067C48.6811 56.0067 45.9286 53.2541 45.9286 49.871C45.9286 46.4879 48.6811 43.7354 52.0655 43.7354C55.4486 43.7354 58.2012 46.4879 58.2012 49.871C58.2012 53.2541 55.4486 56.0067 52.0655 56.0067ZM52.0655 45.0372C49.3994 45.0372 47.2305 47.2056 47.2305 49.871C47.2305 52.5364 49.3994 54.7048 52.0655 54.7048C54.7303 54.7048 56.8993 52.5364 56.8993 49.871C56.8993 47.2056 54.7303 45.0372 52.0655 45.0372Z" fill="#F83908"/>
<path d="M25.8584 60.9406C23.5852 63.2541 20.4282 64.6849 16.9365 64.6849C13.4461 64.6849 10.289 63.2541 8.01599 60.9406C8.50285 59.9356 9.15252 59.0321 9.93497 58.2614C11.7302 56.4648 14.2077 55.3582 16.9365 55.3582C20.8538 55.3582 24.2453 57.6313 25.8584 60.9406Z" fill="white"/>
<path d="M16.9362 65.336C13.3802 65.336 10.0479 63.9368 7.55219 61.3972C7.35894 61.2008 7.31063 60.9046 7.43014 60.6573C7.94758 59.5894 8.63667 58.6276 9.47705 57.798C11.468 55.8064 14.1176 54.7073 16.9362 54.7073C21.0122 54.7073 24.6547 56.9862 26.4435 60.6554C26.5643 60.9033 26.516 61.2002 26.3228 61.3972C23.827 63.9368 20.4935 65.336 16.9362 65.336ZM8.81466 60.8124C11.023 62.8937 13.8887 64.0341 16.9362 64.0341C19.985 64.0341 22.8506 62.8937 25.059 60.8124C23.4253 57.838 20.3549 56.0092 16.9362 56.0092C14.4659 56.0092 12.1431 56.9722 10.395 58.7216C9.76692 59.3408 9.23803 60.042 8.81466 60.8124Z" fill="#F83908"/>
<path d="M22.4231 49.8708C22.4231 52.9003 19.9677 55.3557 16.9382 55.3557C13.9101 55.3557 11.4534 52.9003 11.4534 49.8708C11.4534 46.8413 13.9101 44.386 16.9382 44.386C19.9677 44.386 22.4231 46.8413 22.4231 49.8708Z" fill="white"/>
<path d="M16.9388 56.0067C13.5544 56.0067 10.8019 53.2541 10.8019 49.871C10.8019 46.4879 13.5544 43.7354 16.9388 43.7354C20.3219 43.7354 23.0745 46.4879 23.0745 49.871C23.0745 53.2541 20.3219 56.0067 16.9388 56.0067ZM16.9388 45.0372C14.2727 45.0372 12.1038 47.2056 12.1038 49.871C12.1038 52.5364 14.2727 54.7048 16.9388 54.7048C19.6036 54.7048 21.7726 52.5364 21.7726 49.871C21.7726 47.2056 19.6036 45.0372 16.9388 45.0372Z" fill="#F83908"/>
<path d="M64.5469 51.5515C64.1875 51.5515 63.8959 51.8432 63.8959 52.2025C63.8959 55.3153 62.6982 58.2562 60.5214 60.4838C58.2705 62.7738 55.267 64.034 52.0644 64.034C48.8605 64.034 45.8557 62.7738 43.6073 60.4851C41.4306 58.2562 40.2315 55.3153 40.2315 52.2025C40.2315 45.6839 45.5393 40.38 52.0644 40.38C56.5793 40.38 60.7662 43.0085 62.7282 47.0744C62.8856 47.3985 63.2802 47.5339 63.5965 47.3777C63.9207 47.2214 64.0561 46.8322 63.8999 46.5093C62.9443 44.5266 61.494 42.877 59.7638 41.6233C60.3262 39.4687 60.6217 37.2451 60.6217 35.0006C60.6217 25.1206 54.9168 15.9657 46.0692 11.5836C43.8508 7.46963 39.4973 4.66406 34.4994 4.66406C34.14 4.66406 33.8484 4.95568 33.8484 5.31501C33.8484 5.67564 34.14 5.96595 34.4994 5.96595C38.9987 5.96595 42.9186 8.48899 44.9196 12.1942C44.9444 12.2931 44.9834 12.3869 45.0511 12.465C45.8635 14.0676 46.3322 15.872 46.3322 17.7884C46.3322 20.9025 45.1331 23.8435 42.9564 26.0697C40.708 28.3597 37.7046 29.6213 34.4994 29.6213C31.2954 29.6213 28.2932 28.3597 26.0449 26.071C23.8669 23.8448 22.6678 20.9038 22.6678 17.7884C22.6678 13.6367 24.8901 9.73752 28.469 7.61544C28.7775 7.43188 28.8804 7.03219 28.6955 6.72234C28.5145 6.41379 28.1136 6.31355 27.805 6.49583C25.7312 7.72609 24.0804 9.50057 22.9647 11.5654C18.1438 13.9426 14.2198 17.679 11.6187 22.3932C11.4442 22.7069 11.5588 23.104 11.8738 23.2771C11.9741 23.3318 12.0822 23.3579 12.1889 23.3579C12.4167 23.3579 12.6394 23.2368 12.7578 23.022C14.9372 19.0746 18.2258 15.7444 22.1262 13.4883C21.6471 14.8579 21.3659 16.3029 21.3659 17.7884C21.3659 21.2449 22.6978 24.51 25.1154 26.9836C27.0838 28.9872 29.5769 30.267 32.2849 30.7252L16.7546 39.0873C14.4372 39.1198 12.2684 39.7564 10.3871 40.8435C9.92752 38.9376 9.68151 36.9782 9.68151 35.0006C9.68151 32.6182 10.0174 30.2657 10.6787 28.0056C10.7816 27.6606 10.5824 27.2987 10.2387 27.1984C9.88851 27.0943 9.53173 27.2948 9.43018 27.6398C8.73243 30.0183 8.37963 32.4945 8.37963 35.0006C8.37963 37.236 8.67252 39.4505 9.23105 41.5973C5.949 43.985 3.80212 47.8437 3.80212 52.2025C3.80212 55.6577 5.13397 58.9228 7.55156 61.3977C10.0473 63.9377 13.3814 65.3359 16.9369 65.3359C20.4937 65.3359 23.8265 63.9377 26.3235 61.3964C26.714 60.9954 27.0643 60.5697 27.3976 60.131C29.7006 60.7793 32.0857 61.1217 34.4994 61.1217C36.9143 61.1217 39.3007 60.7793 41.6025 60.131C41.9357 60.5697 42.2885 60.9967 42.6791 61.3977C45.1749 63.9377 48.5077 65.3359 52.0644 65.3359C55.6186 65.3359 58.9527 63.9377 61.451 61.3964C63.8673 58.9228 65.1978 55.6577 65.1978 52.2025C65.1978 51.8432 64.9075 51.5515 64.5469 51.5515ZM43.8859 26.9823C46.3035 24.5087 47.6341 21.2436 47.6341 17.7884C47.6341 16.2847 47.3672 14.8448 46.8998 13.5C54.499 17.9003 59.3198 26.1465 59.3198 35.0006C59.3198 36.986 59.0699 38.9532 58.6077 40.8669C56.6978 39.7642 54.521 39.1263 52.2545 39.0925L36.7151 30.7252C39.4244 30.267 41.9175 28.9872 43.8859 26.9823ZM25.3939 60.4838C23.1456 62.7738 20.1409 64.034 16.9369 64.034C13.733 64.034 10.7295 62.7738 8.48118 60.4851C6.30308 58.2562 5.10401 55.3153 5.10401 52.2025C5.10401 45.6839 10.4118 40.38 16.9369 40.38C23.4619 40.38 28.7698 45.6839 28.7698 52.2025C28.7698 55.3153 27.5707 58.2562 25.3939 60.4838ZM28.1722 58.9879C29.4012 56.9569 30.0716 54.6292 30.0716 52.2025C30.0716 45.7204 25.3393 40.3332 19.1462 39.2786L34.4994 31.0117L49.8538 39.2786C43.6607 40.3332 38.9296 45.7204 38.9296 52.2025C38.9296 54.6292 39.5988 56.9557 40.8278 58.9879C36.7086 60.0685 32.2927 60.0685 28.1722 58.9879Z" fill="black"/>
</svg>
