<svg width="78" height="77" viewBox="0 0 78 77" fill="none" xmlns="http://www.w3.org/2000/svg">
<path d="M17.1388 51.4577C16.9085 51.4577 16.6784 51.3682 16.4993 51.1933C16.1454 50.8394 16.1454 50.2683 16.4993 49.9144L25.3707 41.043C26.8116 39.6021 28.6489 38.8774 30.6909 38.9498C33.611 39.0563 36.4716 37.931 38.5392 35.8634C40.7602 33.6423 41.8601 30.5304 41.5873 27.4481L36.0582 32.9772C35.8323 33.2031 35.4954 33.2928 35.1843 33.2117L28.6448 31.4596C28.3337 31.3744 28.0907 31.1313 28.0096 30.8202L26.2532 24.2764C26.1721 23.9652 26.2617 23.6327 26.4876 23.4025L32.0167 17.8734C28.9303 17.6005 25.8182 18.7004 23.5973 20.9215C21.5297 22.989 20.4043 25.8496 20.5108 28.7698C20.5833 30.8076 19.8586 32.6449 18.4177 34.09L10.2924 42.2196C9.9385 42.5692 9.36732 42.5692 9.01345 42.2196C8.65958 41.8658 8.65958 41.2946 9.01345 40.9407L17.1388 32.8111C18.2343 31.7155 18.7588 30.3812 18.7033 28.8379C18.5796 25.4147 19.8969 22.064 22.3184 19.6426C25.3835 16.5774 29.9023 15.3327 34.1142 16.3983C34.4298 16.4794 34.677 16.7223 34.7623 17.0378C34.8518 17.3489 34.7623 17.6858 34.532 17.9159L28.1332 24.3105L29.6168 29.8482L35.1503 31.3275L41.5449 24.9328C41.7751 24.7026 42.1119 24.6131 42.423 24.6984C42.7385 24.7879 42.9814 25.0351 43.0625 25.3506C44.1283 29.554 42.8834 34.077 39.8183 37.1422C37.3968 39.5636 34.0461 40.8809 30.6229 40.7572C29.0798 40.6975 27.7411 41.2262 26.6498 42.3218L17.7784 51.1932C17.6036 51.3679 17.3692 51.4575 17.1389 51.4575L17.1388 51.4577Z" fill="#FF695A"/>
<path d="M29.94 62.6908C29.8633 62.6908 29.7822 62.678 29.7055 62.6566C23.4261 60.9771 2.93359 54.2158 2.93359 37.7647V8.14516C2.93359 7.81264 3.11271 7.50991 3.40251 7.3523C11.498 2.93578 20.6722 0.599609 29.94 0.599609C39.2078 0.599609 48.3819 2.93578 56.4775 7.3523C56.7674 7.51006 56.9464 7.81279 56.9464 8.14516V33.6637H55.1388V8.68235C39.3186 0.249951 20.5613 0.249951 4.74114 8.68235V37.7647C4.74114 52.7322 23.7159 59.1524 29.94 60.8491C33.2737 59.941 39.4338 57.9246 44.8947 54.2712L45.9008 55.7718C40.0945 59.6597 33.5551 61.7572 30.1744 62.6566C30.0978 62.678 30.0211 62.6908 29.94 62.6908Z" fill="#2E3760"/>
<path d="M29.9402 57.2897C29.8549 57.2897 29.7697 57.2769 29.6844 57.2514C26.5468 56.3263 20.5658 54.2332 15.7272 50.6607C10.6882 46.9391 8.13477 42.5993 8.13477 37.765V11.3385C8.13477 10.9846 8.33945 10.6692 8.65482 10.52C15.2497 7.43357 22.6078 5.80078 29.9402 5.80078C37.2726 5.80078 44.6307 7.43357 51.2256 10.52C51.5453 10.6692 51.7456 10.9847 51.7456 11.3385V34.9599H49.9381V11.9139C37.1958 6.13314 22.6845 6.13314 9.94231 11.9139V37.765C9.94231 41.9939 12.2486 45.8435 16.8015 49.207C21.2861 52.5193 26.8579 54.5102 29.9402 55.4438C33.1289 54.4804 38.8841 52.4129 43.4328 48.9384L44.5326 50.3751C39.6302 54.1223 33.4487 56.2922 30.196 57.2514C30.115 57.2769 30.0255 57.2897 29.9402 57.2897Z" fill="#2E3760"/>
<path d="M53.9076 76.4011C53.6006 76.4011 53.3107 76.2434 53.1445 75.9791L49.9089 70.8678L44.5459 73.6813C44.2262 73.8476 43.8425 73.8093 43.5612 73.5833C43.2798 73.3616 43.1604 72.9907 43.25 72.6454L47.3254 57.4307C47.4576 56.949 47.9521 56.6634 48.4338 56.7912C48.9155 56.9191 49.2011 57.4179 49.0733 57.8996L45.5307 71.1236L49.8066 68.8813C50.2202 68.6638 50.7359 68.8002 50.9875 69.1968L53.5667 73.2723L56.4101 62.6488C56.5423 62.1671 57.0368 61.8815 57.5185 62.0093C58.0002 62.1372 58.2858 62.6318 58.1579 63.1177L54.7817 75.7278C54.6878 76.0773 54.398 76.3374 54.0441 76.3886C54.0016 76.3972 53.9547 76.4014 53.9077 76.4014L53.9076 76.4011Z" fill="#2E3760"/>
<path d="M63.4225 76.4009C63.3756 76.4009 63.333 76.3967 63.2861 76.3881C62.9322 76.337 62.6424 76.077 62.5486 75.7317L59.2063 63.2623C59.0785 62.7806 59.364 62.2818 59.8457 62.154C60.3274 62.0261 60.8219 62.3117 60.9541 62.7934L63.7634 73.272L66.3426 69.1966C66.5941 68.8002 67.1099 68.6638 67.5235 68.8811L71.795 71.1192L68.3291 58.1936C68.2013 57.7077 68.4869 57.213 68.9686 57.0852C69.4503 56.9574 69.9448 57.243 70.077 57.7247L74.0757 72.6454C74.1695 72.9907 74.0459 73.3615 73.7645 73.5832C73.4874 73.8091 73.0995 73.8476 72.784 73.6812L67.4254 70.8677L64.1856 75.9791C64.0194 76.2435 63.7294 76.4011 63.4225 76.4011V76.4009Z" fill="#2E3760"/>
<path d="M54.1334 60.7807C55.1609 60.7807 56.1115 61.0834 56.9683 61.6846C58.115 62.4946 59.6626 62.4946 60.8093 61.6846C61.8068 60.9854 62.8811 60.6956 64.1046 60.7978C65.5072 60.9215 66.8458 60.1542 67.4384 58.8795C67.9456 57.7839 68.7598 56.9739 69.8512 56.4666C71.1259 55.8741 71.8974 54.5354 71.7738 53.1371C71.6672 51.9435 71.9614 50.8351 72.6519 49.8417C73.462 48.695 73.462 47.1475 72.6519 45.9922C71.9614 45.0032 71.6672 43.8947 71.7738 42.701C71.8974 41.2985 71.1258 39.9642 69.8512 39.3715C68.7556 38.8643 67.9456 38.0501 67.4384 36.9545C66.8458 35.6841 65.5072 34.9125 64.1089 35.0361C62.8854 35.1426 61.8068 34.8528 60.8093 34.1494C59.6626 33.3437 58.115 33.3437 56.9683 34.1494C55.9878 34.8443 54.8752 35.1384 53.673 35.0361C52.2704 34.9125 50.9318 35.6841 50.3392 36.9545C49.832 38.0501 49.022 38.8643 47.9306 39.3715C46.6517 39.9641 45.88 41.2985 46.0036 42.701C46.1145 43.8989 45.8161 45.0073 45.1169 45.9964C44.3155 47.1431 44.3155 48.6907 45.1211 49.8416C45.8159 50.8306 46.1145 51.9391 46.0036 53.1369C45.88 54.5353 46.6559 55.8738 47.9306 56.4707C49.0176 56.9737 49.8318 57.7837 50.3392 58.8793C50.9318 60.154 52.2704 60.9255 53.6687 60.8019C53.8265 60.7891 53.9799 60.7806 54.1334 60.7806V60.7807ZM58.8867 64.0974C57.8508 64.0974 56.8149 63.7863 55.9282 63.1638C55.2845 62.7119 54.6151 62.5329 53.8265 62.601C51.6779 62.7929 49.6147 61.6035 48.7022 59.6425C48.3697 58.9264 47.8794 58.4403 47.1675 58.1078C45.2022 57.1913 44.0129 55.1322 44.2047 52.9751C44.2771 52.1951 44.098 51.53 43.6419 50.882C42.4013 49.1086 42.4013 46.7297 43.6377 44.9563C44.098 44.3083 44.2771 43.6432 44.2047 42.8632C44.0128 40.7018 45.2022 38.6428 47.1675 37.7347C47.8794 37.398 48.3697 36.9119 48.7022 36.1915C49.6145 34.2348 51.6779 33.0454 53.8307 33.2373C54.6151 33.3055 55.2844 33.1264 55.9281 32.6703C57.6973 31.4297 60.0802 31.4255 61.8494 32.6703C62.4931 33.1264 63.1624 33.3012 63.9511 33.2373C66.1039 33.0412 68.1629 34.2348 69.0754 36.1915C69.4079 36.9121 69.8981 37.398 70.6143 37.7347C72.5752 38.6428 73.7647 40.7018 73.5728 42.8632C73.5045 43.6434 73.6836 44.3083 74.1356 44.9607C75.3761 46.7299 75.3761 49.1128 74.1313 50.882C73.6838 51.53 73.5047 52.1951 73.5729 52.9751C73.7648 55.1322 72.5754 57.1913 70.6145 58.1078C69.8983 58.4403 69.408 58.9264 69.0797 59.6425C68.1632 61.6035 66.1041 62.7929 63.9512 62.601C63.1626 62.5328 62.4934 62.7119 61.8495 63.1638C60.9628 63.7863 59.9269 64.0974 58.8867 64.0974Z" fill="#2E3760"/>
<path d="M58.886 39.8876C54.4567 39.8876 50.8544 43.4899 50.8544 47.9192C50.8544 52.3485 54.4567 55.9551 58.886 55.9551C63.3153 55.9551 66.9219 52.3485 66.9219 47.9192C66.9219 43.4899 63.3153 39.8876 58.886 39.8876ZM58.886 57.7626C53.4634 57.7626 49.0469 53.3461 49.0469 47.9192C49.0469 42.4924 53.4634 38.0801 58.886 38.0801C64.3087 38.0801 68.7294 42.4924 68.7294 47.9192C68.7294 53.3461 64.3129 57.7626 58.886 57.7626Z" fill="#FF695A"/>
<path d="M57.1722 51.6752C57.1338 51.6752 57.0911 51.6708 57.0528 51.6666C56.7756 51.6325 56.5284 51.4663 56.3877 51.2233L54.1155 47.2842C53.8682 46.8495 54.0174 46.2995 54.448 46.048C54.8828 45.8008 55.4328 45.9458 55.6842 46.3806L57.3681 49.2965L62.2322 44.4324C62.5861 44.0785 63.1573 44.0785 63.5111 44.4324C63.865 44.7863 63.865 45.3574 63.5111 45.7113L57.8115 51.411C57.6409 51.5815 57.4107 51.6754 57.172 51.6754L57.1722 51.6752Z" fill="#FF695A"/>
</svg>
