<svg width="259" height="261" viewBox="0 0 259 261" fill="none" xmlns="http://www.w3.org/2000/svg">
<path d="M130.54 0.00656032C59.26 -0.71344 0 57.9266 0 129.207C0 184.727 35.03 232.067 84.19 250.347V205.377C58.16 189.967 40.72 161.597 40.73 129.157C40.76 81.0366 79.82 41.4166 127.94 40.7466C177.38 40.0566 217.67 79.9266 217.67 129.207C217.67 161.627 200.23 189.977 174.21 205.377V250.347C223.37 232.067 258.4 184.737 258.4 129.207C258.41 58.2966 201.28 0.73656 130.54 0.00656032Z" fill="#515760"/>
<path d="M167.221 252.277V189.557C167.221 185.138 163.639 181.557 159.221 181.557H99.1907C94.7724 181.557 91.1907 185.138 91.1907 189.557V252.277C91.1907 256.695 94.7724 260.277 99.1907 260.277H159.221C163.639 260.277 167.221 256.695 167.221 252.277Z" fill="#515760"/>
<path d="M103.221 96.4865V69.8065C103.221 69.4465 103.461 69.2065 103.821 69.2065H106.451C106.811 69.2065 107.051 69.4465 107.051 69.8065V96.4865C107.051 96.8465 106.811 97.0865 106.451 97.0865H103.821C103.461 97.0865 103.221 96.8465 103.221 96.4865Z" fill="black"/>
<path d="M112.301 89.6367V88.6767C112.301 88.3167 112.541 88.0767 112.901 88.0767H115.451C115.811 88.0767 116.051 88.3167 116.051 88.6767V89.4367C116.051 92.0667 118.481 94.0967 122.461 94.0967C126.441 94.0967 128.001 92.3067 128.001 89.9167C128.001 87.4067 125.851 86.2967 121.191 84.4167C116.651 82.6667 112.671 81.0667 112.671 76.2167C112.671 71.3667 116.211 68.8867 121.751 68.8867C127.721 68.8867 131.591 72.0767 131.591 76.8167V77.4167C131.591 77.7767 131.351 78.0167 130.991 78.0167H128.401C128.041 78.0167 127.801 77.8167 127.801 77.4967V77.0167C127.801 74.3467 125.611 72.1967 121.591 72.1967C118.281 72.1967 116.411 73.5867 116.411 76.1367C116.411 78.6867 118.481 79.6767 123.181 81.4767C127.601 83.1867 131.821 84.9367 131.821 89.7967C131.821 94.3367 128.201 97.4067 122.181 97.4067C116.161 97.4067 112.301 94.3367 112.301 89.6367Z" fill="black"/>
<path d="M136.24 87.8867V78.4067C136.24 72.7167 140.18 68.8867 146.08 68.8867C151.98 68.8867 155.96 72.7067 155.96 78.4067V87.8867C155.96 93.6167 152.02 97.4467 146.08 97.4467C140.14 97.4467 136.24 93.6267 136.24 87.8867ZM152.13 88.0467V78.3667C152.13 74.6667 149.7 72.1967 146.08 72.1967C142.46 72.1967 140.07 74.6667 140.07 78.3667V88.0467C140.07 91.7067 142.5 94.1367 146.08 94.1367C149.66 94.1367 152.13 91.7067 152.13 88.0467Z" fill="black"/>
<path d="M103.221 96.4865V69.8065C103.221 69.4465 103.461 69.2065 103.821 69.2065H106.451C106.811 69.2065 107.051 69.4465 107.051 69.8065V96.4865C107.051 96.8465 106.811 97.0865 106.451 97.0865H103.821C103.461 97.0865 103.221 96.8465 103.221 96.4865Z" fill="#2E343D"/>
<path d="M112.301 89.6367V88.6767C112.301 88.3167 112.541 88.0767 112.901 88.0767H115.451C115.811 88.0767 116.051 88.3167 116.051 88.6767V89.4367C116.051 92.0667 118.481 94.0967 122.461 94.0967C126.441 94.0967 128.001 92.3067 128.001 89.9167C128.001 87.4067 125.851 86.2967 121.191 84.4167C116.651 82.6667 112.671 81.0667 112.671 76.2167C112.671 71.3667 116.211 68.8867 121.751 68.8867C127.721 68.8867 131.591 72.0767 131.591 76.8167V77.4167C131.591 77.7767 131.351 78.0167 130.991 78.0167H128.401C128.041 78.0167 127.801 77.8167 127.801 77.4967V77.0167C127.801 74.3467 125.611 72.1967 121.591 72.1967C118.281 72.1967 116.411 73.5867 116.411 76.1367C116.411 78.6867 118.481 79.6767 123.181 81.4767C127.601 83.1867 131.821 84.9367 131.821 89.7967C131.821 94.3367 128.201 97.4067 122.181 97.4067C116.161 97.4067 112.301 94.3367 112.301 89.6367Z" fill="#2E343D"/>
<path d="M136.24 87.8867V78.4067C136.24 72.7167 140.18 68.8867 146.08 68.8867C151.98 68.8867 155.96 72.7067 155.96 78.4067V87.8867C155.96 93.6167 152.02 97.4467 146.08 97.4467C140.14 97.4467 136.24 93.6267 136.24 87.8867ZM152.13 88.0467V78.3667C152.13 74.6667 149.7 72.1967 146.08 72.1967C142.46 72.1967 140.07 74.6667 140.07 78.3667V88.0467C140.07 91.7067 142.5 94.1367 146.08 94.1367C149.66 94.1367 152.13 91.7067 152.13 88.0467Z" fill="#2E343D"/>
<path d="M98.6193 119.546V136.536C98.6193 142.746 93.4293 146.816 85.9193 146.816C78.4093 146.816 73.4993 142.756 73.4993 136.706V135.406C73.4993 134.786 73.8393 134.446 74.4593 134.446H80.4993C81.1193 134.446 81.4593 134.676 81.4593 135.006V135.626C81.4593 138.106 83.2693 139.976 85.9193 139.976C88.5693 139.976 90.6593 138.116 90.6593 135.456V130.266C90.6593 129.986 90.4893 129.866 90.2593 130.096C88.4493 131.566 86.3093 132.016 84.1593 132.016C79.6993 132.016 75.9193 129.926 73.8793 125.976C72.9193 124.166 72.5293 121.966 72.5293 119.486C72.5293 117.226 72.9193 115.256 73.5993 113.616C75.5193 109.216 79.8093 106.446 85.5093 106.446C91.2093 106.446 95.7293 109.266 97.5893 114.016C98.2693 115.656 98.6093 117.576 98.6093 119.546H98.6193ZM90.6093 119.266C90.6093 117.966 90.3793 116.786 89.8793 115.826C89.0893 114.246 87.6793 113.346 85.5893 113.346C83.4993 113.346 82.1493 114.306 81.3593 115.826C80.7993 116.786 80.5093 118.026 80.5093 119.386C80.5093 120.746 80.7893 122.096 81.4093 123.116C82.3093 124.586 83.6693 125.376 85.5293 125.376C87.5593 125.376 88.9693 124.586 89.7593 123.066C90.3793 121.996 90.6093 120.526 90.6093 119.286V119.266Z" fill="#2E343D"/>
<path d="M103.59 134.056V119.156C103.59 111.306 108.73 106.396 117.03 106.396C125.33 106.396 130.52 111.306 130.52 119.156V134.056C130.52 142.016 125.33 146.986 117.03 146.986C108.73 146.986 103.59 142.016 103.59 134.056ZM122.56 134.456V118.926C122.56 115.426 120.41 113.226 117.03 113.226C113.65 113.226 111.55 115.426 111.55 118.926V134.456C111.55 137.956 113.7 140.156 117.03 140.156C120.36 140.156 122.56 137.956 122.56 134.456Z" fill="#2E343D"/>
<path d="M135.77 134.056V119.156C135.77 111.306 140.91 106.396 149.21 106.396C157.51 106.396 162.7 111.306 162.7 119.156V134.056C162.7 142.016 157.51 146.986 149.21 146.986C140.91 146.986 135.77 142.016 135.77 134.056ZM154.74 134.456V118.926C154.74 115.426 152.59 113.226 149.21 113.226C145.83 113.226 143.73 115.426 143.73 118.926V134.456C143.73 137.956 145.88 140.156 149.21 140.156C152.54 140.156 154.74 137.956 154.74 134.456Z" fill="#2E343D"/>
<path d="M173.419 106.847H179.799C180.419 106.847 180.759 107.187 180.759 107.807V145.407C180.759 146.027 180.419 146.367 179.799 146.367H173.759C173.139 146.367 172.799 146.027 172.799 145.407V114.637C172.799 114.407 172.629 114.237 172.409 114.297L167.439 115.317C166.819 115.427 166.369 115.087 166.369 114.467V110.177C166.369 109.667 166.599 109.277 167.099 109.107L172.239 107.077C172.639 106.907 172.969 106.847 173.429 106.847H173.419Z" fill="#2E343D"/>
<path d="M124.889 241.457C123.539 241.457 122.489 240.367 121.819 239.547C116.239 232.737 112.369 230.447 110.049 229.087C108.299 228.057 105.849 227.247 106.349 225.137C106.449 224.727 106.499 224.317 106.609 223.947C107.379 221.387 109.059 218.807 111.219 219.037C112.119 219.137 113.319 219.527 114.689 220.237C118.979 222.467 120.999 225.157 122.509 227.077C123.539 225.347 125.689 222.067 129.699 216.997C139.449 204.697 149.059 199.537 150.889 198.627C151.169 198.487 151.489 198.397 151.809 198.387H151.959C152.939 198.387 152.919 198.977 153.299 199.887C153.669 200.797 154.349 201.827 153.639 202.507C151.619 204.487 147.999 208.337 142.269 215.427C136.559 222.487 133.289 229.077 130.899 233.887C128.479 238.757 128.209 241.447 125.949 241.447H124.879L124.889 241.457Z" fill="white"/>
<path d="M97.0502 164.967C97.0002 165.607 96.8602 166.197 96.6202 166.737C96.3802 167.277 96.0402 167.737 95.6102 168.127C95.1802 168.517 94.6602 168.817 94.0502 169.027C93.4402 169.247 92.7402 169.357 91.9602 169.357C91.1802 169.357 90.4202 169.217 89.7702 168.937C89.1202 168.657 88.5802 168.247 88.1302 167.727C87.6802 167.197 87.3402 166.557 87.1002 165.807C86.8602 165.057 86.7402 164.217 86.7402 163.277V162.447C86.7402 161.517 86.8602 160.667 87.1102 159.917C87.3602 159.167 87.7102 158.527 88.1702 157.997C88.6202 157.467 89.1802 157.067 89.8302 156.777C90.4802 156.497 91.2002 156.347 92.0002 156.347C92.8002 156.347 93.4802 156.457 94.0902 156.687C94.7002 156.907 95.2102 157.217 95.6302 157.617C96.0502 158.017 96.3802 158.487 96.6202 159.037C96.8602 159.587 97.0102 160.177 97.0702 160.827H94.4602C94.4302 160.447 94.3702 160.117 94.2602 159.827C94.1602 159.537 94.0102 159.297 93.8202 159.097C93.6302 158.897 93.3802 158.747 93.0802 158.647C92.7802 158.547 92.4102 158.497 91.9802 158.497C91.1002 158.497 90.4402 158.817 90.0102 159.457C89.5802 160.097 89.3602 161.087 89.3602 162.437V163.287C89.3602 163.947 89.4102 164.517 89.5002 165.007C89.6002 165.497 89.7502 165.907 89.9502 166.237C90.1602 166.567 90.4202 166.817 90.7502 166.977C91.0802 167.137 91.4702 167.227 91.9402 167.227C92.3502 167.227 92.7102 167.177 93.0102 167.087C93.3102 166.997 93.5602 166.857 93.7602 166.667C93.9602 166.477 94.1102 166.247 94.2302 165.957C94.3402 165.677 94.4102 165.347 94.4402 164.967H97.0502Z" fill="#2E343D"/>
<path d="M106.38 163.697H101.37V167.087H107.25V169.187H98.7598V156.527H107.23V158.637H101.37V161.657H106.38V163.697Z" fill="#2E343D"/>
<path d="M113.46 164.547H111.38V169.177H108.77V156.517H113.47C114.2 156.517 114.86 156.597 115.44 156.767C116.02 156.927 116.51 157.177 116.91 157.497C117.31 157.817 117.62 158.217 117.83 158.697C118.04 159.177 118.15 159.727 118.15 160.347C118.15 160.807 118.1 161.227 117.99 161.597C117.89 161.967 117.73 162.297 117.54 162.577C117.34 162.867 117.11 163.117 116.83 163.327C116.55 163.537 116.24 163.727 115.89 163.887L118.63 169.057V169.177H115.83L113.46 164.547ZM111.39 162.437H113.49C113.83 162.437 114.13 162.397 114.39 162.307C114.65 162.217 114.86 162.087 115.03 161.927C115.2 161.767 115.33 161.567 115.42 161.337C115.51 161.107 115.55 160.847 115.55 160.567C115.55 159.967 115.38 159.497 115.04 159.157C114.7 158.817 114.18 158.647 113.48 158.647H111.38V162.447L111.39 162.437Z" fill="#2E343D"/>
<path d="M129.24 158.637H125.36V169.187H122.75V158.637H118.92V156.527H129.23V158.637H129.24Z" fill="#2E343D"/>
<path d="M133.501 169.187H130.891V156.527H133.501V169.187Z" fill="#2E343D"/>
<path d="M143.53 164.007H138.52V169.177H135.91V156.517H144.15V158.627H138.52V161.897H143.53V163.997V164.007Z" fill="#2E343D"/>
<path d="M148.44 169.187H145.83V156.527H148.44V169.187Z" fill="#2E343D"/>
<path d="M158.479 163.697H153.469V167.087H159.349V169.187H150.859V156.527H159.329V158.637H153.469V161.657H158.479V163.697Z" fill="#2E343D"/>
<path d="M160.881 169.187V156.527H164.771C165.621 156.527 166.401 156.677 167.111 156.967C167.821 157.257 168.431 157.667 168.941 158.197C169.451 158.727 169.841 159.367 170.131 160.107C170.411 160.847 170.561 161.677 170.561 162.577V163.147C170.561 164.047 170.421 164.877 170.141 165.607C169.861 166.347 169.461 166.977 168.951 167.507C168.441 168.037 167.821 168.447 167.111 168.737C166.401 169.027 165.611 169.167 164.751 169.167H160.881V169.187ZM163.481 158.637V167.087H164.741C165.771 167.087 166.561 166.747 167.101 166.067C167.641 165.387 167.911 164.417 167.911 163.147V162.557C167.911 161.267 167.641 160.297 167.111 159.627C166.581 158.967 165.801 158.627 164.771 158.627H163.481V158.637Z" fill="#2E343D"/>
<path d="M23.2978 131.731L23.2661 129.225L25.1712 127.717L26.4105 126.642L29.6445 124.058L29.6784 126.743L27.508 128.5L26.4734 129.252L23.2978 131.731ZM20.6917 123.806C22.3372 123.785 23.7504 124.075 24.9314 124.677C26.1074 125.274 27.0127 126.098 27.6475 127.149C28.2822 128.195 28.608 129.386 28.6249 130.723C28.6418 132.061 28.3463 133.263 27.7383 134.329C27.1252 135.391 26.2385 136.238 25.078 136.869C23.9126 137.495 22.5096 137.819 20.8691 137.839C19.2236 137.86 17.8129 137.572 16.637 136.976C15.456 136.374 14.5481 135.55 13.9134 134.504C13.2786 133.453 12.9528 132.259 12.9359 130.922C12.919 129.585 13.2145 128.385 13.8226 127.323C14.4306 126.257 15.3174 125.41 16.4829 124.784C17.6433 124.153 19.0462 123.827 20.6917 123.806ZM20.7269 126.587C19.5686 126.602 18.594 126.796 17.8032 127.169C17.0074 127.537 16.4097 128.041 16.0101 128.683C15.6055 129.324 15.4085 130.06 15.419 130.89C15.4295 131.721 15.645 132.451 16.0657 133.082C16.4814 133.714 17.0917 134.205 17.8966 134.558C18.6965 134.906 19.6756 135.073 20.8339 135.058C21.9922 135.043 22.9693 134.852 23.7651 134.484C24.5559 134.111 25.1536 133.604 25.5582 132.962C25.9578 132.321 26.1523 131.585 26.1418 130.755C26.1313 129.925 25.9183 129.194 25.5026 128.563C25.0819 127.932 24.4716 127.442 23.6717 127.094C22.8668 126.742 21.8852 126.573 20.7269 126.587ZM24.7418 111.603L18.1812 110.599L18.5897 107.93L29.9123 109.664L29.5162 112.251L27.5038 111.943L27.4857 112.061C28.0806 112.413 28.5347 112.913 28.8481 113.56C29.1623 114.201 29.2544 114.947 29.1242 115.797C29.0106 116.539 28.7455 117.17 28.329 117.69C27.9083 118.204 27.3565 118.572 26.6737 118.794C25.9859 119.016 25.1899 119.058 24.2857 118.919L17.0763 117.815L17.4849 115.147L24.2814 116.187C24.9989 116.297 25.599 116.188 26.0819 115.859C26.5647 115.531 26.855 115.047 26.9528 114.409C27.013 114.015 26.9755 113.62 26.8402 113.222C26.705 112.824 26.4662 112.478 26.124 112.184C25.7775 111.885 25.3168 111.691 24.7418 111.603ZM31.9147 102.091C31.7007 102.785 31.3845 103.371 30.966 103.851C30.5442 104.324 30.0389 104.647 29.4499 104.819C28.8624 104.986 28.21 104.959 27.4926 104.738C26.875 104.548 26.3995 104.276 26.066 103.924C25.7325 103.571 25.5055 103.16 25.3848 102.691C25.2641 102.222 25.2183 101.721 25.2471 101.189C25.2727 100.651 25.3391 100.107 25.4462 99.5572C25.5775 98.8953 25.6786 98.3568 25.7494 97.9416C25.8155 97.525 25.8194 97.2088 25.7611 96.9931C25.6995 96.7712 25.5451 96.6221 25.2981 96.5459L25.2553 96.5328C24.7185 96.3672 24.2537 96.3981 23.861 96.6255C23.4683 96.853 23.1796 97.266 22.9949 97.8646C22.8 98.4964 22.7832 99.0401 22.9445 99.4957C23.1072 99.9465 23.3564 100.294 23.6921 100.538L22.6071 102.841C22.0006 102.446 21.5415 101.961 21.2298 101.386C20.9133 100.81 20.7408 100.171 20.7124 99.4705C20.6793 98.7684 20.7807 98.0348 21.0166 97.27C21.1793 96.7426 21.403 96.2367 21.6877 95.7522C21.9724 95.2678 22.3239 94.8533 22.7423 94.5089C23.156 94.1631 23.6454 93.9342 24.2106 93.8224C24.7772 93.7059 25.4239 93.7597 26.1508 93.9839L33.4764 96.2435L32.7115 98.7234L31.2079 98.2596L31.1815 98.3451C31.4372 98.5957 31.6541 98.9045 31.8322 99.2716C32.007 99.6325 32.1093 100.052 32.1389 100.529C32.1653 101 32.0905 101.521 31.9147 102.091ZM30.2258 100.836C30.3855 100.319 30.4218 99.8381 30.3348 99.395C30.243 98.9505 30.0576 98.5733 29.7785 98.2635C29.5009 97.949 29.1602 97.7295 28.7564 97.6049L27.4666 97.207C27.5082 97.3083 27.5275 97.4651 27.5244 97.6775C27.5228 97.8851 27.5067 98.1143 27.4762 98.365C27.4457 98.6157 27.4112 98.8626 27.3726 99.1057C27.3341 99.3487 27.3003 99.5594 27.2713 99.7378C27.2049 100.139 27.1841 100.509 27.2091 100.85C27.2341 101.191 27.3264 101.482 27.4859 101.724C27.6407 101.964 27.8844 102.135 28.217 102.238C28.692 102.385 29.1042 102.322 29.4535 102.05C29.8027 101.778 30.0602 101.373 30.2258 100.836ZM22.0666 83.131L36.0659 89.2364L34.9867 91.7109L20.9874 85.6055L22.0666 83.131ZM38.1775 84.6157L28.0909 79.1873L29.3702 76.8101L39.4568 82.2385L38.1775 84.6157ZM27.3025 77.2217C27.0999 77.5982 26.8008 77.855 26.4052 77.9922C26.0052 78.127 25.6279 78.0989 25.2733 77.9081C24.9143 77.7149 24.683 77.4154 24.5796 77.0097C24.4717 76.6016 24.5191 76.2093 24.7218 75.8328C24.9267 75.452 25.228 75.1963 25.6257 75.0659C26.0213 74.9288 26.3986 74.9568 26.7576 75.15C27.1122 75.3409 27.3434 75.6403 27.4512 76.0484C27.5571 76.4498 27.5075 76.8409 27.3025 77.2217ZM35.5068 66.7757L37.25 67.9252L33.6252 73.4226L31.882 72.2731L35.5068 66.7757ZM30.4858 69.4052L31.9718 67.1515L40.9494 73.0711C41.2524 73.2709 41.515 73.3785 41.7371 73.3939C41.9577 73.4024 42.1477 73.349 42.3071 73.2338C42.4665 73.1185 42.6077 72.9675 42.7309 72.7807C42.8239 72.6396 42.8984 72.5041 42.9543 72.3742C43.0129 72.2402 43.0544 72.1365 43.0789 72.0633L45.0912 72.8453C45.0533 72.9931 44.9854 73.1954 44.8874 73.4524C44.7922 73.7052 44.6433 73.9941 44.4409 74.3192C44.0853 74.8946 43.665 75.347 43.1799 75.6762C42.6907 76.0027 42.1593 76.1674 41.5857 76.1703C41.0148 76.1691 40.4319 75.9694 39.8369 75.5711L30.4858 69.4052ZM51.8693 71.0848C51.6312 71.3653 51.3882 71.6057 51.14 71.8059C50.8989 72.0056 50.6904 72.1514 50.5145 72.2434L49.3163 70.4051C49.6576 70.1796 49.9261 69.9478 50.1217 69.7095C50.3174 69.4713 50.4188 69.2019 50.4259 68.9015C50.44 68.6006 50.3353 68.2476 50.1116 67.8427L49.7892 67.2659L38.1858 62.8676L40.0386 60.6841L48.3426 64.2682L48.4198 64.1772L43.5367 56.5616L45.3943 54.3725L52.2186 66.178C52.5427 66.7335 52.7555 67.2857 52.8569 67.8347C52.9621 68.3869 52.9363 68.9322 52.7793 69.4706C52.6294 70.0084 52.326 70.5465 51.8693 71.0848ZM53.1622 41.5275L55.9126 39.5532L66.0494 45.8995L66.1948 45.7952L63.4248 34.1608L66.1752 32.1865L75.0813 44.5937L72.9246 46.1418L66.806 37.618L66.6909 37.7006L69.3545 48.6494L67.743 49.8062L58.2085 43.7619L58.0934 43.8445L64.225 52.3865L62.0683 53.9347L53.1622 41.5275ZM81.8863 40.81C81.235 41.1305 80.5914 41.3032 79.9553 41.328C79.3215 41.3462 78.7399 41.2002 78.2105 40.8901C77.6855 40.5777 77.2573 40.0847 76.9259 39.4111C76.6405 38.8312 76.5116 38.299 76.5391 37.8145C76.5667 37.3299 76.7096 36.8828 76.9679 36.4731C77.2262 36.0635 77.5587 35.6865 77.9656 35.3422C78.3747 34.9913 78.8159 34.6661 79.2891 34.3668C79.8606 34.008 80.3216 33.7119 80.6722 33.4784C81.0206 33.2405 81.2531 33.0263 81.37 32.8358C81.4891 32.6387 81.4915 32.4241 81.3774 32.1922L81.3576 32.152C81.1096 31.648 80.7681 31.3312 80.3331 31.2017C79.8982 31.0722 79.3997 31.1457 78.8376 31.4223C78.2443 31.7143 77.8374 32.0752 77.6167 32.5051C77.4006 32.9329 77.319 33.3526 77.372 33.7643L74.9523 34.556C74.8234 33.8437 74.861 33.1769 75.0651 32.5556C75.2669 31.9299 75.6129 31.3663 76.103 30.8647C76.5909 30.3586 77.194 29.9289 77.9122 29.5755C78.4073 29.3318 78.9288 29.1472 79.4765 29.0218C80.0243 28.8963 80.567 28.8675 81.1046 28.9354C81.64 28.9988 82.1424 29.1977 82.6116 29.5319C83.0853 29.864 83.4901 30.3713 83.8259 31.0538L87.2107 37.9323L84.8822 39.0781L84.1875 37.6663L84.1072 37.7058C84.1005 38.0637 84.0248 38.4334 83.88 38.8149C83.7376 39.1898 83.5029 39.5518 83.1761 39.901C82.8515 40.2436 82.4216 40.5466 81.8863 40.81ZM81.6394 38.7207C82.1257 38.4814 82.5 38.1781 82.7625 37.8106C83.0228 37.4388 83.1698 37.045 83.2035 36.6295C83.2418 36.2117 83.1676 35.8133 82.981 35.4341L82.385 34.223C82.3399 34.3228 82.2391 34.4444 82.0826 34.5879C81.9305 34.7293 81.7528 34.8749 81.5495 35.0248C81.3462 35.1747 81.143 35.319 80.9398 35.4578C80.7366 35.5966 80.5601 35.7167 80.4105 35.818C80.0734 36.0449 79.7895 36.2843 79.5589 36.5363C79.3282 36.7883 79.1798 37.0553 79.1135 37.3372C79.0451 37.6147 79.0877 37.9096 79.2413 38.2218C79.4608 38.6679 79.7894 38.9246 80.227 38.9918C80.6645 39.0591 81.1354 38.9687 81.6394 38.7207ZM91.8287 28.803L93.9258 35.1786L91.3613 36.0221L87.7823 25.1411L90.2334 24.3348L90.8415 26.1838L90.9691 26.1418C91.019 25.4503 91.2588 24.8349 91.6886 24.2958C92.1231 23.7552 92.7465 23.3512 93.5588 23.084C94.3097 22.8371 95.0166 22.7825 95.6795 22.9203C96.3471 23.0566 96.9346 23.3789 97.442 23.8871C97.9541 24.3938 98.3507 25.0824 98.6318 25.953L100.911 32.8811L98.3462 33.7246L96.1978 27.1932C95.9586 26.4659 95.5825 25.9589 95.0696 25.6723C94.5613 25.3842 93.9766 25.3488 93.3154 25.5663C92.8668 25.7139 92.5003 25.9443 92.2161 26.2576C91.935 26.5647 91.7559 26.935 91.6787 27.3686C91.6063 27.8006 91.6562 28.2788 91.8287 28.803ZM108.602 31.1983C107.888 31.3273 107.221 31.3162 106.603 31.1652C105.989 31.0084 105.47 30.7081 105.046 30.2642C104.627 29.8195 104.351 29.2277 104.218 28.489C104.103 27.8529 104.125 27.3058 104.285 26.8475C104.445 26.3893 104.705 25.9987 105.066 25.6759C105.427 25.353 105.851 25.0821 106.336 24.863C106.826 24.6381 107.34 24.4469 107.877 24.2892C108.525 24.1014 109.05 23.9435 109.451 23.8155C109.852 23.6826 110.134 23.5406 110.299 23.3896C110.468 23.2329 110.529 23.0273 110.483 22.7729L110.475 22.7288C110.375 22.176 110.134 21.7775 109.751 21.5334C109.369 21.2892 108.869 21.2228 108.253 21.3341C107.602 21.4516 107.112 21.6867 106.781 22.0394C106.456 22.3912 106.262 22.7723 106.2 23.1826L103.656 23.2783C103.728 22.558 103.947 21.9273 104.314 21.3861C104.68 20.84 105.168 20.3933 105.777 20.0458C106.386 19.6935 107.084 19.4462 107.871 19.304C108.414 19.2059 108.966 19.1719 109.527 19.2019C110.089 19.2319 110.618 19.3535 111.117 19.5666C111.614 19.7749 112.042 20.1042 112.401 20.5547C112.765 21.0042 113.015 21.6033 113.15 22.3518L114.513 29.896L111.959 30.3572L111.679 28.8087L111.591 28.8246C111.486 29.1669 111.312 29.5015 111.068 29.8285C110.827 30.1497 110.502 30.4333 110.092 30.6791C109.686 30.9192 109.189 31.0923 108.602 31.1983ZM108.939 29.1216C109.473 29.0253 109.916 28.8366 110.269 28.5556C110.622 28.2696 110.872 27.9315 111.018 27.5413C111.17 27.1502 111.208 26.7467 111.133 26.3308L110.893 25.0025C110.822 25.086 110.692 25.1752 110.502 25.2702C110.317 25.3642 110.106 25.4553 109.869 25.5436C109.633 25.6318 109.398 25.7146 109.164 25.7922C108.931 25.8697 108.728 25.9366 108.556 25.9929C108.17 26.1183 107.831 26.2704 107.54 26.4492C107.249 26.6281 107.033 26.8439 106.891 27.0968C106.749 27.3447 106.709 27.64 106.771 27.9824C106.859 28.4717 107.105 28.8088 107.507 28.9938C107.909 29.1789 108.386 29.2214 108.939 29.1216ZM124.227 33.5115C123.259 33.553 122.421 33.457 121.715 33.2236C121.008 32.9951 120.434 32.6714 119.993 32.2524C119.553 31.8334 119.239 31.3617 119.052 30.8372L121.456 30.1445C121.575 30.3633 121.743 30.5776 121.961 30.7872C122.179 31.0017 122.468 31.1735 122.826 31.3024C123.19 31.4361 123.643 31.4913 124.185 31.4681C124.95 31.4353 125.575 31.2219 126.061 30.8279C126.546 30.4388 126.771 29.8221 126.735 28.9777L126.642 26.8096L126.508 26.8153C126.381 27.0995 126.19 27.3938 125.934 27.6983C125.683 28.0027 125.344 28.2636 124.915 28.481C124.491 28.6982 123.952 28.8208 123.296 28.8489C122.417 28.8866 121.611 28.7147 120.878 28.3331C120.15 27.9463 119.557 27.3497 119.099 26.5432C118.647 25.7316 118.393 24.7025 118.34 23.4557C118.286 22.1991 118.449 21.1297 118.829 20.2475C119.214 19.3602 119.755 18.6777 120.451 18.2C121.147 17.7174 121.934 17.4572 122.814 17.4195C123.484 17.3907 124.04 17.4814 124.482 17.6913C124.929 17.8961 125.288 18.1519 125.56 18.4587C125.832 18.7606 126.041 19.0477 126.187 19.3201L126.336 19.3137L126.255 17.4213L128.915 17.3073L129.413 28.9376C129.455 29.9161 129.256 30.7357 128.817 31.3965C128.377 32.0572 127.76 32.5639 126.964 32.9165C126.168 33.2691 125.256 33.4674 124.227 33.5115ZM123.958 26.7007C124.529 26.6763 125.01 26.5163 125.4 26.2209C125.791 25.9255 126.079 25.5126 126.265 24.9821C126.452 24.4516 126.529 23.8213 126.498 23.0911C126.467 22.3709 126.336 21.7446 126.104 21.2121C125.877 20.6794 125.556 20.2727 125.141 19.9919C124.73 19.706 124.235 19.5755 123.654 19.6004C123.052 19.6261 122.558 19.8041 122.169 20.1343C121.78 20.4644 121.495 20.9071 121.315 21.4622C121.134 22.0123 121.059 22.6326 121.089 23.323C121.119 24.0234 121.247 24.6324 121.473 25.1502C121.704 25.6628 122.027 26.057 122.442 26.3328C122.861 26.6034 123.367 26.7261 123.958 26.7007ZM139.07 29.3686C137.927 29.2609 136.962 28.9303 136.175 28.3769C135.394 27.8189 134.821 27.0809 134.458 26.1628C134.096 25.2399 133.971 24.1819 134.083 22.989C134.194 21.816 134.513 20.8074 135.042 19.9634C135.577 19.1148 136.27 18.4811 137.124 18.0621C137.978 17.6381 138.949 17.4774 140.038 17.58C140.741 17.6462 141.393 17.8225 141.996 18.1089C142.603 18.3908 143.125 18.7895 143.561 19.3049C144.002 19.8208 144.326 20.4556 144.535 21.2093C144.744 21.9581 144.802 22.8324 144.708 23.8322L144.63 24.6564L135.282 23.7761L135.453 21.9645L142.224 22.6022C142.268 22.0869 142.2 21.6186 142.019 21.1972C141.84 20.7708 141.566 20.4229 141.196 20.1534C140.832 19.8844 140.393 19.7257 139.878 19.6772C139.329 19.6255 138.833 19.7136 138.393 19.9418C137.952 20.165 137.595 20.4809 137.322 20.8896C137.054 21.2939 136.894 21.7506 136.841 22.26L136.692 23.8414C136.63 24.5047 136.697 25.0853 136.895 25.5833C137.093 26.0764 137.398 26.4696 137.81 26.7631C138.222 27.0516 138.721 27.2234 139.305 27.2784C139.696 27.3152 140.055 27.2941 140.382 27.215C140.709 27.131 140.999 26.991 141.253 26.7952C141.506 26.5993 141.707 26.3461 141.856 26.0355L144.339 26.554C144.118 27.2023 143.762 27.753 143.27 28.206C142.783 28.6546 142.183 28.9825 141.469 29.19C140.756 29.3925 139.956 29.452 139.07 29.3686ZM148.063 30.1155L151.004 19.0449L153.498 19.7074L152.998 21.5885L153.128 21.623C153.527 21.05 154.041 20.6566 154.668 20.4427C155.297 20.224 155.982 20.213 156.722 20.4095C157.472 20.6087 158.055 20.9591 158.472 21.4609C158.895 21.9591 159.13 22.5486 159.175 23.2294L159.29 23.2601C159.699 22.7101 160.242 22.3298 160.921 22.1191C161.605 21.9048 162.349 21.9043 163.151 22.1175C164.17 22.3881 164.915 22.9308 165.388 23.7457C165.861 24.5606 165.933 25.5855 165.605 26.8204L163.631 34.2512L161.015 33.5562L162.882 26.529C163.064 25.8419 163.015 25.2912 162.734 24.8771C162.455 24.4582 162.05 24.1785 161.522 24.0381C160.892 23.8709 160.348 23.937 159.887 24.2366C159.433 24.5326 159.123 24.9929 158.957 25.6176L157.123 32.5222L154.564 31.8425L156.46 24.7072C156.612 24.1354 156.56 23.633 156.305 23.1999C156.054 22.7682 155.653 22.4789 155.1 22.3321C154.725 22.2325 154.359 22.238 154 22.3485C153.643 22.4542 153.327 22.6558 153.052 22.9532C152.779 23.2459 152.582 23.6204 152.461 24.0769L150.672 30.8086L148.063 30.1155ZM172.333 37.7901C171.287 37.3152 170.483 36.6878 169.92 35.9079C169.363 35.1254 169.063 34.2411 169.02 33.2549C168.978 32.2641 169.205 31.2233 169.701 30.1324C170.188 29.0596 170.819 28.2106 171.595 27.5853C172.377 26.9576 173.239 26.585 174.183 26.4675C175.128 26.3454 176.099 26.5105 177.095 26.9628C177.737 27.2547 178.297 27.6343 178.772 28.1016C179.255 28.5664 179.618 29.1135 179.862 29.743C180.11 30.3745 180.21 31.0805 180.161 31.861C180.114 32.637 179.883 33.4822 179.468 34.3966L179.126 35.1503L170.577 31.2677L171.33 29.611L177.522 32.4235C177.731 31.9506 177.82 31.4857 177.787 31.0286C177.757 30.5669 177.611 30.1485 177.35 29.7733C177.093 29.4002 176.73 29.1068 176.259 28.893C175.757 28.6648 175.26 28.5865 174.768 28.6583C174.279 28.7255 173.839 28.9077 173.447 29.2049C173.062 29.4996 172.761 29.879 172.545 30.3432L171.888 31.7895C171.613 32.396 171.487 32.9669 171.512 33.5022C171.538 34.033 171.698 34.5043 171.992 34.916C172.287 35.3233 172.702 35.6482 173.236 35.8908C173.594 36.0532 173.94 36.1504 174.275 36.1824C174.612 36.2099 174.932 36.1724 175.235 36.0698C175.539 35.9673 175.811 35.7936 176.054 35.5487L178.231 36.849C177.811 37.3898 177.294 37.794 176.681 38.0616C176.075 38.3268 175.401 38.441 174.658 38.4042C173.918 38.3628 173.143 38.1581 172.333 37.7901ZM186.65 37.2964L183.044 42.9567L180.767 41.5061L186.922 31.8459L189.098 33.2324L188.053 34.8739L188.166 34.946C188.733 34.5467 189.361 34.3427 190.05 34.3339C190.744 34.3279 191.451 34.5546 192.172 35.0141C192.839 35.4388 193.329 35.9514 193.642 36.5518C193.959 37.1548 194.082 37.8136 194.01 38.5281C193.942 39.2453 193.66 39.9883 193.164 40.7571L189.245 46.9079L186.968 45.4573L190.663 39.6586C191.074 39.0129 191.229 38.4008 191.126 37.8223C191.027 37.2465 190.684 36.7716 190.097 36.3976C189.699 36.1438 189.288 36.0061 188.866 35.9845C188.45 35.9614 188.05 36.0572 187.666 36.2721C187.285 36.4896 186.947 36.831 186.65 37.2964ZM204.874 44.3384L203.546 45.9504L198.463 41.7651L199.79 40.1531L204.874 44.3384ZM202.789 39.0677L204.873 40.7835L198.039 49.0855C197.808 49.3657 197.673 49.6154 197.634 49.8346C197.603 50.0531 197.636 50.2477 197.733 50.4184C197.831 50.589 197.966 50.7455 198.139 50.8876C198.27 50.9951 198.396 51.0834 198.52 51.1527C198.647 51.2252 198.745 51.2774 198.816 51.3095L197.826 53.2279C197.683 53.1747 197.489 53.0857 197.243 52.9612C197.002 52.8397 196.73 52.6612 196.429 52.4256C195.894 52.0112 195.489 51.5454 195.212 51.0283C194.939 50.5073 194.832 49.9614 194.889 49.3907C194.951 48.8232 195.211 48.2647 195.67 47.7151L202.789 39.0677ZM220.062 60.8434C220.523 60.3787 220.732 59.8313 220.688 59.2012C220.647 58.5749 220.367 57.9434 219.85 57.3066C219.487 56.859 219.107 56.5298 218.712 56.3192C218.317 56.1086 217.934 56.0125 217.565 56.0307C217.196 56.049 216.861 56.1769 216.56 56.4144C216.313 56.615 216.145 56.8449 216.054 57.1041C215.967 57.3672 215.939 57.6489 215.972 57.9491C216.008 58.2462 216.081 58.5489 216.191 58.8571C216.3 59.1653 216.425 59.4645 216.564 59.7546L217.189 61.0917C217.448 61.624 217.657 62.1687 217.815 62.7258C217.976 63.2868 218.054 63.8409 218.051 64.3884C218.05 64.9397 217.937 65.4669 217.712 65.9702C217.487 66.4734 217.117 66.9335 216.604 67.3504C215.909 67.9146 215.154 68.2338 214.336 68.3082C213.523 68.3794 212.695 68.2 211.853 67.7699C211.017 67.3405 210.214 66.6511 209.443 65.7018C208.694 64.7794 208.186 63.8627 207.92 62.9516C207.657 62.0443 207.645 61.1771 207.882 60.3499C208.123 59.5267 208.625 58.7799 209.387 58.1096L211.103 60.2225C210.715 60.5887 210.475 60.995 210.383 61.4414C210.291 61.8878 210.323 62.3452 210.479 62.8138C210.639 63.2863 210.9 63.7463 211.264 64.194C211.643 64.6609 212.045 65.0136 212.469 65.2519C212.9 65.491 213.323 65.609 213.736 65.6059C214.154 65.5997 214.534 65.4607 214.877 65.1887C215.183 64.9341 215.364 64.6365 215.42 64.296C215.481 63.9524 215.448 63.5656 215.323 63.1356C215.205 62.7063 215.028 62.2355 214.791 61.7232L214.043 60.0924C213.501 58.9123 213.254 57.8318 213.303 56.8508C213.358 55.8705 213.81 55.0355 214.659 54.346C215.358 53.7786 216.123 53.4709 216.955 53.4229C217.79 53.3786 218.619 53.567 219.441 53.988C220.267 54.4058 221.017 55.0296 221.691 55.8593C222.375 56.7006 222.827 57.5568 223.047 58.4279C223.275 59.2997 223.278 60.127 223.055 60.9097C222.837 61.6894 222.398 62.3561 221.74 62.9099L220.062 60.8434ZM212.94 76.9643C212.753 76.6476 212.605 76.3393 212.497 76.0393C212.387 75.7461 212.318 75.5014 212.288 75.3051L214.417 74.7742C214.519 75.1704 214.65 75.5 214.811 75.7628C214.972 76.0256 215.194 76.2095 215.475 76.3145C215.755 76.4264 216.123 76.4428 216.579 76.3639L217.229 76.248L225.181 66.7218L226.639 69.1869L220.535 75.8616L220.596 75.9643L229.39 73.8411L230.851 76.3126L217.463 78.8995C216.832 79.0241 216.24 79.0446 215.688 78.9608C215.132 78.8796 214.625 78.6768 214.168 78.3523C213.708 78.0347 213.299 77.572 212.94 76.9643ZM234.023 90.5341L232.834 88.363C233.037 88.2036 233.206 88.0017 233.342 87.7572C233.479 87.5174 233.555 87.2386 233.568 86.9208C233.582 86.603 233.509 86.2512 233.349 85.8654C233.134 85.3463 232.841 84.9565 232.47 84.696C232.1 84.4401 231.737 84.3886 231.381 84.5416C231.071 84.6644 230.867 84.8806 230.769 85.1902C230.673 85.5043 230.675 85.9558 230.773 86.5446L231.135 88.5095C231.334 89.6003 231.299 90.4861 231.033 91.167C230.768 91.8525 230.257 92.3544 229.501 92.6728C228.833 92.944 228.164 92.9923 227.495 92.8175C226.832 92.6455 226.217 92.2785 225.651 91.7166C225.084 91.1547 224.619 90.4328 224.253 89.5508C223.717 88.2555 223.556 87.1006 223.771 86.0861C223.991 85.0697 224.556 84.2841 225.467 83.7293L226.708 86.0645C226.276 86.3726 226.013 86.7561 225.918 87.2152C225.822 87.6743 225.894 88.1909 226.132 88.7651C226.377 89.3577 226.695 89.7827 227.087 90.0402C227.481 90.3022 227.857 90.3591 228.215 90.2108C228.518 90.0852 228.72 89.8644 228.821 89.5484C228.923 89.2369 228.926 88.8159 228.83 88.2852L228.462 86.3231C228.253 85.2205 228.298 84.3221 228.597 83.6279C228.901 82.9318 229.439 82.4262 230.213 82.1113C230.863 81.8366 231.502 81.7796 232.128 81.94C232.76 82.1032 233.34 82.4522 233.869 82.9868C234.403 83.5242 234.845 84.2155 235.195 85.0607C235.709 86.3009 235.849 87.3863 235.615 88.317C235.384 89.2523 234.853 89.9913 234.023 90.5341ZM240.421 100.358L238.41 100.921L236.635 94.5802L238.646 94.0173L240.421 100.358ZM241.727 94.843L242.454 97.4427L232.099 100.342C231.749 100.439 231.496 100.567 231.339 100.725C231.188 100.886 231.103 101.064 231.086 101.26C231.069 101.456 231.09 101.662 231.15 101.877C231.196 102.04 231.249 102.185 231.311 102.312C231.374 102.445 231.425 102.544 231.464 102.61L229.554 103.617C229.467 103.492 229.359 103.308 229.229 103.065C229.101 102.828 228.98 102.526 228.867 102.16C228.666 101.514 228.6 100.9 228.669 100.318C228.744 99.7347 228.968 99.2254 229.341 98.7904C229.717 98.3601 230.249 98.0508 230.94 97.8626L241.727 94.843ZM230.902 112.468C230.735 111.332 230.826 110.316 231.177 109.42C231.532 108.528 232.113 107.797 232.918 107.226C233.729 106.654 234.726 106.281 235.912 106.106C237.077 105.934 238.133 106.005 239.079 106.318C240.03 106.635 240.811 107.158 241.421 107.887C242.036 108.615 242.423 109.521 242.583 110.603C242.686 111.301 242.67 111.977 242.535 112.63C242.405 113.287 242.142 113.889 241.746 114.435C241.349 114.986 240.81 115.452 240.128 115.834C239.45 116.215 238.615 116.479 237.621 116.626L236.802 116.747L235.433 107.458L237.233 107.193L238.225 113.921C238.736 113.841 239.174 113.663 239.541 113.388C239.912 113.112 240.185 112.763 240.359 112.34C240.533 111.922 240.583 111.458 240.507 110.946C240.427 110.4 240.223 109.94 239.897 109.566C239.575 109.192 239.184 108.92 238.722 108.752C238.265 108.588 237.783 108.541 237.276 108.611L235.705 108.843C235.046 108.94 234.498 109.144 234.061 109.455C233.629 109.764 233.32 110.154 233.133 110.624C232.951 111.093 232.903 111.618 232.988 112.198C233.046 112.587 233.151 112.931 233.306 113.229C233.466 113.527 233.671 113.776 233.921 113.975C234.172 114.175 234.465 114.31 234.803 114.381L234.89 116.916C234.208 116.855 233.588 116.64 233.031 116.27C232.479 115.904 232.018 115.399 231.647 114.755C231.28 114.111 231.032 113.349 230.902 112.468ZM232.323 121.416L243.776 121.582L243.739 124.162L241.793 124.134L241.791 124.268C242.444 124.516 242.95 124.918 243.31 125.476C243.675 126.033 243.852 126.694 243.841 127.46C243.829 128.235 243.631 128.886 243.245 129.413C242.865 129.944 242.35 130.314 241.701 130.524L241.699 130.643C242.331 130.906 242.832 131.341 243.201 131.948C243.575 132.56 243.756 133.281 243.744 134.111C243.729 135.165 243.384 136.02 242.708 136.677C242.032 137.333 241.056 137.652 239.778 137.634L232.09 137.522L232.129 134.816L239.4 134.921C240.11 134.931 240.633 134.75 240.966 134.377C241.305 134.004 241.478 133.544 241.486 132.997C241.495 132.346 241.299 131.833 240.896 131.459C240.499 131.091 239.977 130.902 239.331 130.892L232.188 130.789L232.226 128.142L239.608 128.249C240.199 128.257 240.674 128.085 241.032 127.732C241.39 127.384 241.574 126.925 241.582 126.353C241.587 125.965 241.493 125.611 241.299 125.29C241.11 124.969 240.837 124.711 240.482 124.517C240.132 124.323 239.721 124.223 239.248 124.216L232.284 124.115L232.323 121.416Z" fill="white"/>
</svg>
