<?xml version="1.0" encoding="UTF-8" standalone="no"?>
<svg
   width="500"
   height="207.50974"
   viewBox="0 0 500 207.50974"
   fill="none"
   version="1.1"
   id="svg36"
   sodipodi:docname="SSA.svg"
   inkscape:version="1.3.2 (091e20e, 2023-11-25, custom)"
   xmlns:inkscape="http://www.inkscape.org/namespaces/inkscape"
   xmlns:sodipodi="http://sodipodi.sourceforge.net/DTD/sodipodi-0.dtd"
   xmlns="http://www.w3.org/2000/svg"
   xmlns:svg="http://www.w3.org/2000/svg">
  <sodipodi:namedview
     id="namedview36"
     pagecolor="#ffffff"
     bordercolor="#999999"
     borderopacity="1"
     inkscape:showpageshadow="2"
     inkscape:pageopacity="0"
     inkscape:pagecheckerboard="true"
     inkscape:deskcolor="#d1d1d1"
     inkscape:zoom="1.2775746"
     inkscape:cx="207.42429"
     inkscape:cy="18.785596"
     inkscape:window-width="1500"
     inkscape:window-height="912"
     inkscape:window-x="-8"
     inkscape:window-y="-8"
     inkscape:window-maximized="1"
     inkscape:current-layer="svg36" />
  <g
     id="Artwork"
     transform="scale(2.4154589)">
    <g
       id="&lt;Group&gt;">
      <g
         id="&lt;Group&gt;_2">
        <path
           id="&lt;Path&gt;"
           d="m 15.7729,48.8979 c -3.213,0 -6.0426,-1.3874 -7.24748,-3.5964 C 7.44833,43.4029 7.06496,41.7052 6.95543,37.981 H 0 c 0,3.4686 1.07709,6.499 3.15824,8.7627 2.59231,2.9027 6.49904,4.2901 12.24956,4.2901 4.856,0 9.2009,-1.2596 11.5376,-3.3955 2.4098,-2.209 3.7972,-5.4402 3.7972,-8.9088 0,-9.0184 -7.5031,-11.0995 -15.7181,-14.3125 -5.75059,-2.282 -7.70396,-4.3084 -7.70396,-7.9047 0,-8.32464 11.17246,-9.14615 14.33076,-3.8337 1.004,1.6977 1.3874,3.2677 1.57,6.6816 h 6.8276 c 0,-7.5762 -5.4402,-12.17661 -14.3855,-12.17661 -10.11366,0 -14.89666,5.42191 -14.89666,11.73841 0,2.9027 1.07709,5.422 3.15824,7.3753 4.60044,4.6005 14.34902,5.7688 17.98192,9.4017 4.2901,4.1258 2.9391,13.1989 -6.134,13.1989 z"
           fill="#000000" />
        <path
           id="&lt;Path&gt;_2"
           d="m 57.3774,48.8979 c -3.2312,0 -6.0609,-1.3874 -7.2657,-3.5964 -1.0771,-1.8986 -1.4422,-3.5963 -1.57,-7.3205 h -6.9372 c 0,3.4686 1.0588,6.499 3.14,8.7627 2.5923,2.9027 6.499,4.2901 12.2496,4.2901 4.856,0 9.2191,-1.2596 11.5376,-3.3955 2.4097,-2.209 3.7972,-5.4402 3.7972,-8.9088 0,-9.0184 -7.4849,-11.0995 -15.7182,-14.3125 -5.7323,-2.282 -7.6857,-4.3084 -7.6857,-7.9047 0,-8.32464 11.1725,-9.14615 14.3125,-3.8337 1.0041,1.6977 1.3875,3.2677 1.5883,6.6816 h 6.8094 c 0,-7.5762 -5.422,-12.17661 -14.3856,-12.17661 -10.1136,0 -14.8966,5.42191 -14.8966,11.73841 0,2.9027 1.0771,5.422 3.1582,7.3753 4.6005,4.6005 14.349,5.7688 17.9819,9.4017 4.2901,4.1258 2.9392,13.1989 -6.1157,13.1989 z"
           fill="#000000" />
        <path
           id="&lt;Compound Path&gt;"
           fill-rule="evenodd"
           clip-rule="evenodd"
           d="m 111.488,33.2361 7.193,17.1056 h -7.832 l -5.476,-13.6918 c -7.5217,4.3996 -14.6049,9.3469 -18.7124,13.6918 h -7.6674 l 18.42,-42.46279 h 3.4138 l 9.895,23.54989 c 5.33,-2.0994 10.679,-3.9067 15.462,-5.2029 l 0.091,0.1278 c -4.198,1.6065 -9.438,4.0345 -14.787,6.8824 z M 104.35,34.0941 96.8473,15.382 86.1129,43.8427 c 4.8012,-3.2678 11.3003,-6.6999 18.2371,-9.7486 z"
           fill="#000000" />
        <path
           id="&lt;Path&gt;_3"
           d="m 16.0103,65.6969 c -2.282,0.5112 -4.8561,1.4787 -7.26581,2.574 V 63.78 c 0.69372,0.3834 1.82561,1.2779 2.06291,3.0122 l 0.0548,-0.0365 c 0,0 0.3103,-2.0081 -0.93109,-3.5233 1.47869,0.2373 2.73839,1.004 3.66939,2.2637 l 0.0183,-0.073 c 0,0 -1.0406,-3.0305 -3.90676,-3.8703 0.74846,-0.4746 1.93516,-0.9127 3.46856,-0.4746 l -0.0182,-0.0548 c 0,0 -1.7161,-1.1318 -3.65117,-0.6754 0.36511,-0.4382 0.96757,-0.8946 1.91687,-1.0041 l -0.0183,-0.0365 c 0,0 -1.71601,-0.3286 -2.84787,0.8032 0,-0.6389 -0.21907,-1.3144 -0.51116,-1.7708 -0.01825,0 -0.01825,0 -0.05476,0 C 7.72217,58.7962 7.5031,59.4717 7.48485,60.1106 6.37125,58.9788 4.65521,59.3074 4.65521,59.3074 L 4.6187,59.3439 C 5.568,59.4534 6.17043,59.9098 6.53555,60.348 4.6187,59.8916 2.8844,61.0234 2.8844,61.0234 l -0.01825,0.0548 c 1.53348,-0.4381 2.73836,0 3.48684,0.4746 -2.8844,0.8398 -3.92498,3.8703 -3.92498,3.8703 l 0.03651,0.073 c 0.91279,-1.2597 2.19069,-2.0264 3.65115,-2.2637 -1.24139,1.5152 -0.91279,3.5233 -0.91279,3.5233 l 0.03651,0.0365 C 5.49497,65.0579 6.60857,64.1634 7.32054,63.78 v 4.4909 C 4.89253,67.1756 2.31848,66.2081 0.0365109,65.6969 L 0,65.7334 c 2.61057,0.9493 4.98381,2.1542 6.99194,3.3591 C 3.45033,70.8267 0.584183,72.6341 0,73.346 h 2.97568 c 0.82151,-0.6572 2.61057,-2.0629 5.05684,-3.6146 2.42798,1.5517 4.21708,2.9574 5.05688,3.6146 h 2.9574 C 15.4809,72.6341 12.5964,70.8267 9.07309,69.0925 11.0812,67.8876 13.4545,66.6827 16.0468,65.7334 Z"
           fill="#000000" />
        <g
           id="&lt;Group&gt;_3">
          <path
             id="&lt;Path&gt;_4"
             d="m 21.3957,70.0194 c -0.3834,-0.1095 -0.9311,-0.2555 -1.1866,-0.5294 -0.1643,-0.2008 -0.1826,-0.5476 0,-0.7485 0.5111,-0.5659 2.0628,-0.3468 2.7931,0.0913 l 0.3833,-0.7302 c -1.0588,-0.6207 -3.2677,-0.7667 -4.0345,0.2191 -0.3286,0.4381 -0.3286,1.1501 -0.0912,1.5699 0.4198,0.712 1.4787,0.8216 2.6288,1.2414 0.2312,0.0852 0.3955,0.1765 0.4929,0.2739 0.6024,0.5842 -0.3651,1.5882 -2.2455,1.0953 -0.3164,-0.0852 -0.5902,-0.2008 -0.8215,-0.3468 l -0.3833,0.7484 c 0.6206,0.3652 1.4787,0.5112 2.2272,0.5112 0.7484,0 1.6065,-0.146 2.0811,-0.7485 0.4016,-0.4929 0.3651,-1.2596 0.0913,-1.6613 -0.3651,-0.5294 -1.2779,-0.8032 -1.9351,-0.9858 z"
             fill="#000000" />
          <path
             id="&lt;Compound Path&gt;_2"
             fill-rule="evenodd"
             clip-rule="evenodd"
             d="m 27.8397,67.7031 2.428,5.641 h -1.0223 l -0.6389,-1.57 h -2.7201 l -0.639,1.57 h -1.0223 l 2.428,-5.641 z m 0.4382,3.3043 -1.0406,-2.4463 -1.0406,2.4463 z"
             fill="#000000" />
          <path
             id="&lt;Path&gt;_5"
             d="m 35.4707,70.9161 c 0,1.1319 -0.4199,1.643 -1.6248,1.643 -1.2231,0 -1.6247,-0.5476 -1.6247,-1.643 v -3.213 h -0.9858 v 3.4321 c 0,0.7424 0.2129,1.3083 0.6389,1.6978 0.4138,0.3894 1.071,0.5842 1.9716,0.5842 0.9006,0 1.5639,-0.1948 1.9899,-0.5842 0.4138,-0.3773 0.6207,-0.9432 0.6207,-1.6978 v -3.4321 h -0.9858 z"
             fill="#000000" />
          <path
             id="&lt;Compound Path&gt;_3"
             fill-rule="evenodd"
             clip-rule="evenodd"
             d="m 42.9742,68.9993 c 0.4929,0.8397 0.4929,2.1724 0,3.0304 -0.5842,0.9858 -1.7161,1.3144 -2.8662,1.3144 h -2.0811 v -5.641 h 2.0811 c 1.1319,0 2.282,0.3104 2.8662,1.2962 z m -0.9128,0.4381 c -0.4017,-0.6937 -1.1867,-0.8945 -1.9899,-0.8945 h -1.0588 v 3.9615 h 1.0588 c 0.8032,0 1.5882,-0.2191 1.9899,-0.9128 0.3468,-0.6024 0.3651,-1.57 0,-2.1542 z"
             fill="#000000" />
          <path
             id="&lt;Path&gt;_6"
             d="m 44.7085,73.3441 h 0.9858 v -5.641 h -0.9858 z"
             fill="#000000" />
          <path
             id="&lt;Path&gt;_7"
             d="m 51.8092,70.0194 c -0.3833,-0.1095 -0.931,-0.2555 -1.1866,-0.5294 -0.1643,-0.2008 -0.1825,-0.5476 0,-0.7485 0.5112,-0.5659 2.0629,-0.3468 2.7931,0.0913 l 0.3834,-0.7302 c -1.0588,-0.6207 -3.2678,-0.7667 -4.0345,0.2191 -0.3286,0.4381 -0.3286,1.1501 -0.0913,1.5699 0.4199,0.712 1.4787,0.8216 2.6288,1.2414 0.2313,0.0852 0.3956,0.1765 0.493,0.2739 0.6024,0.5842 -0.3652,1.5882 -2.2455,1.0953 -0.3164,-0.0852 -0.5903,-0.2008 -0.8215,-0.3468 l -0.3834,0.7484 c 0.6207,0.3652 1.4787,0.5112 2.2272,0.5112 0.7485,0 1.6065,-0.146 2.0812,-0.7485 0.4016,-0.4929 0.3651,-1.2596 0.0913,-1.6613 -0.3652,-0.5294 -1.2779,-0.8032 -1.9352,-0.9858 z"
             fill="#000000" />
          <path
             id="&lt;Compound Path&gt;_4"
             fill-rule="evenodd"
             clip-rule="evenodd"
             d="m 64.0775,67.7031 2.428,5.641 h -1.0223 l -0.6389,-1.57 h -2.7201 l -0.639,1.57 h -1.0223 l 2.428,-5.641 z m 0.4199,3.3043 -1.0223,-2.4463 -1.0406,2.4463 z"
             fill="#000000" />
          <path
             id="&lt;Compound Path&gt;_5"
             fill-rule="evenodd"
             clip-rule="evenodd"
             d="m 60.0977,68.5429 c 0.2921,0.5294 0.2738,1.2779 -0.0183,1.7891 -0.3834,0.6572 -1.1866,0.8762 -1.9351,0.8762 h -1.7708 v 2.1359 h -0.9858 v -5.641 h 2.7384 c 0.7484,0 1.6065,0.1826 1.9716,0.8398 z m -0.9311,0.4016 c -0.2373,-0.3468 -0.7119,-0.4016 -1.1318,-0.4016 h -1.6613 v 1.8621 h 1.6613 c 0.4199,0 0.8762,-0.0731 1.1136,-0.4017 0.2008,-0.2738 0.2008,-0.785 0.0182,-1.0588 z"
             fill="#000000" />
          <path
             id="&lt;Path&gt;_8"
             d="m 70.2847,68.4491 c 0.639,0 1.1867,0.1461 1.6796,0.4382 l 0.3833,-0.7303 c -0.6389,-0.3651 -1.3326,-0.5476 -2.0629,-0.5476 -1.1318,0 -2.2454,0.4199 -2.8661,1.3874 -0.5659,0.8945 -0.5659,2.1542 0,3.0305 0.6024,0.9675 1.716,1.3874 2.8661,1.3874 0.6938,0 1.3692,-0.146 2.0629,-0.5294 l -0.3833,-0.7302 c -0.5112,0.292 -1.0771,0.4381 -1.6796,0.4381 -0.785,0 -1.5334,-0.3286 -1.9716,-0.9858 -0.4199,-0.639 -0.3833,-1.5883 0,-2.1907 0.4382,-0.6572 1.1684,-0.9676 1.9716,-0.9676 z"
             fill="#000000" />
          <path
             id="&lt;Path&gt;_9"
             d="m 73.8081,73.3441 h 4.1988 v -0.8397 h -3.213 v -1.6613 h 2.9209 v -0.8032 h -2.9209 v -1.497 h 3.213 v -0.8398 h -4.1988 z"
             fill="#000000" />
          <path
             id="&lt;Compound Path&gt;_6"
             fill-rule="evenodd"
             clip-rule="evenodd"
             d="m 84.6517,67.7031 2.428,5.641 h -1.0223 l -0.6389,-1.57 h -2.7201 l -0.639,1.57 h -1.0223 l 2.428,-5.641 z m 0.4382,3.3043 -1.0406,-2.4463 -1.0406,2.4463 z"
             fill="#000000" />
          <path
             id="&lt;Path&gt;_10"
             d="m 109.973,68.4491 c 0.639,0 1.186,0.1461 1.679,0.4382 l 0.384,-0.7303 c -0.639,-0.3651 -1.315,-0.5476 -2.063,-0.5476 -1.132,0 -2.246,0.4199 -2.866,1.3874 -0.548,0.8945 -0.548,2.1542 0,3.0305 0.62,0.9675 1.716,1.3874 2.866,1.3874 0.693,0 1.369,-0.146 2.063,-0.5294 l -0.384,-0.7302 c -0.511,0.292 -1.077,0.4381 -1.679,0.4381 -0.785,0 -1.534,-0.3286 -1.972,-0.9858 -0.42,-0.639 -0.383,-1.5883 0,-2.1907 0.438,-0.6572 1.187,-0.9676 1.972,-0.9676 z"
             fill="#000000" />
          <path
             id="&lt;Path&gt;_11"
             d="m 94.7471,73.3441 h 4.1988 v -0.8397 h -3.213 v -1.6613 h 2.9209 v -0.8032 h -2.9209 v -1.497 h 3.213 v -0.8398 h -4.1988 z"
             fill="#000000" />
          <path
             id="&lt;Path&gt;_12"
             d="m 90.8222,71.0414 h 1.4604 v 1.2232 c -0.4198,0.2191 -0.858,0.3286 -1.3326,0.3286 -0.8033,0 -1.5518,-0.2738 -1.9716,-0.9311 -0.4199,-0.6389 -0.4199,-1.6612 0,-2.3002 0.4198,-0.6572 1.1866,-0.9128 1.9716,-0.9128 0.6207,0 1.2779,0.1278 1.789,0.4747 l 0.4017,-0.7668 c -0.712,-0.3651 -1.4057,-0.5476 -2.209,-0.5476 -1.1501,0 -2.2637,0.4381 -2.8661,1.3874 -0.5477,0.8763 -0.566,2.1359 0,3.0305 0.6024,0.9675 1.716,1.3874 2.8479,1.3874 0.7302,0 1.6612,-0.1826 2.3002,-0.5659 v -2.5193 h -2.3915 z"
             fill="#000000" />
          <path
             id="&lt;Path&gt;_13"
             d="m 104.423,72.3218 -2.684,-4.6187 h -1.351 v 5.641 h 0.986 v -4.6187 l 2.665,4.6187 h 1.351 v -5.641 h -0.967 z"
             fill="#000000" />
          <path
             id="&lt;Path&gt;_14"
             d="m 115.723,70.2954 -1.679,-2.5923 h -1.15 l 2.336,3.4869 v 2.1541 c 0,0 0.256,0 0.493,0 0.256,0 0.511,0 0.511,0 V 71.19 l 2.337,-3.4869 h -1.15 z"
             fill="#000000" />
        </g>
        <g
           id="&lt;Group&gt;_4">
          <path
             id="&lt;Path&gt;_15"
             d="m 61.9414,61.8204 h 0.4564 v -0.9493 h -0.2921 c -1.3509,0 -1.9534,0.6755 -1.9534,1.9899 v 1.3144 h 2.8297 v -0.9676 h -1.9169 v -0.5111 c 0,-0.5842 0.2921,-0.8763 0.8763,-0.8763 z"
             fill="#000000" />
          <path
             id="&lt;Compound Path&gt;_7"
             fill-rule="evenodd"
             clip-rule="evenodd"
             d="m 64.8808,63.2125 h 9.0549 v -3.3773 h 0.9675 v 0.3834 h 1.5518 c 1.3874,0 2.1724,0.7485 2.1724,2.1177 v 0.8762 h 1.497 c -0.3286,-0.5841 -0.3469,-1.4422 0.0365,-2.0446 0.4381,-0.6755 1.2231,-0.9493 2.0081,-0.9493 h 1.1501 v 2.9939 h 1.3874 v -4.6734 h 0.9676 v 5.641 H 63.895 v -5.641 h 0.9858 z m 16.0651,-0.4746 c 0.219,0.3468 0.6207,0.4746 1.0223,0.4746 h 0.3834 v -2.0264 h -0.3834 c -0.4016,0 -0.8033,0.1278 -1.0223,0.4747 -0.1826,0.2921 -0.2191,0.7485 0,1.0771 z m -6.0427,0.4746 h 2.7566 V 62.172 c 0,-0.6573 -0.4381,-0.9859 -1.1136,-0.9859 h -1.643 z"
             fill="#000000" />
          <path
             id="&lt;Path&gt;_16"
             d="m 87.8095,58.5391 h -0.9858 v 5.641 h 0.9858 z"
             fill="#000000" />
          <path
             id="&lt;Path&gt;_17"
             d="m 76.3631,59.4519 c 0.2921,0 0.5294,-0.219 0.5294,-0.4746 0,-0.2739 -0.2373,-0.4929 -0.5294,-0.4929 -0.2921,0 -0.5477,0.219 -0.5477,0.4929 0,0.2556 0.2556,0.4746 0.5477,0.4746 z"
             fill="#000000" />
          <path
             id="&lt;Path&gt;_18"
             d="m 82.7346,58.9773 c 0,-0.2739 -0.2373,-0.4929 -0.5294,-0.4929 -0.2921,0 -0.5294,0.219 -0.5294,0.4929 0,0.2556 0.2373,0.4746 0.5294,0.4746 0.2921,0 0.5294,-0.219 0.5294,-0.4746 z"
             fill="#000000" />
          <path
             id="&lt;Compound Path&gt;_8"
             fill-rule="evenodd"
             clip-rule="evenodd"
             d="M 107.161,64.1801 H 93.6697 c -0.7668,0 -1.497,-0.2739 -1.8986,-0.9311 -0.3469,-0.6024 -0.3652,-1.4787 0.0182,-2.0811 0.3469,-0.5477 1.0041,-0.9493 2.0264,-0.9493 H 93.98 v -0.3469 h 0.9676 v 3.3408 h 11.2454 v -4.6734 h 0.968 z M 93.98,61.1861 h -0.3834 c -0.4016,0 -0.8032,0.1278 -1.0223,0.4747 -0.1825,0.2921 -0.2008,0.7485 0,1.0771 0.2191,0.3468 0.6207,0.4746 1.0223,0.4746 H 93.98 Z"
             fill="#000000" />
          <path
             id="&lt;Path&gt;_19"
             d="m 108.311,58.5391 v 5.641 h 6.097 v -1.6613 c 0,-1.3144 -0.638,-1.9899 -1.971,-1.9899 h -1.041 l 1.132,-1.9898 h -1.168 l -1.059,1.9898 c 0,0.3652 0.128,0.6938 0.329,0.9676 h 1.935 c 0.529,0 0.858,0.2738 0.858,0.858 v 0.858 h -4.144 v -4.6734 z"
             fill="#000000" />
          <path
             id="&lt;Compound Path&gt;_9"
             fill-rule="evenodd"
             clip-rule="evenodd"
             d="m 117.421,60.2148 h 1.15 v 3.6694 c 0,1.3875 -0.566,1.8256 -1.753,1.8256 -0.346,0 -0.675,-0.0182 -1.004,-0.1095 l -0.2,-1.0406 c 0.492,0.146 1.57,0.3469 1.88,-0.0913 0.055,-0.073 0.073,-0.1643 0.091,-0.2921 h -0.292 c -0.767,0 -1.479,-0.2738 -1.88,-0.931 -0.365,-0.6024 -0.365,-1.4787 0.018,-2.0812 0.42,-0.6754 1.205,-0.9493 1.99,-0.9493 z m 0.164,0.9676 h -0.365 c -0.402,0 -0.803,0.1278 -1.022,0.4746 -0.183,0.2921 -0.201,0.7668 0,1.0771 0.219,0.3286 0.62,0.4747 1.022,0.4747 h 0.365 z"
             fill="#000000" />
          <path
             id="&lt;Path&gt;_20"
             d="m 93.5422,58.8106 c 0,-0.2739 -0.2373,-0.4747 -0.5294,-0.4747 -0.2921,0 -0.5294,0.2008 -0.5294,0.4747 0,0.2738 0.2373,0.4929 0.5294,0.4929 0.2921,0 0.5294,-0.2191 0.5294,-0.4929 z"
             fill="#000000" />
          <path
             id="&lt;Path&gt;_21"
             d="m 94.3639,59.3035 c 0.2921,0 0.5294,-0.2191 0.5294,-0.4929 0,-0.2739 -0.2373,-0.4747 -0.5294,-0.4747 -0.2921,0 -0.5294,0.2008 -0.5294,0.4747 0,0.2738 0.2373,0.4929 0.5294,0.4929 z"
             fill="#000000" />
          <path
             id="&lt;Compound Path&gt;_10"
             fill-rule="evenodd"
             clip-rule="evenodd"
             d="m 19.1866,63.2484 c -0.3469,-0.6024 -0.3651,-1.4787 0.0182,-2.0811 0.3469,-0.5477 1.0041,-0.9493 2.0264,-0.9493 h 0.1643 v -0.3469 h 0.9676 v 3.3408 h 2.0264 V 60.218 h 0.9858 v 3.9614 h -4.2901 c -0.7668,0 -1.497,-0.2738 -1.8986,-0.931 z m 0.8032,-0.5112 c 0.2191,0.3469 0.6207,0.4747 1.0224,0.4747 h 0.3833 v -2.0264 h -0.3833 c -0.4017,0 -0.8033,0.1278 -1.0224,0.4747 -0.1825,0.292 -0.2008,0.7484 0,1.077 z"
             fill="#000000" />
          <path
             id="&lt;Path&gt;_22"
             d="m 25.9956,63.2088 v 0.9675 h 3.3591 v -1.9716 c 0,-0.6694 -0.1583,-1.1683 -0.4747,-1.4969 -0.3286,-0.3287 -0.8215,-0.493 -1.4787,-0.493 H 27.237 v 0.9676 h 0.3103 c 0.2921,0 0.5173,0.0791 0.6755,0.2373 0.146,0.1461 0.2191,0.3773 0.2191,0.6937 v 1.0954 z"
             fill="#000000" />
          <path
             id="&lt;Compound Path&gt;_11"
             fill-rule="evenodd"
             clip-rule="evenodd"
             d="m 53.3614,58.5391 h 0.9675 v 5.641 h -1.6978 c -0.2434,0 -0.4564,-0.0365 -0.6389,-0.1096 -0.2739,-0.1095 -0.4564,-0.2738 -0.5842,-0.4929 -0.3469,0.5112 -0.9128,0.6755 -1.5335,0.6755 -0.6024,0 -1.1866,-0.2373 -1.4422,-0.7667 -0.3286,0.4929 -0.858,0.6937 -1.4422,0.6937 H 33.5174 c -0.073,1.1501 -0.6207,1.5335 -1.7526,1.5335 -0.3286,0 -0.6754,-0.0183 -0.9858,-0.1096 l -0.2008,-1.0406 c 0.3834,0.1278 0.7668,0.1826 1.1501,0.1826 0.4564,0 0.7668,-0.1095 0.8033,-0.5659 h -0.2739 c -0.7667,0 -1.4969,-0.2739 -1.8803,-0.9311 -0.3651,-0.6024 -0.3834,-1.4787 0,-2.0811 0.4199,-0.6755 1.2049,-0.9493 2.0081,-0.9493 h 1.1501 v 2.9939 h 1.7891 l -0.8398,-2.2454 c 0.6207,-0.5477 1.351,-0.9128 2.1907,-0.9128 0.6572,0 1.3692,0.2191 2.1725,0.9128 l -0.8216,2.2454 h 7.3571 v -2.5193 h 0.9858 v 2.5193 h 0.6207 c 0.6024,0 1.0223,-0.3103 1.0223,-0.9675 V 60.6932 H 48.98 v 1.6796 c 0,0.5841 0.3833,0.9127 0.8945,0.9127 0.5294,0 0.8763,-0.3285 0.8763,-0.9492 v -2.1542 h 0.9858 v 1.9533 c 0,0.2313 0.0304,0.426 0.0913,0.5842 0.073,0.1582 0.1764,0.2799 0.3103,0.3651 0.1339,0.0852 0.2982,0.1278 0.4929,0.1278 h 0.7303 z m -20.8116,2.647 h -0.3833 c -0.3834,0 -0.8033,0.1278 -1.0041,0.4564 -0.2008,0.3104 -0.2191,0.785 0,1.0954 0.2191,0.3286 0.6024,0.4746 1.0041,0.4746 h 0.3833 z M 37.771,61.46 c -0.3104,-0.2556 -0.6937,-0.4199 -1.0954,-0.4199 -0.4199,0 -0.8032,0.1643 -1.1136,0.4199 l 0.6755,1.7525 h 0.8397 z"
             fill="#000000" />
          <path
             id="&lt;Path&gt;_23"
             d="m 56.4466,64.1801 v -5.641 H 55.479 v 5.641 z"
             fill="#000000" />
          <path
             id="&lt;Path&gt;_24"
             d="m 19.8984,58.8106 c 0,0.2738 0.2374,0.4929 0.5295,0.4929 0.292,0 0.5294,-0.2191 0.5294,-0.4929 0,-0.2739 -0.2374,-0.4747 -0.5294,-0.4747 -0.2921,0 -0.5295,0.2008 -0.5295,0.4747 z"
             fill="#000000" />
          <path
             id="&lt;Path&gt;_25"
             d="m 21.2495,58.8106 c 0,0.2738 0.2373,0.4929 0.5294,0.4929 0.2921,0 0.5294,-0.2191 0.5294,-0.4929 0,-0.2739 -0.2373,-0.4747 -0.5294,-0.4747 -0.2921,0 -0.5294,0.2008 -0.5294,0.4747 z"
             fill="#000000" />
          <path
             id="&lt;Path&gt;_26"
             d="m 23.5133,64.8906 c -0.2921,0 -0.5294,0.2191 -0.5294,0.4929 0,0.2739 0.2373,0.4747 0.5294,0.4747 0.2921,0 0.5477,-0.2008 0.5477,-0.4747 0,-0.2738 -0.2556,-0.4929 -0.5477,-0.4929 z"
             fill="#000000" />
          <path
             id="&lt;Path&gt;_27"
             d="m 24.8644,64.8906 c -0.2921,0 -0.5294,0.2191 -0.5294,0.4929 0,0.2739 0.2373,0.4747 0.5294,0.4747 0.2921,0 0.5294,-0.2008 0.5294,-0.4747 0,-0.2738 -0.2373,-0.4929 -0.5294,-0.4929 z"
             fill="#000000" />
        </g>
      </g>
      <g
         id="&lt;Group&gt;_5">
        <path
           id="&lt;Path&gt;_28"
           d="m 197.143,42.9825 c -0.183,0.5295 -0.402,1.1136 -0.694,1.6978 -4.473,8.9818 -14.586,18.5296 -22.363,24.2801 -7.741,5.7141 -15.864,9.8581 -21.761,11.8662 -2.611,0.8946 -5.385,1.5883 -8.106,1.9534 -3.048,0.4016 -7.996,0.5112 -10.551,-1.1136 -1.041,-0.6572 -2.319,-1.8256 -2.1,-3.1947 0.11,-0.6573 0.639,-1.4605 1.223,-1.7526 0.548,-0.2556 0.913,-0.0913 1.059,0.0183 0.073,0.0365 0.091,0.073 0.091,0.073 l 0.019,-0.0183 c 1.004,1.2414 2.72,1.8986 5.093,1.8986 8.16,0 21.633,-7.5213 21.761,-7.5944 13.582,-7.1745 22.692,-14.6776 22.783,-14.7506 2.939,-2.3185 12.67,-10.424 13.856,-17.4707 0.055,-0.3834 0.073,-1.0041 -0.237,-1.7891 h 0.018 c 0,0 1.041,2.3185 -0.055,5.7688 -0.012,0.0366 -0.024,0.0792 -0.036,0.1278 z"
           fill="url(#paint0_radial_8084_22509)"
           style="fill:url(#paint0_radial_8084_22509)" />
        <path
           id="&lt;Path&gt;_29"
           d="m 170.325,21.9556 c -2.665,0 -4.838,-0.0548 -6.864,-0.1461 -3.706,-0.1643 -6.992,-0.4016 -10.022,-0.7485 -11.136,-1.2413 -17.781,-3.7971 -19.771,-7.5943 -0.822,-1.5883 -0.822,-3.1765 -0.019,-4.74652 1.698,-3.3408 6.646,-5.7323 10.644,-6.35299 l 0.018,0.03651 c -1.059,0.29209 -1.99,0.69372 -2.885,1.09534 l -0.529,0.23733 c -1.99,0.85802 -6.554,3.34079 -5.586,7.72213 1.113,5.0021 7.813,6.2983 33.791,9.3287 1.108,0.1217 2.221,0.2434 3.341,0.3651 1.935,0.2191 3.943,0.4382 5.915,0.6937 v 0.0548 c -1.023,0 -2.045,0.0061 -3.067,0.0183 -1.643,0.0182 -3.304,0.0365 -4.966,0.0365 z"
           fill="url(#paint1_radial_8084_22509)"
           style="fill:url(#paint1_radial_8084_22509)" />
        <path
           id="&lt;Path&gt;_30"
           d="m 186.244,64.8528 c 1.497,-0.785 2.921,-1.5883 4.163,-2.428 1.551,-1.4605 2.373,-2.4098 2.683,-2.7566 0.347,-0.3651 5.732,-6.2435 8.599,-11.0995 2.902,-4.8743 4.564,-11.5376 2.044,-16.8135 -0.401,-0.8763 -1.588,-3.0852 -2.355,-3.9615 -0.73,-0.8215 -1.387,-1.7708 -2.337,-2.3002 -5.549,-3.14 -12.87,-5.0204 -18,-5.9149 -5.056,-0.8763 -10.296,-1.4787 -16.795,-2.1177 1.935,0.5842 6.061,1.8986 10.734,3.6877 1.717,0.2373 3.268,0.4564 4.583,0.6937 0,0 13.673,2.3185 19.113,8.1603 0.292,0.3104 3.451,3.4686 1.278,5.8236 -0.693,0.7667 -2.446,1.3509 -2.975,0.7302 0.097,0.1826 0.182,0.3591 0.255,0.5294 0,0 1.041,2.3185 -0.055,5.7688 -0.182,0.5842 -0.419,1.1867 -0.73,1.8256 -4.472,8.9818 -14.586,18.5296 -22.363,24.2801 -0.742,0.5477 -1.485,1.0832 -2.227,1.6065 3.505,-1.1318 9.438,-3.213 14.385,-5.714 z"
           fill="url(#paint2_linear_8084_22509)"
           style="fill:url(#paint2_linear_8084_22509)" />
        <path
           id="&lt;Path&gt;_31"
           d="m 195.536,23.2171 c -3.943,-1.7525 -8.087,-2.8844 -11.409,-3.5963 -8.946,-1.9169 -32.769,-3.5051 -37.114,-4.1258 -7.102,-1.0041 -8.088,-2.7019 -8.088,-4.1258 0.019,-3.8885 11.118,-7.22929 15.299,-7.63092 -4.345,0.20081 -15.499,3.52335 -15.518,7.63092 -0.018,1.7525 0.931,3.7972 12.031,4.8377 13.564,1.2779 22.162,1.9534 30.304,3.3773 8.124,1.424 21.706,5.2759 25.12,12.779 0,0 -1.57,-5.3124 -10.625,-9.1461 z"
           fill="#000000" />
        <g
           id="&lt;Group&gt;_6">
          <path
             id="&lt;Compound Path&gt;_12"
             fill-rule="evenodd"
             clip-rule="evenodd"
             d="m 199.954,35.8239 c -0.694,0.7668 -2.446,1.351 -2.976,0.7303 -0.42,-0.4564 -1.752,-3.9433 -14.677,-7.3206 -4.144,-1.0953 -12.159,-3.286 -16.285,-4.144 -18.255,-3.8337 -30.395,-5.5863 -33.316,-11.2821 -0.53,-1.0223 -1.132,-2.6288 -0.256,-4.94726 0.95,-2.59231 5.349,-6.02439 15.992,-7.72217 0,0 7.668,-1.296158 15.335,0.20081 0,0 2.83,0.60244 5.185,1.67953 0.876,0.40162 1.697,0.87627 2.263,1.40569 0.329,0.31034 1.643,1.4422 1.096,3.88847 -0.731,3.30433 -2.209,5.71403 -3.925,9.18263 l -1.205,-0.1095 c 0,0 2.026,-3.6694 2.848,-5.5498 2.3,-4.60042 1.351,-6.02437 0.255,-6.80936 -3.158,-2.2272 -7.576,-2.33673 -11.245,-2.57406 0,0 -6.791,-0.21907 -12.286,1.1136 -5.477,1.31441 -13.181,5.40369 -9.986,9.85812 1.186,1.6612 5.349,2.9391 10.734,3.998 10.132,1.9716 24.627,3.1217 32.057,4.4179 0,0 13.674,2.3184 19.114,8.1603 0.292,0.3103 3.45,3.4685 1.278,5.8235 z M 178.357,21.8583 c -3.085,-0.4016 -6.17,-0.6937 -9.255,-1.0588 -25.23,-2.9392 -32.66,-4.1806 -33.81,-9.3287 -1.113,-5.05683 5.093,-7.53961 5.678,-7.79519 1.022,-0.45639 2.099,-0.96755 3.322,-1.29615 -6.006,0.94929 -13.4,5.64102 -10.606,11.06294 2.756,5.2759 13.837,6.9372 19.752,7.5944 3.323,0.3651 6.664,0.6024 10.023,0.7485 4.965,0.2191 9.913,0.1095 14.896,0.073 z"
             fill="url(#paint3_radial_8084_22509)"
             style="fill:url(#paint3_radial_8084_22509)" />
        </g>
        <g
           id="&lt;Group&gt;_7">
          <g
             id="&lt;Group&gt;_8">
            <path
               id="&lt;Compound Path&gt;_13"
               d="m 201.377,27.8026 c 0.767,0.8763 1.953,3.0852 2.355,3.9615 2.519,5.2759 0.858,11.9392 -2.045,16.8135 -2.866,4.856 -8.251,10.7344 -8.598,11.0995 -0.913,0.9676 -5.714,6.8276 -20.009,14.7871 -10.058,5.495 -25.904,13.1624 -37.369,10.7709 -3.779,-0.8215 -6.536,-2.7201 -7.795,-5.5132 -0.931,-2.0264 -0.238,-4.856 0.913,-7.5396 1.332,-3.0487 3.267,-5.9514 4.125,-7.3388 6.317,-10.1685 18.074,-23.3674 29.538,-39.1586 l -0.237,-0.0365 c -20.885,28.2599 -35.453,40.9476 -35.471,50.9335 0,1.1318 0.365,6.9919 8.653,8.8358 7.85,1.7343 17.69,-1.4422 25.12,-4.5457 0.037,0 3.359,-1.1501 12.633,-6.207 6.536,-3.6328 12.031,-7.0649 18.219,-12.1948 C 198.803,56.3363 207,47.9204 207,38.8291 c 0,-4.4179 -1.735,-8.3977 -5.623,-11.0265 z m -6.353,30.9435 c -0.931,0.8397 -1.899,1.7343 -2.976,2.7383 0.037,-0.0182 6.554,-7.3205 8.507,-9.9676 5.258,-7.1015 6.937,-13.9656 3.944,-20.0448 0.985,1.1684 8.032,11.0995 -9.475,27.2741 z"
               fill="#000000" />
          </g>
        </g>
        <path
           id="&lt;Path&gt;_32"
           d="m 162.786,25.7344 0.547,0.1278 -20.099,29.7568 c -3.231,4.7647 -6.39,8.6897 -5.166,6.2982 2.957,-5.7871 20.592,-30.5783 24.718,-36.1828 z"
           fill="url(#paint4_linear_8084_22509)"
           style="fill:url(#paint4_linear_8084_22509)" />
        <path
           id="&lt;Path&gt;_33"
           d="m 152.763,41.5262 c 0.037,-0.0608 0.061,-0.1034 0.073,-0.1278 l -7.247,10.7344 c -4.126,6.6268 -9.128,14.8419 -10.552,17.7446 -1.479,2.9939 -1.661,4.4726 -1.643,5.1481 0.018,0.6754 0.237,1.3327 0.548,1.789 l 0.018,-0.0182 c -0.055,-0.0913 -0.164,-0.3469 -0.11,-0.4929 0.013,-0.0365 0.031,-0.0548 0.055,-0.0548 0.012,-0.0122 0.024,-0.0182 0.037,-0.0182 0.091,0 0.182,0.0912 0.219,0.146 v -0.0182 c -0.219,-0.3834 -0.694,-1.1137 -0.219,-2.9575 0.109,-0.6389 0.985,-2.6106 1.369,-3.4138 4.253,-7.6857 16.211,-26.5803 17.452,-28.4607 z"
           fill="url(#paint5_linear_8084_22509)"
           style="fill:url(#paint5_linear_8084_22509)" />
        <path
           id="&lt;Compound Path&gt;_14"
           d="m 148.345,45.0283 c 2.739,-3.9798 4.747,-6.9007 4.765,-6.9189 -8.124,10.3875 -15.572,19.351 -20.154,26.7263 -0.858,1.3875 -2.793,4.2901 -4.126,7.3388 1.022,-0.9858 3.176,-3.286 4.034,-4.5456 0,0 9.493,-13.8561 15.481,-22.6006 z"
           fill="url(#paint6_linear_8084_22509)"
           style="fill:url(#paint6_linear_8084_22509)" />
        <path
           id="&lt;Path&gt;_34"
           d="m 194.605,58.8849 c -0.675,0.6207 -1.332,1.2232 -2.063,2.0629 l -0.492,0.5294 c 0.511,-0.4746 0.998,-0.9249 1.46,-1.3509 0.529,-0.4929 1.022,-0.9493 1.515,-1.3874 17.507,-16.1746 10.461,-26.1057 9.475,-27.2741 0.256,0.5234 0.475,1.0467 0.657,1.57 0.749,1.6065 1.406,4.0346 1.059,7.1015 -1.041,9.2191 -11.611,18.7486 -11.611,18.7486 z"
           fill="url(#paint7_linear_8084_22509)"
           style="fill:url(#paint7_linear_8084_22509)" />
        <path
           id="&lt;Path&gt;_35"
           d="m 139.619,13.429 h -2.848 c -1.241,-1.7343 -0.84,-3.3956 0.42,-4.87431 0,0 -2.41,2.82961 2.428,4.87431 z"
           fill="url(#paint8_linear_8084_22509)"
           style="fill:url(#paint8_linear_8084_22509)" />
        <path
           id="&lt;Path&gt;_36"
           d="m 139.619,13.429 h -2.848 c -1.241,-1.7343 -0.84,-3.3956 0.42,-4.87431 0,0 -2.41,2.82961 2.428,4.87431 z"
           fill="url(#paint9_radial_8084_22509)"
           style="fill:url(#paint9_radial_8084_22509)" />
        <path
           id="&lt;Path&gt;_37"
           d="m 139.619,13.429 h -2.848 c -1.241,-1.7343 -0.84,-3.3956 0.42,-4.87431 0,0 -2.41,2.82961 2.428,4.87431 z"
           fill="url(#paint10_linear_8084_22509)"
           style="fill:url(#paint10_linear_8084_22509)" />
        <path
           id="&lt;Path&gt;_38"
           d="m 152.325,18.2492 c -1.679,-0.2556 -3.286,-0.5294 -4.819,-0.8215 -5.386,-1.0588 -9.548,-2.3367 -10.735,-3.998 h 2.848 c 0,0 1.497,1.3692 5.057,2.6288 3.578,1.2597 7.649,2.1907 7.649,2.1907 z"
           fill="url(#paint11_linear_8084_22509)"
           style="fill:url(#paint11_linear_8084_22509)" />
        <path
           id="&lt;Path&gt;_39"
           d="m 152.325,18.2492 c -1.679,-0.2556 -3.286,-0.5294 -4.819,-0.8215 -5.386,-1.0588 -9.548,-2.3367 -10.735,-3.998 h 2.848 c 0,0 1.497,1.3692 5.057,2.6288 3.578,1.2597 7.649,2.1907 7.649,2.1907 z"
           fill="url(#paint12_linear_8084_22509)"
           style="fill:url(#paint12_linear_8084_22509)" />
        <g
           id="&lt;Group&gt;_9">
          <path
             id="&lt;Path&gt;_40"
             d="m 157.619,0.0649457 c -1.406,-0.07302292 -9.657,-0.4198817 -16.138,1.7342943 0,0 -6.755,1.93511 -9.256,5.49497 0,0 -3.067,4.05279 0.055,8.25159 0,0 2.665,4.0163 10.99,6.1704 3.87,1.0041 10.899,2.3185 18.42,3.8155 10.643,2.0994 22.29,4.4909 27.438,6.6633 0,0 7.595,2.6653 7.595,5.8601 0,0.9676 -0.201,1.9534 -0.566,2.8479 -3.213,7.9777 -16.303,17.3429 -19.735,19.7892 -10.241,7.2475 -16.193,10.1502 -16.193,10.1502 -17.689,9.4199 -24.754,7.6856 -26.069,5.5132 0,0 -0.128,-0.1826 -0.255,-0.1461 -0.146,0.0548 -0.11,0.3469 0.036,0.5842 5.203,6.4991 26.891,-5.6775 26.891,-5.6775 13.728,-7.2658 22.783,-14.7506 22.783,-14.7506 1.935,-1.5152 12.596,-10.0589 13.856,-17.489 0.11,-0.6024 0,-1.4057 -0.493,-2.3185 -0.401,-0.4564 -1.698,-3.7972 -13.929,-7.1197 -9.091,-2.2637 -17.124,-3.852 -26.525,-5.5497 -3.086,-0.566 -8.544,-1.6248 -13.072,-2.8844 -13.016,-3.6329 -13.509,-9.8764 -10.807,-13.63707 4.874,-6.845891 25.978,-9.54774 36.311,-4.34486 0.876,0.40163 1.697,0.87628 2.263,1.40569 -0.389,-0.36511 -0.815,-0.6998 -1.278,-1.00406 -2.245,-1.51523 -6.206,-3.12173 -12.103,-3.3590543 0,0 -0.073,0 -0.219,0 z"
             fill="url(#paint13_radial_8084_22509)"
             style="fill:url(#paint13_radial_8084_22509)" />
        </g>
      </g>
    </g>
  </g>
  <defs
     id="defs36">
    <radialGradient
       id="paint0_radial_8084_22509"
       cx="0"
       cy="0"
       r="1"
       gradientUnits="userSpaceOnUse"
       gradientTransform="matrix(-17.134456,-22.738191,22.738191,-17.134456,163.074,71.9357)">
      <stop
         stop-opacity="0.72"
         id="stop1" />
      <stop
         offset="1"
         id="stop2" />
    </radialGradient>
    <radialGradient
       id="paint1_radial_8084_22509"
       cx="0"
       cy="0"
       r="1"
       gradientUnits="userSpaceOnUse"
       gradientTransform="matrix(9.25127,0,0,9.25127,140.739,13.4982)">
      <stop
         stop-opacity="0.7"
         id="stop3" />
      <stop
         offset="1"
         id="stop4" />
    </radialGradient>
    <linearGradient
       id="paint2_linear_8084_22509"
       x1="223.58701"
       y1="20.68"
       x2="218.828"
       y2="75.067802"
       gradientUnits="userSpaceOnUse">
      <stop
         offset="0.04"
         stop-opacity="0.01"
         id="stop5" />
      <stop
         offset="0.1"
         stop-opacity="0"
         id="stop6" />
      <stop
         offset="0.42"
         stop-opacity="0.12"
         id="stop7" />
      <stop
         offset="0.75"
         stop-opacity="0"
         id="stop8" />
    </linearGradient>
    <radialGradient
       id="paint3_radial_8084_22509"
       cx="0"
       cy="0"
       r="1"
       gradientUnits="userSpaceOnUse"
       gradientTransform="matrix(-17.590679,-14.760332,14.760332,-17.590679,197.875,35.2383)">
      <stop
         stop-opacity="0.8"
         id="stop9" />
      <stop
         offset="1"
         id="stop10" />
    </radialGradient>
    <linearGradient
       id="paint4_linear_8084_22509"
       x1="112.198"
       y1="46.026001"
       x2="121.36"
       y2="30.156799"
       gradientUnits="userSpaceOnUse">
      <stop
         stop-opacity="0.3"
         id="stop11" />
      <stop
         offset="1"
         id="stop12" />
    </linearGradient>
    <linearGradient
       id="paint5_linear_8084_22509"
       x1="176.31"
       y1="74.243202"
       x2="169.06799"
       y2="94.142601"
       gradientUnits="userSpaceOnUse">
      <stop
         stop-opacity="0.3"
         id="stop13" />
      <stop
         offset="0.45"
         stop-opacity="0.3"
         id="stop14" />
      <stop
         offset="1"
         id="stop15" />
    </linearGradient>
    <linearGradient
       id="paint6_linear_8084_22509"
       x1="176.60001"
       y1="55.4739"
       x2="152.355"
       y2="90.0998"
       gradientUnits="userSpaceOnUse">
      <stop
         stop-opacity="0"
         id="stop16" />
      <stop
         offset="0.5"
         stop-opacity="0.9"
         id="stop17" />
      <stop
         offset="0.9"
         stop-opacity="0"
         id="stop18" />
    </linearGradient>
    <linearGradient
       id="paint7_linear_8084_22509"
       x1="233.123"
       y1="56.233501"
       x2="223.756"
       y2="72.458"
       gradientUnits="userSpaceOnUse">
      <stop
         stop-opacity="0.15"
         id="stop19" />
      <stop
         offset="0.5"
         stop-opacity="0.7"
         id="stop20" />
      <stop
         offset="1"
         stop-opacity="0.15"
         id="stop21" />
    </linearGradient>
    <linearGradient
       id="paint8_linear_8084_22509"
       x1="131.07201"
       y1="12.0072"
       x2="135.63"
       y2="7.4494901"
       gradientUnits="userSpaceOnUse">
      <stop
         stop-opacity="0.5"
         id="stop22" />
      <stop
         offset="0.9"
         stop-opacity="0"
         id="stop23" />
    </linearGradient>
    <radialGradient
       id="paint9_radial_8084_22509"
       cx="0"
       cy="0"
       r="1"
       gradientUnits="userSpaceOnUse"
       gradientTransform="matrix(3.1036488,-4.4324863,4.4324863,3.1036488,136.14,12.8731)">
      <stop
         stop-opacity="0.4"
         id="stop24" />
      <stop
         offset="0.65"
         stop-opacity="0"
         id="stop25" />
    </radialGradient>
    <linearGradient
       id="paint10_linear_8084_22509"
       x1="134.521"
       y1="13.5909"
       x2="134.521"
       y2="13.2026"
       gradientUnits="userSpaceOnUse">
      <stop
         stop-opacity="0.3"
         id="stop26" />
      <stop
         offset="1"
         stop-opacity="0"
         id="stop27" />
    </linearGradient>
    <linearGradient
       id="paint11_linear_8084_22509"
       x1="137.95799"
       y1="27.1742"
       x2="144.019"
       y2="12.8952"
       gradientUnits="userSpaceOnUse">
      <stop
         stop-opacity="0.1"
         id="stop28" />
      <stop
         offset="0.45"
         stop-opacity="0.2"
         id="stop29" />
      <stop
         offset="1"
         stop-opacity="0.05"
         id="stop30" />
    </linearGradient>
    <linearGradient
       id="paint12_linear_8084_22509"
       x1="144.995"
       y1="11.7149"
       x2="145.183"
       y2="12.7818"
       gradientUnits="userSpaceOnUse">
      <stop
         stop-opacity="0.1"
         id="stop31" />
      <stop
         offset="0.35"
         stop-opacity="0.2"
         id="stop32" />
      <stop
         offset="1"
         stop-opacity="0"
         id="stop33" />
    </linearGradient>
    <radialGradient
       id="paint13_radial_8084_22509"
       cx="0"
       cy="0"
       r="1"
       gradientUnits="userSpaceOnUse"
       gradientTransform="matrix(36.459,0,0,36.459,164.194,39.3494)">
      <stop
         stop-opacity="0.7"
         id="stop34" />
      <stop
         offset="0.5"
         id="stop35" />
      <stop
         offset="1"
         id="stop36" />
    </radialGradient>
  </defs>
</svg>
