<svg width="48" height="48" viewBox="0 0 48 48" fill="none" xmlns="http://www.w3.org/2000/svg">
<g clip-path="url(#clip0_5641_10554)">
<path d="M32.1766 12.8246C32.032 12.6377 31.8754 12.4596 31.7078 12.2914C31.0834 11.6651 30.3212 11.1933 29.482 10.9137L26.7264 10.0188C26.514 9.94392 26.33 9.80506 26.2 9.62136C26.0698 9.43766 26 9.21816 26 8.99312C26 8.76808 26.0698 8.54858 26.2 8.36488C26.33 8.18116 26.514 8.04232 26.7264 7.96744L29.482 7.07256C30.3094 6.78704 31.0598 6.3141 31.674 5.69074C32.2714 5.08448 32.7246 4.3519 33 3.54744L33.0228 3.47926L33.9184 0.725788C33.9934 0.513564 34.1324 0.32979 34.3162 0.199799C34.5 0.069807 34.7196 0 34.9448 0C35.1702 0 35.3898 0.069807 35.5736 0.199799C35.7574 0.32979 35.8964 0.513564 35.9714 0.725788L36.867 3.47926C37.1454 4.31638 37.6154 5.07706 38.2396 5.70082C38.864 6.3246 39.6252 6.7943 40.463 7.07256L43.2186 7.96744L43.2736 7.98122C43.486 8.05608 43.67 8.19494 43.8 8.37864C43.9302 8.56234 44 8.78184 44 9.00688C44 9.23192 43.9302 9.45142 43.8 9.63512C43.67 9.81884 43.486 9.95768 43.2736 10.0326L40.518 10.9274C39.6804 11.2057 38.919 11.6754 38.2948 12.2992C37.6706 12.9229 37.2006 13.6836 36.922 14.5207L36.0264 17.2742C36.0184 17.2971 36.0096 17.3197 36 17.3419C35.921 17.5255 35.7928 17.6842 35.6288 17.8002C35.4448 17.9302 35.2252 18 35 18C34.7748 18 34.5552 17.9302 34.3712 17.8002C34.1874 17.6702 34.0484 17.4864 33.9736 17.2742L33.078 14.5207C32.8756 13.9066 32.5702 13.3333 32.1766 12.8246ZM47.5658 20.4264L46.035 19.9292C45.5696 19.7746 45.1466 19.5137 44.7998 19.1671C44.453 18.8206 44.1918 18.398 44.0372 17.9329L43.5396 16.4032C43.498 16.2853 43.4208 16.1832 43.3186 16.111C43.2166 16.0388 43.0946 16 42.9694 16C42.8442 16 42.7222 16.0388 42.62 16.111C42.518 16.1832 42.4408 16.2853 42.3992 16.4032L41.9016 17.9329C41.75 18.3947 41.4934 18.8152 41.1522 19.1615C40.811 19.5078 40.3942 19.7706 39.9344 19.9292L38.4036 20.4264C38.2856 20.468 38.1834 20.545 38.111 20.6472C38.0388 20.7492 38 20.8712 38 20.9962C38 21.1212 38.0388 21.2432 38.111 21.3452C38.1834 21.4472 38.2856 21.5244 38.4036 21.566L39.9344 22.0632C40.4006 22.2186 40.824 22.4806 41.171 22.8286C41.5178 23.1764 41.7786 23.6006 41.9322 24.067L42.4298 25.5968C42.4714 25.7146 42.5486 25.8168 42.6508 25.889C42.7528 25.9612 42.8748 26 43 26C43.1252 26 43.2472 25.9612 43.3492 25.889C43.4514 25.8168 43.5286 25.7146 43.5702 25.5968L44.0678 24.067C44.2226 23.602 44.4836 23.1794 44.8304 22.8328C45.1772 22.4864 45.6002 22.2254 46.0656 22.0708L47.5964 21.5736C47.7144 21.532 47.8166 21.455 47.889 21.3528C47.9612 21.2508 48 21.1288 48 21.0038C48 20.8788 47.9612 20.7568 47.889 20.6548C47.8166 20.5528 47.7144 20.4756 47.5964 20.434L47.5658 20.4264ZM24 4C25.914 4 27.7652 4.26886 29.5178 4.77084C29.287 4.91426 29.0394 5.03098 28.78 5.11806L26.1 5.99806C25.4852 6.2174 24.9492 6.61412 24.56 7.13806C24.1968 7.66822 24.0016 8.29544 24 8.93806C24.002 9.57444 24.1972 10.1952 24.56 10.7181C24.8908 11.2877 25.3954 11.7364 26 11.9981L28.8 12.9181C29.3394 13.101 29.8312 13.4016 30.24 13.7981L30.6 13.9981C30.8516 14.331 31.0474 14.7025 31.18 15.0981L32 17.9981C32.2114 18.617 32.6098 19.1551 33.14 19.5381C33.6628 19.9008 34.2836 20.096 34.92 20.098C35.3926 20.1038 35.8596 19.994 36.28 19.7781C36.0424 20.1772 35.918 20.6336 35.92 21.098C35.9156 21.6366 36.0838 22.1622 36.4 22.598C36.7108 23.0404 37.151 23.3758 37.66 23.558L39.24 24.058C39.402 24.1246 39.551 24.2194 39.68 24.338C39.8076 24.4678 39.9034 24.6252 39.96 24.798L40.44 26.318C40.6252 26.842 40.9674 27.2958 41.42 27.618C41.8576 27.9308 42.382 28.099 42.92 28.099C43.1504 28.099 43.3784 28.068 43.5982 28.0082C41.742 37.133 33.673 44 24 44C20.7192 44 17.5503 43.2078 14.7116 41.7166L6.13076 43.9506C5.2222 44.1874 4.2938 43.6426 4.05716 42.734C3.98398 42.4532 3.98396 42.1582 4.0571 41.8772L6.2898 33.3004C4.7944 30.4588 4 27.2856 4 24C4 12.9543 12.9543 4 24 4Z" fill="#E6674A"/>
</g>
<defs>
<clipPath id="clip0_5641_10554">
<rect width="48" height="48" fill="white"/>
</clipPath>
</defs>
</svg>
