<svg width="50" height="50" viewBox="0 0 50 50" fill="none" xmlns="http://www.w3.org/2000/svg">
<path d="M46.8825 0.046875H25.6141C25.3224 0.046875 25.0858 0.283585 25.0858 0.575177C25.0858 0.866801 25.3224 1.10348 25.6141 1.10348H46.8825C47.9253 1.10348 48.7737 1.95194 48.7737 2.99481V7.7136H1.22653V2.99481C1.22653 1.95194 2.07496 1.10348 3.11789 1.10348H20.6015C20.8931 1.10348 21.1298 0.866801 21.1298 0.575177C21.1298 0.283585 20.8931 0.046875 20.6015 0.046875H3.11789C1.49287 0.0468749 0.169922 1.36869 0.169922 2.99481V13.9687C0.169922 14.2603 0.4066 14.497 0.698224 14.497C0.989847 14.497 1.22653 14.2603 1.22653 13.9687V8.77021H11.7313V34.9148H3.11789C2.07496 34.9148 1.22653 34.0611 1.22653 33.0129V18.1497C1.22653 17.8581 0.989847 17.6214 0.698224 17.6214C0.4066 17.6214 0.169922 17.8581 0.169922 18.1497V33.0129C0.169922 34.6443 1.49287 35.9714 3.11789 35.9714H16.2927C16.5843 35.9714 16.821 35.7347 16.821 35.4431C16.821 35.1515 16.5843 34.9148 16.2927 34.9148H12.7879V8.77021H48.7737V33.0129C48.7737 34.0611 47.9253 34.9148 46.8825 34.9148H44.9235C44.6307 34.9148 44.3952 35.1515 44.3952 35.4431C44.3952 35.7347 44.6307 35.9714 44.9235 35.9714H46.8825C48.5075 35.9714 49.8303 34.6443 49.8303 33.0129V2.99481C49.8303 1.36869 48.5075 0.046875 46.8825 0.046875Z" fill="black"/>
<path d="M5.83984 4.55768C5.83984 4.84931 6.12824 5.13882 6.4209 5.13882C6.71252 5.13882 7.00208 4.84931 7.00208 4.55768C7.00208 4.26607 6.71252 3.97656 6.4209 3.97656C6.12824 3.97656 5.83984 4.26607 5.83984 4.55768Z" fill="black"/>
<path d="M10.4067 4.55768C10.4067 4.84931 10.6951 5.13882 10.9878 5.13882C11.2794 5.13882 11.569 4.84931 11.569 4.55768C11.569 4.26607 11.2794 3.97656 10.9878 3.97656C10.6951 3.97656 10.4067 4.26607 10.4067 4.55768Z" fill="black"/>
<path d="M14.9736 4.55768C14.9736 4.84931 15.262 5.13882 15.5547 5.13882C15.8463 5.13882 16.1359 4.84931 16.1359 4.55768C16.1359 4.26607 15.8463 3.97656 15.5547 3.97656C15.262 3.97656 14.9736 4.26607 14.9736 4.55768Z" fill="black"/>
<path d="M43.6322 5.14254C43.9237 5.14254 44.1605 4.90586 44.1605 4.61424C44.1605 4.32263 43.9237 4.08594 43.6322 4.08594H32.1543C31.8616 4.08594 31.626 4.32263 31.626 4.61424C31.626 4.90586 31.8616 5.14254 32.1543 5.14254H43.6322Z" fill="black"/>
<path d="M4.89695 14.4941H8.45022C8.74288 14.4941 8.97852 14.2574 8.97852 13.9658C8.97852 13.6742 8.74288 13.4375 8.45022 13.4375H4.89695C4.60533 13.4375 4.36865 13.6742 4.36865 13.9658C4.36865 14.2574 4.60533 14.4941 4.89695 14.4941Z" fill="black"/>
<path d="M4.89695 19.7363H8.45022C8.74288 19.7363 8.97852 19.4996 8.97852 19.208C8.97852 18.9164 8.74288 18.6797 8.45022 18.6797H4.89695C4.60533 18.6797 4.36865 18.9164 4.36865 19.208C4.36865 19.4996 4.60533 19.7363 4.89695 19.7363Z" fill="black"/>
<path d="M4.89695 24.9707H8.45022C8.74288 24.9707 8.97852 24.734 8.97852 24.4424C8.97852 24.1508 8.74288 23.9141 8.45022 23.9141H4.89695C4.60533 23.9141 4.36865 24.1508 4.36865 24.4424C4.36865 24.734 4.60533 24.9707 4.89695 24.9707Z" fill="black"/>
<path d="M4.89695 30.2129H8.45022C8.74288 30.2129 8.97852 29.9762 8.97852 29.6846C8.97852 29.3929 8.74288 29.1562 8.45022 29.1562H4.89695C4.60533 29.1562 4.36865 29.3929 4.36865 29.6846C4.36865 29.9762 4.60533 30.2129 4.89695 30.2129Z" fill="black"/>
<path d="M30.6032 28.8828C27.1733 28.8828 24.3818 31.6733 24.3818 35.103C24.3818 38.5328 27.1733 41.3233 30.6032 41.3233C34.0329 41.3233 36.8234 38.5328 36.8234 35.103C36.8234 31.6733 34.0329 28.8828 30.6032 28.8828ZM30.6032 40.2666C27.7556 40.2666 25.4384 37.9506 25.4384 35.103C25.4384 32.2555 27.7556 29.9394 30.6032 29.9394C33.4496 29.9394 35.7668 32.2555 35.7668 35.103C35.7668 37.9506 33.4496 40.2666 30.6032 40.2666Z" fill="#F83908"/>
<path d="M39.8215 46.8762C39.9842 46.6342 39.9197 46.3056 39.6767 46.1429L36.7901 44.2051C36.619 44.0899 36.3927 44.0857 36.2153 44.1956C35.2537 44.7989 34.1983 45.2342 33.0782 45.491C32.8753 45.5375 32.719 45.6991 32.6777 45.9031L32.0765 48.8996H29.1286L28.5274 45.9031C28.4852 45.6991 28.3298 45.5375 28.1269 45.491C27.0186 45.2374 25.9662 44.8021 25.0004 44.1956C24.825 44.0857 24.5989 44.0899 24.4257 44.2051L21.8898 45.9009L19.8084 43.8194L21.4946 41.2836C21.6088 41.1135 21.6141 40.8937 21.5084 40.7183C20.9083 39.7188 20.4771 38.6632 20.2278 37.5823C20.1814 37.3805 20.0218 37.2241 19.8179 37.1829L16.8203 36.5722V33.6327L19.8167 33.0305C20.0207 32.9903 20.1802 32.8339 20.2278 32.6332C20.4803 31.5449 20.923 30.4597 21.5074 29.4972C21.6141 29.3218 21.6088 29.1009 21.4946 28.9308L19.8084 26.395L21.8898 24.3209L24.4363 26.0104C24.6095 26.1245 24.8303 26.1277 25.009 26.0178C25.9758 25.4134 27.0259 24.977 28.1281 24.7224C28.3298 24.6759 28.4852 24.5153 28.5274 24.3114L29.2132 20.8901C29.2712 20.6048 29.0854 20.3258 28.799 20.2688C28.52 20.2096 28.2347 20.3956 28.1766 20.683L27.5575 23.7757C26.5717 24.0345 25.627 24.4265 24.7426 24.9453L22.1149 23.2019C21.9078 23.0635 21.6277 23.0899 21.4503 23.2685L18.756 25.9533C18.5774 26.1308 18.5478 26.4098 18.6883 26.62L20.4317 29.2415C19.9266 30.1311 19.541 31.0768 19.2811 32.0615L16.1884 32.6818C15.9411 32.7314 15.7637 32.948 15.7637 33.1995V37.0043C15.7637 37.2558 15.9401 37.4714 16.1874 37.521L19.2811 38.1518C19.5357 39.1207 19.9213 40.0664 20.4327 40.9719L18.6883 43.5944C18.5489 43.8036 18.5763 44.0825 18.7548 44.26L21.4492 46.9554C21.6277 47.134 21.9067 47.1604 22.117 47.0209L24.7342 45.2702C25.6197 45.7879 26.5664 46.1799 27.5575 46.4388L28.1766 49.5314C28.2262 49.7787 28.4429 49.9562 28.6955 49.9562H32.5098C32.7613 49.9562 32.9779 49.7787 33.0275 49.5314L33.6478 46.4398C34.6472 46.1788 35.5972 45.7868 36.4816 45.2702L39.0892 47.0199C39.3281 47.1837 39.6588 47.1192 39.8215 46.8762Z" fill="#F83908"/>
<path d="M40.7727 29.2412L42.516 26.6197C42.6566 26.4105 42.6281 26.1305 42.4495 25.953L39.7552 23.2682C39.5788 23.0907 39.2976 23.0632 39.0906 23.2027L36.4639 24.945C35.5795 24.4273 34.6348 24.0353 33.648 23.7754L33.0278 20.6827C32.9697 20.3953 32.6844 20.2104 32.4054 20.2685C32.1201 20.3255 31.9341 20.6045 31.9913 20.8908L32.6781 24.3111C32.7192 24.515 32.8745 24.6756 33.0774 24.7231C34.1816 24.9778 35.2307 25.4131 36.1955 26.0185C36.3719 26.1284 36.596 26.1263 36.7682 26.0101L39.3157 24.3206L41.3971 26.3957L39.7097 28.9316C39.5967 29.1017 39.5914 29.3225 39.6971 29.4979C40.2909 30.4753 40.7378 31.5604 40.9871 32.6329C41.0347 32.8347 41.1953 32.99 41.3982 33.0312L44.3948 33.6324V36.5719L41.3971 37.1837C41.1932 37.2249 41.0337 37.3802 40.9871 37.582C40.741 38.6471 40.3067 39.7026 39.696 40.7191C39.5914 40.8934 39.5967 41.1132 39.7097 41.2833L41.637 44.1794C41.7384 44.3326 41.9065 44.4151 42.0765 44.4151C42.178 44.4151 42.2794 44.3865 42.3703 44.3263C42.6123 44.1657 42.6788 43.8371 42.516 43.5941L40.7716 40.9726C41.2905 40.0566 41.6802 39.1099 41.935 38.1515L45.0277 37.5218C45.2749 37.4721 45.4514 37.2555 45.4514 37.004V33.2003C45.4514 32.9477 45.2738 32.7311 45.0265 32.6815L41.934 32.0602C41.6761 31.0966 41.2787 30.1329 40.7727 29.2412Z" fill="#F83908"/>
</svg>
